<?xml version="1.0" standalone="no"?>
<!DOCTYPE svg PUBLIC "-//W3C//DTD SVG 1.1//EN" "http://www.w3.org/Graphics/SVG/1.1/DTD/svg11.dtd" >
<svg>
<metadata>
Created by FontForge 20090914 at Thu Mar 21 11:39:41 2013
 By www-data
Copyright (c) Alexandra Gophmann russian encode work , 2006. All rights reserved.
</metadata>
<defs>
<font id="VeraCrouz" horiz-adv-x="271" >
  <font-face 
    font-family="Vera Crouz"
    font-weight="300"
    font-stretch="normal"
    units-per-em="1000"
    panose-1="2 0 3 0 0 0 0 0 0 0"
    ascent="800"
    descent="-200"
    x-height="277"
    cap-height="668.999"
    bbox="-387.999 -414 1463 770"
    underline-thickness="16"
    underline-position="-94"
    unicode-range="U+0020-U+F000"
  />
<missing-glyph horiz-adv-x="500" 
d="M63 0v757h375v-757h-375zM125 63h250v632h-250v-632z" />
    <glyph glyph-name=".notdef" horiz-adv-x="500" 
d="M63 0v757h375v-757h-375zM125 63h250v632h-250v-632z" />
    <glyph glyph-name="space" unicode=" " horiz-adv-x="161" 
 />
    <glyph glyph-name="exclam" unicode="!" horiz-adv-x="180" 
d="M305 513c0 -2.66699 -2.00098 -7.00098 -6.00098 -13.001c-94 -139.333 -155 -254 -183 -344c-1.33301 -5.33301 -2.66602 -11 -3.99902 -17c-2 -8.66699 -5 -13 -9 -13c-3.33301 0 -5 2.33301 -5 7c0 25.333 22.667 89.333 68 192c44 100.667 76 162.334 96 185.001
c8.66699 10.667 18 16 28 16s15 -4.33301 15 -13zM104.999 56.999c0 -2.66699 -3 -9.33203 -9 -19.999c-7.33301 -13.333 -11.333 -20.333 -12 -21c-8.66699 -18.667 -19.667 -28 -33 -28c-10 0 -15 8.66699 -15 26c0 9.33301 8.5 19.166 25.5 29.499s30.5 15.5 40.5 15.5
l3 -1v1v-2z" />
    <glyph glyph-name="quotedbl" unicode="&#x22;" horiz-adv-x="163" 
d="M250 247l0.000976562 1c0 5.33301 4.83301 21.333 14.5 48s14.5 46.667 14.5 60c0 4.66699 -1 10.167 -3 16.5l-3 9.5c0 6.66699 5.66699 13.667 17 21s20.666 11 27.999 11c8.66699 0 13 -3 13 -9c0 -10 -21 -54 -63 -132c-10 -18 -16 -26.667 -18 -26zM163.001 247
c-0.666992 0 -1 0.333008 -1 1c0 5.33301 5 21.333 15 48s15 46.667 15 60c0 4.66699 -1.16699 10.167 -3.5 16.5l-3.5 9.5c0 6.66699 5.83301 13.667 17.5 21s21.167 11 28.5 11c8.66699 0 13 -3 13 -9c0 -10 -21.333 -54 -64 -132c-9.33301 -18 -15 -26.667 -17 -26z" />
    <glyph glyph-name="numbersign" unicode="#" horiz-adv-x="369" 
d="M393 313c0 -2.66699 -3.33203 -3.99902 -9.99902 -3.99902c-22 0 -49 -0.333008 -81 -1c-18.667 -41.333 -41.334 -87.666 -68.001 -138.999c20 -0.666992 49.333 -3.33398 88 -8.00098c3.33301 -0.666992 5 -1.66699 5 -3c0 -2.66699 -3.33301 -4 -10 -4
c-25.333 0 -55.666 -0.666992 -90.999 -2c-14 -27.333 -32.333 -60.333 -55 -99c-5.33301 -6.66699 -13.666 -10 -24.999 -10c-6.66699 0 -10 1.66699 -10 5l60 103c-26.667 -0.666992 -53 -1.66699 -79 -3c-8.66699 -18 -23.334 -43.667 -44.001 -77
c-5.33301 -6.66699 -13.666 -10 -24.999 -10c-6.66699 0 -10 1.66699 -10 5c0 2 14 28.667 42 80c-26 -1.33301 -38.333 -2 -37 -2c-4 0 -9.83301 2.33301 -17.5 7s-11.834 8.66699 -12.501 12l2 2c10 1.33301 36 2.66602 78 3.99902c2 1.33301 5.33301 4 10 8
c0.666992 0.666992 8.33398 13 23.001 37l52 90c-52.667 -2.66699 -75.667 -4 -69 -4c-4 0 -9.83301 2.33301 -17.5 7s-11.834 8.66699 -12.501 12l2 1c17.333 2.66699 53.666 4.33398 108.999 5.00098c24 45.333 39 81.333 45 108c2 10.667 4.66699 16 8 16c2 0 3 -3 3 -9
c0 -18.667 -13 -56.667 -39 -114h29c14 0 31.667 -0.333008 53 -1c16 31.333 25.667 51.333 29 60c10.667 22.667 17.667 43.667 21 63c2.66699 10 5.33398 15 8.00098 15c2 0 3 -3.66699 3 -11c0 -22 -13.667 -64.667 -41 -128
c17.333 -0.666992 43.666 -3.33398 78.999 -8.00098c3.33301 -0.666992 5 -1.66699 5 -3zM281.001 307.001c-28 -0.666992 -56 -1.66699 -84 -3c-19.333 -40 -42.333 -84.667 -69 -134c27.333 0.666992 53.333 0.666992 78 0c28.667 50 53.667 95.667 75 137z" />
    <glyph glyph-name="dollar" unicode="$" horiz-adv-x="537" 
d="M611 429c0 -7.33301 -1.66211 -15.6689 -4.99512 -25.002c-4.66699 -12 -10.334 -18 -17.001 -18c-2.66699 0 -4.33398 2.16699 -5.00098 6.5s-1.66699 10.166 -3 17.499c-5.33301 22.667 -21 36.667 -47 42c-28 -36 -66 -91.333 -114 -166
c38.667 -15.333 66.667 -30 84 -44c28 -22.667 42 -49.667 42 -81c0 -38.667 -19.333 -75 -58 -109c-30 -26.667 -66.333 -48 -109 -64c-38.667 -14 -78 -21 -118 -21c-10.667 0 -21.334 0.666992 -32.001 2c-20.667 -39.333 -35.667 -59 -45 -59c-1.33301 0 -2 1 -2 3
c0 6 8.66699 25.667 26 59c-32.667 6 -61.334 17.333 -86.001 34c-30.667 20.667 -46 45.334 -46 74.001c0 5.33301 1.83301 14.5 5.5 27.5s6.5 19.5 8.5 19.5c1.33301 0 2.33301 -2 3 -6c8 -36 21.333 -62.333 40 -79c22 -20 50.667 -35.333 86 -46
c44 85.333 97.333 176.333 160 273c-65.333 24.667 -98 50.334 -98 77.001c0 16.667 10.167 36.834 30.5 60.501s52.5 41.5 96.5 53.5c36.667 10 74 14 112 12c27.333 36 48.666 54 63.999 54c2.66699 0 4 -1 4 -3c0 0.666992 -12.333 -16.333 -37 -51
c22 -2 36 -4.66699 42 -8c12 -5.33301 18 -17 18 -35zM507.005 454.997c-8.66699 0 -22 -0.331055 -40 -0.998047c-25.333 -1.33301 -54.333 -11.333 -87 -30c-38 -20.667 -57 -42.334 -57 -65.001c0 -22 24.333 -43.333 73 -64c40.667 63.333 77.667 116.666 111 159.999z
M404.005 258.999c-66 -100.667 -119.999 -189.668 -161.999 -267.001c13.333 -3.33301 27.333 -5 42 -5c46 0 93 14.667 141 44c54 32.667 81 70.334 81 113.001c0 22 -7 43 -21 63s-31.333 34 -52 42c-10.667 4.66699 -20.334 8 -29.001 10z" />
    <glyph glyph-name="percent" unicode="%" horiz-adv-x="518" 
d="M654 575c0 -2.66699 -1.66992 -5.33496 -5.00293 -8.00195l-131 -105c-249.333 -204 -409.333 -368.667 -480 -494c-3.33301 -6 -12.666 -27.667 -27.999 -65c-2 -4.66699 -5 -7 -9 -7c-10.667 0 -16 7 -16 21c0 44.667 69 139 207 283
c94 98.667 185.667 186.667 275 264l78 67c38.667 31.333 65.667 49.333 81 54c-7.33301 18.667 -41.666 28 -102.999 28c-24 0 -83.667 -6.33301 -179 -19c10.667 -7.33301 16 -19.666 16 -36.999c0 -38 -22.333 -87.667 -67 -149
c-46.667 -64.667 -87.334 -97 -122.001 -97c-20 0 -30 12.333 -30 37c0 18 5.66699 41 17 69c8.66699 22.667 23.334 51.667 44.001 87c25.333 44.667 43.666 67 54.999 67c10.667 0 16 -3.66699 16 -11c0 -2 -19.333 -33.167 -58 -93.5s-58 -101.5 -58 -123.5
c0 -13.333 5.33301 -20 16 -20c10 0 23 6.66699 39 20c26.667 22.667 51.334 54.334 74.001 95.001c24.667 44.667 37 82.667 37 114c0 28 -10.667 46.333 -32 55h6c18 0 26.667 0 26 0l96 14c38 4.66699 70.333 7 97 7c20.667 0 42.334 -2.66699 65.001 -8
c31.333 -8 49 -19 53 -33c1.33301 0.666992 3 1 5 1c10 0 15 -4.33301 15 -13zM527.997 191.999c0 -4 -4.5 -7.66699 -13.5 -11s-16.167 -5 -21.5 -5c-0.666992 -52.667 -21.334 -104 -62.001 -154c1.33301 -0.666992 10 -0.666992 26 0c-6.66699 -4 -13.334 -6 -20.001 -6
h-4c-2 0.666992 -3.66699 1 -5 1c2.66699 0 -7.66602 -9.16699 -30.999 -27.5s-42.333 -27.5 -57 -27.5c-19.333 0 -29 11.667 -29 35c0 34 16 70.667 48 110c-6.66699 20 -10 39.667 -10 59c0 28 7.66699 54 23 78c18 28 40 42 66 42c36.667 0 55.334 -28.333 56.001 -85
c22.667 0 34 -3 34 -9zM480.997 199.999c-6 47.333 -18.667 71 -38 71c-18 0 -36 -17.333 -54 -52c-14 -28 -21 -57 -21 -87c0 -6 0.333008 -11.333 1 -16c38 44.667 75.333 72.667 112 84zM479.997 176.999c-12.667 -2.66699 -32.667 -14.166 -60 -34.499
s-44.333 -36.5 -51 -48.5c8 -40.667 20 -63.334 36 -68.001c14 12 29.5 35.333 46.5 70s26.5 61.667 28.5 81zM401.997 22c-18 2.66699 -31 24.333 -39 65c-22.667 -33.333 -34 -59 -34 -77c0 -14.667 5.33301 -22 16 -22c15.333 0 34.333 11.333 57 34z" />
    <glyph glyph-name="ampersand" unicode="&#x26;" horiz-adv-x="612" 
d="M592 207c0 -74 -38.3369 -138.334 -115.004 -193.001c-68 -48.667 -141.333 -74.667 -220 -78c-5.33301 -10 -11 -20 -17 -30c28.667 -34 69.334 -51 122.001 -51c12 0 21.833 3 29.5 9l11.5 9c1.33301 0 2 -1 2 -3c0 -6.66699 -5.16699 -12.5 -15.5 -17.5
s-19.5 -7.5 -27.5 -7.5c-53.333 0 -97.333 16 -132 48c-44 -59.333 -89.667 -89 -137 -89c-29.333 0 -52.666 14.333 -69.999 43c-1.33301 4 -0.333008 6 3 6c1.33301 0 6.83301 -5.5 16.5 -16.5s21.834 -16.5 36.501 -16.5c21.333 0 46 11.333 74 34
c21.333 18 40.333 38.333 57 61c-5.33301 7.33301 -10.333 15 -15 23c-47.333 6 -86.666 19.667 -117.999 41c-38 26.667 -57 62 -57 106c0 68.667 43 131.334 129 188.001c30.667 20.667 72 42 124 64c76 32.667 119 51.334 129 56.001c37.333 97.333 74.333 146 111 146
c20.667 0 31 -11.333 31 -34c0 -36.667 -46.333 -81.334 -139 -134.001c-8.66699 -20.667 -17 -42 -25 -64c27.333 8.66699 54 13 80 13c38.667 0 69.667 -9.33301 93 -28c26 -20 39 -48.333 39 -85zM512.996 498.999c0 8 -3 12.001 -9 12.001
c-22 0 -50.333 -36.333 -85 -109c62.667 33.333 94 65.666 94 96.999zM551.996 195c0 34 -10.334 60.333 -31.001 79s-48 28 -82 28c-21.333 0 -42.666 -3.66699 -63.999 -11c-4 -10.667 -21 -68.667 -51 -174c-20 -68.667 -40.667 -125.667 -62 -171
c73.333 4.66699 138.333 28.667 195 72c63.333 48 95 107 95 177zM360.995 286c-50.667 -20.667 -90.167 -53.833 -118.5 -99.5s-42.5 -96.5 -42.5 -152.5c0 -32.667 5.33301 -61.667 16 -87l12 -1c22.667 48 67 161.333 133 340zM389.995 363.001
c-38 -20 -94.333 -51.999 -169 -95.999c-40 -26.667 -74 -56.667 -102 -90c-35.333 -42.667 -53 -83 -53 -121c0 -59.333 41.333 -95 124 -107c-11.333 25.333 -17 53 -17 83c0 62 17.667 117.167 53 165.5s82.333 83.166 141 104.499zM222.995 -63.998h-2l1 -3z" />
    <glyph glyph-name="quotesingle" unicode="'" horiz-adv-x="160" 
d="M69 292c-1.33301 0 -1.99902 0.332031 -1.99902 0.999023s16.333 21.667 49 63s50 72 52 92c3.33301 3.33301 7.66602 5 12.999 5s11.333 -2.16699 18 -6.5s10 -9.16602 10 -14.499c0 -8 -21.5 -33.333 -64.5 -76s-68.167 -64 -75.5 -64z" />
    <glyph glyph-name="parenleft" unicode="(" horiz-adv-x="236" 
d="M458 513c0 -2.66699 -1.33301 -4 -4 -4c-59.333 0 -122 -22.667 -188 -68c-58.667 -40 -106.334 -87.667 -143.001 -143c-44 -66.667 -66 -138 -66 -214c0 -78.667 22.667 -118 68 -118c2 0 4.66699 0.333008 8 1s6 1 8 1c3.33301 0 5 -1.33301 5 -4
c0 -4 -8 -7.66699 -24 -11c-13.333 -2.66699 -23.333 -4 -30 -4c-53.333 0 -80 40.667 -80 122c0 114 45.333 216.833 136 308.5s192.334 137.5 305.001 137.5c3.33301 0 5 -1.33301 5 -4z" />
    <glyph glyph-name="parenright" unicode=")" horiz-adv-x="377" 
d="M377 355c0 -71.333 -27.666 -146.998 -82.999 -226.998c-51.333 -74.667 -110.333 -131 -177 -169c-40.667 -24 -83.334 -36 -128.001 -36c-8 0 -12 1.66699 -12 5c0 2.66699 4.66699 4 14 4c35.333 0 76.333 14.333 123 43c60 37.333 111.5 92.666 154.5 165.999
s64.5 144.666 64.5 213.999c0 76 -29.333 123.667 -88 143c-2 0.666992 -11.667 2.66699 -29 6c-13.333 2.66699 -20 4.66699 -20 6c0 5.33301 10.667 8 32 8c48 0 85.333 -15.333 112 -46c24.667 -29.333 37 -68.333 37 -117z" />
    <glyph glyph-name="asterisk" unicode="*" horiz-adv-x="493" 
d="M466 218l-1.00098 -1c-34 -4 -97 -5.66699 -189 -5l88 -83l38 -34c1.33301 -2 2 -5 2 -9c0 -11.333 -1.66699 -17 -5 -17c-6 0 -49 40.333 -129 121l3 -112c0 -4 0.5 -11.833 1.5 -23.5s1.5 -20.5 1.5 -26.5c0 -8 -6.33301 -13.667 -19 -17l-2 1
c-4 32.667 -5.66699 94 -5 184l-84 -89c-8.66699 -10.667 -20 -23.667 -34 -39c-1.33301 -1.33301 -4.33301 -2 -9 -2c-11.333 0 -17 2 -17 6c0 6 44.333 52.667 133 140c-55.333 0.666992 -117.333 3.66699 -186 9c-2 0.666992 -3 1.66699 -3 3c0 2.66699 2 4 6 4
c31.333 0 89.666 0.666992 174.999 2c-80.667 83.333 -121 128.333 -121 135c0 2 1.33301 3 4 3l136 -131c0.666992 55.333 3.66699 117.333 9 186c0.666992 2 1.66699 3 3 3c2.66699 0 4 -1.66699 4 -5c0 -33.333 1 -93.333 3 -180c82 80 126.333 120 133 120
c2 0 3 -1.33301 3 -4c0 -0.666992 -40 -42.667 -120 -126c24.667 0.666992 62.334 2 113.001 4c4 0 12.333 0.333008 25 1c10.667 1.33301 19.334 2 26.001 2c7.33301 0 13 -6.66699 17 -20z" />
    <glyph glyph-name="plus" unicode="+" horiz-adv-x="317" 
d="M351 181c0 -2.66699 -3.66895 -4.00195 -11.002 -4.00195c-36 0 -79.667 -1 -131 -3c-44 -110 -70 -165 -78 -165c-2 0 -3 1 -3 3c0 -3.33301 19.667 50.334 59 161.001c-6.66699 0 -23.667 -1 -51 -3c-22 -2 -39.333 -3 -52 -3c-3.33301 0 -7.66602 2.33301 -12.999 7
s-8 9 -8 13l2 1c26 3.33301 69 5.33301 129 6c9.33301 26.667 18.666 56.334 27.999 89.001c2 9.33301 5.66699 22.666 11 39.999c4 8.66699 14.333 14.334 31 17.001l1 -1c-9.33301 -37.333 -25.666 -85.666 -48.999 -144.999
c32.667 -0.666992 54.667 -1.33398 66 -2.00098c24.667 -1.33301 46.334 -4 65.001 -8c2.66699 -0.666992 4 -1.66699 4 -3z" />
    <glyph glyph-name="comma" unicode="," horiz-adv-x="125" 
d="M110 47v-2c0.666992 -16 -13.666 -41 -42.999 -75c-40.667 -46 -66 -69.333 -76 -70v1c0 1.33301 5.66699 8 17 20c34 38 54 68.667 60 92c0.666992 2 1 7.33301 1 16c0 6 2.66699 13 8 21s10.666 12 15.999 12c6 0 11.667 -5 17 -15v0z" />
    <glyph glyph-name="hyphen" unicode="-" horiz-adv-x="245" 
d="M225 151c0 -2.66699 -1.99805 -4 -5.99805 -4c-31.333 0 -65.5 -1.66699 -102.5 -5s-53.167 -5 -48.5 -5c-2.66699 0 -5.33398 2.5 -8.00098 7.5s-4 9.16699 -4 12.5l1 1c29.333 3.33301 56.666 5 81.999 5c57.333 0 86 -4 86 -12z" />
    <glyph glyph-name="hyphen" unicode="&#x2010;" horiz-adv-x="245" 
d="M225 151c0 -2.66699 -1.99805 -4 -5.99805 -4c-31.333 0 -65.5 -1.66699 -102.5 -5s-53.167 -5 -48.5 -5c-2.66699 0 -5.33398 2.5 -8.00098 7.5s-4 9.16699 -4 12.5l1 1c29.333 3.33301 56.666 5 81.999 5c57.333 0 86 -4 86 -12z" />
    <glyph glyph-name="period" unicode="." horiz-adv-x="125" 
d="M115 59v-2.00098l-16 -14l-22 -33c-10.667 -14.667 -20 -22 -28 -22c-7.33301 0 -11 6.66699 -11 20c0 12.667 6.66699 21.334 20 26.001c4.66699 3.33301 14 8.33301 28 15s23 10 27 10l2 -1v1z" />
    <glyph glyph-name="slash" unicode="/" horiz-adv-x="367" 
d="M605 585c0 -1.33301 -1.33301 -3.33105 -4 -5.99805c-304.667 -247.333 -494.334 -450.333 -569.001 -609c-8 -18 -15.333 -39.667 -22 -65l-1 -2c-10.667 3.33301 -16 9 -16 17c0 5.33301 3.66699 16.666 11 33.999c28.667 70.667 94.334 163.667 197.001 279
c74 83.333 156 166.666 246 249.999c22 22 56.667 52 104 90c16 10.667 30.667 16 44 16c6.66699 0 10 -1.33301 10 -4z" />
    <glyph glyph-name="zero" unicode="0" horiz-adv-x="494" 
d="M490 272c0 -66 -19.8311 -125.83 -59.498 -179.497s-90.834 -92.834 -153.501 -117.501c-34 -12.667 -67 -19 -99 -19c-46 0 -81.833 12.667 -107.5 38s-38.5 60.666 -38.5 105.999c0 22.667 3.33301 45.667 10 69c-9.33301 20.667 -14 43 -14 67c0 70 32 124 96 162
c53.333 30.667 117.666 46 192.999 46c44.667 0 83.5 -13 116.5 -39s51.5 -60.667 55.5 -104c0.666992 -8.66699 1 -18.334 1 -29.001zM480.002 282.003c0 9.33301 -0.333008 18.3311 -1 26.998c-4.66699 35.333 -24.334 64.333 -59.001 87c-30.667 20.667 -65 31 -103 31
c-52.667 0 -100.667 -11.667 -144 -35c-47.333 -24.667 -82 -59.334 -104 -104.001c-10.667 -21.333 -16 -44.333 -16 -69c0 -5.33301 0.666992 -9.66602 2 -12.999c15.333 28.667 39.833 60 73.5 94s64.334 57.5 92.001 70.5s53.167 19.5 76.5 19.5
c10.667 0 16 -1.66699 16 -5s-5.66699 -5 -17 -5c-37.333 0 -82.333 -27.667 -135 -83c-45.333 -47.333 -77.333 -92.333 -96 -135c8 -14 19 -25 33 -33c5.33301 -2.66699 8 -5 8 -7c0 -1.33301 -1.66699 -2 -5 -2c-14 0 -28.333 7.66699 -43 23
c-5.33301 -17.333 -8 -34.333 -8 -51c0 -33.333 10 -58.666 30 -75.999s47 -26 81 -26c38 0 77.667 10 119 30c55.333 26.667 101.333 61.334 138 104.001c41.333 50 62 102.667 62 158z" />
    <glyph glyph-name="one" unicode="1" horiz-adv-x="291" 
d="M323 441c0 -5.33301 -1.33203 -10.333 -3.99902 -15c-10 -14.667 -24 -37.334 -42 -68.001c-60 -109.333 -100.667 -223.666 -122 -342.999c27.333 0.666992 43 1 47 1c41.333 0 62 -3.33301 62 -10c0 -4 -2.33301 -6 -7 -6c-2.66699 -0 -6.66699 0.333008 -12 1h-12
c-20.667 0 -46.667 -2.33301 -78 -7v-9c0 -6.66699 -1.66699 -10 -5 -10c-14.667 0 -24 4.66699 -28 14c-49.333 -8 -84 -12 -104 -12c-6 0 -9 7.33301 -9 22c0 8.66699 1.66699 13 5 13c15.333 0 50.666 1 105.999 3c3.33301 34.667 16.666 79.334 39.999 134.001l59 130
c8.66699 19.333 20.334 49 35.001 89c-15.333 -8 -37.333 -22 -66 -42c-37.333 -32 -58 -48 -62 -48s-6 1.66699 -6 5s14.667 18.333 44 45c21.333 17.333 51.333 45.666 90 84.999l23 30c11.333 13.333 21.333 20 30 20c10.667 0 16 -7.33301 16 -22z" />
    <glyph glyph-name="two" unicode="2" horiz-adv-x="533" 
d="M522 24c0 -26.667 -13.9951 -46.6641 -41.9951 -59.9971c-21.333 -10 -47.333 -15 -78 -15c-40.667 0 -85 9.33301 -133 28l-125 53c-40.667 -16.667 -72 -25 -94 -25c-24.667 0 -37 9.33301 -37 28c0 24 16.667 36 50 36c20 0 46 -5 78 -15
c41.333 20.667 89.666 49 144.999 85l63 45c74 59.333 111 113.666 111 162.999c0 17.333 -6.66699 30.5 -20 39.5s-29 13.5 -47 13.5c-32 0 -64.667 -7.66699 -98 -23c-37.333 -17.333 -62.666 -39 -75.999 -65c1.33301 -44.667 -4.33398 -67 -17.001 -67
c-4.66699 0 -7 4.66699 -7 14c0 7.33301 0.666992 18.333 2 33s2 25.667 2 33c0 22 -5 40 -15 54c-1.33301 2 -2 3.66699 -2 5c0 2.66699 1.66699 4 5 4c6 0 12.333 -7 19 -21c5.33301 -10.667 9 -20.334 11 -29.001c17.333 21.333 44.666 39.333 81.999 54
c34.667 13.333 67 20 97 20c28.667 0 52.667 -6 72 -18c22.667 -14 34 -34.667 34 -62c0 -52 -43.667 -110 -131 -174c-58.667 -42.667 -126.334 -81.667 -203.001 -117l132 -34c57.333 -14.667 100.666 -22 129.999 -22c18.667 0 35.667 2.66699 51 8
c20.667 8 31 19.667 31 35c0 17.333 -10.333 34 -31 50c-16.667 12.667 -35.334 22 -56.001 28c-2.66699 0.666992 -4 1.66699 -4 3c0 2 2 3 6 3l3 -1c24 -4 44.667 -13.333 62 -28c20 -16.667 30 -36.334 30 -59.001zM111.005 39.0029c-24.667 6 -40.667 9 -48 9
c-22.667 0 -34 -6.33301 -34 -19c0 -9.33301 7 -14 21 -14c9.33301 0 20 3 32 9c9.33301 5.33301 19 10.333 29 15z" />
    <glyph glyph-name="three" unicode="3" horiz-adv-x="537" 
d="M530 349c0 -51.333 -50.333 -86.335 -151 -105.002c92.667 -17.333 139 -54.333 139 -111c0 -60 -40.667 -107 -122 -141c-63.333 -26 -130 -39 -200 -39c-41.333 0 -78 6 -110 18c-45.333 16.667 -68 42.334 -68 77.001c0 28.667 15.667 51 47 67
c25.333 13.333 53.666 20 84.999 20c54.667 0 107.334 -14.333 158.001 -43c12.667 -7.33301 20.334 -12.333 23.001 -15v-2c0 -1.33301 -2.33301 -2.33301 -7 -3l-15 7c-60 27.333 -111.333 41 -154 41c-26 0 -49 -5.33301 -69 -16c-24.667 -13.333 -37 -32 -37 -56
c0 -29.333 18.667 -51.333 56 -66c27.333 -11.333 58.333 -17 93 -17c58 0 115.333 13.333 172 40c68.667 32.667 103 75 103 127c0 36 -24.667 61.667 -74 77c-32.667 10.667 -72 16 -118 16c-7.33301 0 -11 4 -11 12s5.83301 13.333 17.5 16s29.834 6 54.501 10
c32.667 6 65.667 16.667 99 32c44.667 20.667 67 42.334 67 65.001c0 28.667 -32 43 -96 43c-24.667 0 -48.334 -3 -71.001 -9c-30.667 -8 -50 -20 -58 -36c-1.33301 -38.667 -6.33301 -58 -15 -58c-6 0 -9 4.66699 -9 14c0 7.33301 0.666992 18.5 2 33.5s2 26.167 2 33.5
c0 22 -5 39.667 -15 53c-1.33301 2 -2 3.66699 -2 5c0 2.66699 1.66699 4 5 4c6.66699 0 13.667 -8 21 -24c5.33301 -13.333 8.66602 -25 9.99902 -35c30 23.333 73 35 129 35c30 0 55.333 -4.66699 76 -14c28.667 -12 43 -30.667 43 -56z" />
    <glyph glyph-name="four" unicode="4" horiz-adv-x="500" 
d="M544 176c0 -28 -16.002 -49.6689 -48.002 -65.002c-25.333 -12.667 -54 -19 -86 -19c-27.333 0 -62.666 4.33301 -105.999 13c-22 -46 -35.333 -83 -40 -111c20.667 0.666992 44.667 1 72 1c41.333 0 62 -3.33301 62 -10c0 -4 -2 -6 -6 -6h-12
c-5.33301 0.666992 -9.66602 1 -12.999 1c-24 0 -59.833 -4 -107.5 -12s-83.5 -12 -107.5 -12c-5.33301 0 -8 7.33301 -8 22c0 8.66699 1.66699 13 5 13c18 0 48.667 0.666992 92 2c4 30 15.333 69.333 34 118c-45.333 9.33301 -103.333 24.333 -174 45
c-32 -8.66699 -55 -13 -69 -13c-22.667 0 -34 7.33301 -34 22c0 14 15.667 21 47 21c18 0 41.667 -3.33301 71 -10c46.667 17.333 95.667 48.666 147 93.999c30 26 71.333 68 124 126l51 55c8.66699 10 19.667 15 33 15c10.667 0 16 -2.66699 16 -8
c0 -1.33301 -10.333 -25.166 -31 -71.499s-31.667 -70.166 -33 -71.499c-3.33301 -2 -8.33301 -6 -15 -12c-6.66699 -8 -35.667 -62.667 -87 -164c42.667 -4.66699 77.667 -7 105 -7c23.333 0 45 3.33301 65 10c28 8.66699 42 22 42 40c0 14 -8 27.667 -24 41
c-13.333 10.667 -28 18.667 -44 24c-6.66699 2 -16 4 -28 6c-2.66699 0.666992 -4 1.33398 -4 2.00098c0 2.66699 3 4 9 4c24 0 47 -8 69 -24s33 -35.667 33 -59zM375.998 332.998c-88 -79.333 -168 -133.667 -240 -163c41.333 -9.33301 92 -18 152 -26
c22.667 54.667 52 117.667 88 189zM82.998 164.997c-17.333 7.33301 -32.667 11 -46 11c-18 0 -27 -3.66699 -27 -11c0 -5.33301 11.333 -8 34 -8c9.33301 0 22.333 2.66699 39 8z" />
    <glyph glyph-name="five" unicode="5" horiz-adv-x="593" 
d="M645 431c0 -28.667 -16.333 -50.335 -49 -65.002c-24.667 -10.667 -53.334 -16 -86.001 -16c-41.333 0 -102.333 13.333 -183 40c-45.333 14.667 -74.666 22 -87.999 22c-15.333 0 -23 -3.66699 -23 -11c0 -4 2.83301 -8.33301 8.5 -13s8.5 -8 8.5 -10
c0 -3.33301 -1.33301 -5 -4 -5c-6 0 -12.333 3.33301 -19 10s-10 13 -10 19c0 18.667 14.667 28 44 28c22 0 54.333 -4 97 -12l99 -18c46 -7.33301 80.333 -11 103 -11c19.333 0 38 3.33301 56 10c24 9.33301 36 22 36 38c0 13.333 -8 26.666 -24 39.999
c-12.667 10.667 -26.667 19 -42 25c-6.66699 2.66699 -16 5.33398 -28 8.00098c-2.66699 0.666992 -4 1.33398 -4 2.00098c0 2 2.33301 3 7 3c24 0 46.333 -7.66699 67 -23c22.667 -17.333 34 -37.666 34 -60.999zM567 174.999c0 -26.667 -11.9971 -54.667 -35.9971 -84
c-44.667 -54.667 -109.334 -96.334 -194.001 -125.001c-72 -24.667 -149 -37 -231 -37c-26.667 0 -51 4 -73 12c-30.667 10.667 -46 26.667 -46 48c0 33.333 39 60.666 117 81.999c59.333 16.667 112.666 25 159.999 25c11.333 0 17 -2 17 -6c0 -2.66699 -5.66699 -4 -17 -4
c-31.333 0 -78 -10.667 -140 -32c-71.333 -24 -107 -47.667 -107 -71s29.667 -35 89 -35c70 0 137.667 12.333 203 37c70 26.667 127 64.334 171 113.001c28.667 32 43 61.333 43 88c0 36.667 -28.333 55 -85 55c-50 0 -109.667 -12.333 -179 -37
c-14 -4.66699 -22.667 -7 -26 -7c-2 0 -4.5 2.33301 -7.5 7s-4.5 8.33398 -4.5 11.001v2c28 60.667 56.333 109 85 145c8 10 17 15 27 15c12 0 18 -3.66699 18 -11c0 -10 -26.333 -59 -79 -147l82 26c32.667 10 60.667 15 84 15c33.333 0 61.666 -5.66699 84.999 -17
c29.333 -15.333 44 -38 44 -68z" />
    <glyph glyph-name="six" unicode="6" horiz-adv-x="447" 
d="M446 418c0 -4 -4.66699 -8.33203 -14 -12.999c-20 -9.33301 -49.667 -24.333 -89 -45c-74.667 -41.333 -137 -86 -187 -134c-70 -67.333 -105 -131.666 -105 -192.999c0 -18.667 8.5 -34.834 25.5 -48.501s35.167 -20.5 54.5 -20.5c24.667 0 52 5 82 15
c36.667 12 70.667 30 102 54c39.333 30 59 60.333 59 91c0 28 -18.333 42 -55 42c-70.667 0 -140.334 -40.333 -209.001 -121c-5.33301 -6 -9.66602 -9 -12.999 -9s-5 2.66699 -5 8c0 6 2.33301 12 7 18c27.333 33.333 63 62.333 107 87c46.667 26.667 90 40 130 40
c52 0 78 -21.667 78 -65c0 -37.333 -23 -72 -69 -104c-34.667 -24.667 -75 -43.334 -121 -56.001c-34.667 -10 -67.334 -15 -98.001 -15c-31.333 0 -57.666 6 -78.999 18c-26 14.667 -39 36.667 -39 66c0 71.333 53.667 149.333 161 234c83.333 66.667 170 118 260 154
c3.33301 1.33301 6.33301 2 9 2c5.33301 0 8 -1.66699 8 -5z" />
    <glyph glyph-name="seven" unicode="7" horiz-adv-x="333" 
d="M86 -13c0 -10.667 1.33496 -15.998 4.00195 -15.998c0.666992 0 2 0.333008 4 1s3.33301 1 4 1c8 0 12 -3 12 -9c0 -2.66699 -4.16699 -5.33398 -12.5 -8.00098s-14.166 -4 -17.499 -4c-21.333 0 -32 14 -32 42c0 99.333 116.667 232.666 350 399.999
c-14 -1.33301 -30.667 -2 -50 -2c-22.667 0 -56.167 1 -100.5 3s-77.5 3 -99.5 3c-30 0 -52 -2 -66 -6c-40.667 -11.333 -61 -27.666 -61 -48.999c0 -13.333 8.33301 -26.333 25 -39c13.333 -9.33301 27.666 -16.333 42.999 -21c8.66699 -2.66699 19.667 -4.66699 33 -6
c3.33301 0 5 -0.666992 5 -2c0 -2.66699 -3 -4 -9 -4c-26.667 0 -50.334 6.33301 -71.001 19c-24.667 15.333 -37 35.666 -37 60.999c0 29.333 18 52.333 54 69c28 13.333 59 20 93 20c24.667 0 61.167 -5.5 109.5 -16.5s85.166 -16.5 110.499 -16.5
c18.667 0 35.667 4.16699 51 12.5s22.333 12.5 21 12.5c7.33301 0 11 -3.66699 11 -11c0 -2 -0.666992 -3.33301 -2 -4c-84.667 -57.333 -161 -120.333 -229 -189c-95.333 -96 -143 -176.333 -143 -241z" />
    <glyph glyph-name="eight" unicode="8" horiz-adv-x="487" 
d="M620 460c2.66699 0 3.99902 -0.666992 3.99902 -2c0 -2 -13 -9 -39 -21c-31.333 -14 -47.666 -21.333 -48.999 -22c20 -12 30 -28 30 -48c0 -14.667 -3.66699 -22 -11 -22c-5.33301 0 -8 3 -8 9c0 1.33301 0.333008 3.33301 1 6v7c0 17.333 -10.667 29.333 -32 36
l-113 -64c-44 -25.333 -80.667 -48.666 -110 -69.999c36.667 -33.333 59.334 -55.333 68.001 -66c24 -28.667 36 -56.334 36 -83.001c0 -14 -2 -26.667 -6 -38c-14.667 -41.333 -55.667 -75 -123 -101c-56.667 -22 -111.334 -33 -164.001 -33c-66 0 -99 17.333 -99 52
c0 56 87.333 143.667 262 263c-36 28.667 -54 52 -54 70c0 34.667 29.333 62 88 82c44 15.333 87 23 129 23c31.333 0 58.333 -3.66699 81 -11c12 8 29.5 15.5 52.5 22.5s41.833 10.5 56.5 10.5zM481.999 410c-8 0.666992 -16 0.999023 -24 0.999023
c-35.333 0 -75 -6.66699 -119 -20c-56 -17.333 -84 -39 -84 -65c0 -13.333 10.333 -29.666 31 -48.999c68.667 52 134 96.333 196 133zM375.999 123.999c0 23.333 -12.001 47.998 -36.001 73.998c-10.667 11.333 -32.667 30.333 -66 57
c-69.333 -52.667 -115.333 -89 -138 -109c-65.333 -57.333 -98 -99.666 -98 -126.999c0 -20.667 22.333 -31 67 -31c42.667 0 92.334 9 149.001 27c68 22 107 47.667 117 77c3.33301 10.667 5 21.334 5 32.001z" />
    <glyph glyph-name="nine" unicode="9" horiz-adv-x="441" 
d="M484 393c0 -6.66699 -4.50195 -16 -13.502 -28s-16.5 -18.667 -22.5 -20l-2 2c0.666992 1.33301 3.33398 5.66602 8.00098 12.999c2.66699 4.66699 4 10 4 16c0 16.667 -17 29 -51 37c-23.333 6 -48.333 9 -75 9c-41.333 0 -79 -7 -113 -21
c-39.333 -16.667 -74 -43.667 -104 -81c-32 -40 -48 -80.333 -48 -121c0 -40 17.333 -60 52 -60c29.333 0 69.333 20.667 120 62c37.333 30.667 71 63.667 101 99l28 35c14 16.667 25.333 25 34 25c9.33301 0 14 -4.33301 14 -13c0 -6 -22 -38.667 -66 -98
c-57.333 -76.667 -98.333 -135 -123 -175c-44 -69.333 -66 -119.666 -66 -150.999c0 -12.667 3 -23 9 -31c0.666992 -0.666992 2.83398 -2.33398 6.50098 -5.00098s5.5 -4.66699 5.5 -6s-1 -2 -3 -2c-12.667 0 -22.667 6 -30 18c-6 10 -9 21.667 -9 35
c0 59.333 51.333 158.333 154 297c-72.667 -67.333 -130.667 -101 -174 -101c-26 0 -48 7 -66 21c-20 14.667 -30 34.334 -30 59.001c0 36.667 23 77.334 69 122.001c40.667 39.333 81 66.666 121 81.999c47.333 17.333 97.333 26 150 26c25.333 0 49.333 -2.66699 72 -8
c32 -8 48 -20.333 48 -37z" />
    <glyph glyph-name="colon" unicode=":" horiz-adv-x="125" 
d="M125 116c-4 0 -7.49805 2.83203 -10.498 8.49902s-4.5 10.834 -4.5 15.501c0 10.667 5.33301 18 16 22c17.333 17.333 28.666 26 33.999 26c2.66699 0 4 -1.66699 4 -5c0 -10 -4.33301 -23.667 -13 -41s-17.334 -26 -26.001 -26zM105.002 56.999
c0 2 -4.66797 -2.66797 -14.001 -14.001l-16 -33c-7.33301 -14.667 -15.333 -22 -24 -22c-4 0 -7.5 2.83301 -10.5 8.5s-4.5 10.834 -4.5 15.501c0 10.667 5.33301 18 16 22c4 4 12.333 9.16699 25 15.5s21.334 9.5 26.001 9.5l2 -1v1v-2z" />
    <glyph glyph-name="semicolon" unicode=";" horiz-adv-x="125" 
d="M125 116c-4 0 -7.49805 2.83203 -10.498 8.49902s-4.5 10.834 -4.5 15.501c0 10.667 5.33301 18 16 22c17.333 17.333 28.666 26 33.999 26c2.66699 0 4 -1.66699 4 -5c0 -10 -4.33301 -23.667 -13 -41s-17.334 -26 -26.001 -26zM5.00195 -120.001v1l29 44
c18.667 28.667 28 52 28 70c0 2 -0.5 5.16699 -1.5 9.5s-1.5 7.5 -1.5 9.5c0 4.66699 2 10.5 6 17.5s8.33301 10.5 13 10.5c6 0 12.333 -5.33301 19 -16v1c0.666992 -2.66699 1 -5.66699 1 -9c0 -10 -3.33301 -21.833 -10 -35.5s-20 -33.167 -40 -58.5
c-22 -29.333 -36.333 -44 -43 -44z" />
    <glyph glyph-name="less" unicode="&#x3c;" horiz-adv-x="262" 
d="M220 359c0 -7.33301 -31 -49.332 -93 -125.999c47.333 -66.667 71 -103.334 71 -110.001c0 -8 -3.33301 -11.667 -10 -11l-6 3c-10 16 -24.333 32.333 -43 49l-49 42c-1.33301 1.33301 -2 3 -2 5c0 4.66699 16.667 28.334 50 71.001
c30.667 39.333 50.667 63.666 60 72.999c6 6 11.667 9 17 9c3.33301 0 5 -1.66699 5 -5z" />
    <glyph glyph-name="equal" unicode="=" horiz-adv-x="286" 
d="M261 151c0 -2.66699 -1.99902 -4 -5.99902 -4c-20 0 -50.167 -1.66699 -90.5 -5s-70.5 -5 -90.5 -5c-2.66699 0 -5.83398 2.5 -9.50098 7.5s-5.5 8.83301 -5.5 11.5l1 2c11.333 3.33301 41.333 5 90 5c56.667 0 92.667 -3 108 -9c2 -0.666992 3 -1.66699 3 -3z
M253.001 67c0 -3.33301 -1.99902 -4.99902 -5.99902 -4.99902c-20 0 -50 -1.5 -90 -4.5s-70 -4.5 -90 -4.5c-2.66699 0 -5.83398 2.33301 -9.50098 7s-5.83398 8.66699 -6.50098 12l2 1c11.333 4 41.333 6 90 6c56.667 0 92.334 -3.33301 107.001 -10
c2 -0.666992 3 -1.33398 3 -2.00098z" />
    <glyph glyph-name="greater" unicode="&#x3e;" horiz-adv-x="262" 
d="M211 259c0 -4.66699 -16.334 -28.335 -49.001 -71.002c-31.333 -39.333 -51.666 -63.666 -60.999 -72.999c-6 -6 -11.333 -9 -16 -9c-4 0 -6 1.66699 -6 5c0 7.33301 31 49.333 93 126c-47.333 66.667 -71 103.334 -71 110.001c0 8 3.33301 11.667 10 11l6 -3
c10 -16 24.333 -32.333 43 -49l49 -42c1.33301 -1.33301 2 -3 2 -5z" />
    <glyph glyph-name="question" unicode="?" horiz-adv-x="356" 
d="M394 415c0 -36 -27.332 -76.334 -81.999 -121.001c-8.66699 -7.33301 -51 -37.333 -127 -90c-19.333 -13.333 -33.666 -35.333 -42.999 -66c-4.66699 -15.333 -8.66699 -23 -12 -23c-10.667 0 -16 9 -16 27c0 12.667 5 26.334 15 41.001c4.66699 6.66699 27 24 67 52
c49.333 34 75.666 52.333 78.999 55c47.333 38 71 79 71 123s-29 66 -87 66c-36 0 -69 -8.33301 -99 -25c-36.667 -19.333 -55 -45.666 -55 -78.999c0 -19.333 4.66699 -33.333 14 -42c0.666992 -0.666992 3.5 -2 8.5 -4s7.5 -3.33301 7.5 -4
c0 -7.33301 -5.66699 -11 -17 -11c-12.667 0 -23.834 6.16699 -33.501 18.5s-14.5 25.166 -14.5 38.499c0 11.333 3.66699 23 11 35c17.333 28 47.333 51.333 90 70c39.333 16.667 77 25 113 25c30.667 0 55.667 -6.66699 75 -20c23.333 -15.333 35 -37.333 35 -66z
M83.001 -7.00098c-3.33301 0 -7.33203 4.5 -11.999 13.5s-7 15.167 -7 18.5c0 2 0.666992 3 2 3c19.333 4.66699 42.333 11.667 69 21c5.33301 2 9.66602 3 12.999 3c4.66699 0 7 -1 7 -3c0 -2.66699 -3 -6 -9 -10l-31 -27c-14 -12.667 -24.667 -19 -32 -19z" />
    <glyph glyph-name="at" unicode="@" horiz-adv-x="662" 
d="M618 365c11.333 -23.333 17 -47.668 17 -73.001c0 -58.667 -28.333 -114.667 -85 -168c-46.667 -44 -101.667 -77.333 -165 -100c-48 -17.333 -94.333 -26 -139 -26c-64 0 -116.667 19 -158 57s-62 88.667 -62 152c0 64.667 23 125.334 69 182.001
c40 49.333 91.667 90.333 155 123h-2c-8.66699 0.666992 -21.167 0.5 -37.5 -0.5s-28.5 -1.5 -36.5 -1.5c-13.333 0 -20 2 -20 6c0 13.333 54.667 20 164 20l7 2c54 14 104.667 21 152 21c108 0 162 -37.333 162 -112c0 -24.667 -7 -52 -21 -82zM607 449.998
c0 60 -40.332 90 -120.999 90c-32.667 0 -70.667 -5 -114 -15c105.333 -26 180.666 -68.333 225.999 -127c6 18.667 9 36 9 52zM596.001 324.998c-17.333 -36 -48.667 -78.3359 -94 -127.003c-52 -55.333 -93.333 -83 -124 -83s-46 22 -46 66c0 26.667 4.33301 59.667 13 99
c-18 -30.667 -45 -63.667 -81 -99c-43.333 -42.667 -77.666 -64 -102.999 -64c-12.667 0 -19 8.66699 -19 26c0 40.667 19 92 57 154c41.333 67.333 80.666 99.333 117.999 96c21.333 11.333 38 17 50 17c4.66699 0 18.334 -1.66699 41.001 -5c9.33301 3.33301 17 5 23 5
c7.33301 0 11 -3.33301 11 -10c0 -6 -3.66699 -17.167 -11 -33.5s-13 -25.166 -17 -26.499c-9.33301 -18 -17.5 -43.167 -24.5 -75.5s-10.5 -59.166 -10.5 -80.499c0 -22.667 5 -34 15 -34c5.33301 0 12.333 2.66699 21 8c24.667 15.333 56 46 94 92
c36 44 60.667 80.667 74 110c-41.333 79.333 -132.333 128.333 -273 147c-66.667 -21.333 -124.667 -61.666 -174 -120.999c-52 -62 -78 -126.667 -78 -194c0 -51.333 15.167 -92.5 45.5 -123.5s71.166 -46.5 122.499 -46.5c76.667 0 155.667 25.333 237 76
c91.333 57.333 137 122 137 194c0 11.333 -1.33301 22.333 -4 33zM379 380.995c-6 2.66699 -12.3301 4.00098 -18.9971 4.00098c-24.667 0 -47.334 -11 -68.001 -33c-18 -19.333 -37 -48 -57 -86c-18.667 -34.667 -32.334 -66.334 -41.001 -95.001c-2 -6 -3 -10.333 -3 -13
c0 -4.66699 2 -7 6 -7s11.333 3.66699 22 11c35.333 25.333 66.666 58.333 93.999 99c14 22 36 62 66 120z" />
    <glyph glyph-name="A" unicode="A" horiz-adv-x="575" 
d="M547 256c39.333 0 64.6689 -0.334961 76.002 -1.00195c6.66699 -0.666992 10 -2.33398 10 -5.00098s-4.66699 -5 -14 -7l-44 -8c-18.667 -4.66699 -32.334 -10.667 -41.001 -18c-26 -68 -39 -138 -39 -210c0 -4.66699 0.333008 -9.33398 1 -14.001
c18 -1.33301 34.333 -2 49 -2c3.33301 0 8.33301 0.333008 15 1h15c5.33301 0 8 -1.66699 8 -5c0 -5.33301 -3.66699 -13.166 -11 -23.499s-13.666 -17.166 -18.999 -20.499c-14.667 -10 -30.334 -15 -47.001 -15c-34 0 -53.667 16.667 -59 50
c-58 5.33301 -117.667 15.666 -179 30.999c-76 19.333 -131.667 41.333 -167 66c-94 -102 -141 -180.333 -141 -235c0 -3.33301 0.5 -8.5 1.5 -15.5s1.5 -12.167 1.5 -15.5c0 -8.66699 -4.33301 -13 -13 -13c-8 0 -14.5 4.16699 -19.5 12.5s-7.5 16.833 -7.5 25.5
c0 64 51.667 148 155 252c-38 32.667 -57 62.667 -57 90c0 38 33.333 63.333 100 76c40.667 8 87.667 10.667 141 8c103.333 93.333 214.666 188.333 333.999 285c9.33301 6.66699 22.666 17 39.999 31c2.66699 2.66699 6.66699 6.33398 12 11.001c27.333 22 51 33 71 33
c7.33301 0 11 -2.66699 11 -8c0 -8 -7.5 -27.167 -22.5 -57.5s-26.167 -48.833 -33.5 -55.5c-2 -1.33301 -5.33301 -3.33301 -10 -6c-1.33301 -1.33301 -4.66602 -7.66602 -9.99902 -18.999l-35 -64c-29.333 -57.333 -53.333 -108.666 -72 -153.999zM628.003 530.998
c-107.333 -73.333 -216.667 -164.333 -328 -273l214 -1c7.33301 21.333 18.333 49 33 83c54.667 124.667 82 188 82 190c0 0.666992 -0.333008 1 -1 1zM498.002 -26.002c4 -18.667 11.667 -28 23 -28c6 0 12 3 18 9s9 12 9 18v1h-10c-4.66699 -0.666992 -8 -1 -10 -1
c-9.33301 0 -19.333 0.333008 -30 1zM506.002 235.998l-32.999 -0.000976562c-16.667 0.666992 -27.334 1 -32.001 1c-99.333 0 -164 -11.667 -194 -35s-72.667 -59.333 -128 -108c55.333 -48 164.333 -80.333 327 -97v5c-0.666992 34.667 6 74.334 20 119.001z
M233.003 232.997c-6.66699 0.666992 -13.667 0.999023 -21 0.999023c-30 0 -59.667 -5.33301 -89 -16c-39.333 -14 -59 -33.333 -59 -58c0 -17.333 10.667 -35.666 32 -54.999z" />
    <glyph glyph-name="B" unicode="B" horiz-adv-x="662" 
d="M642 101c0 -12.667 -2.66602 -19.0049 -7.99902 -19.0049c-2 0 -3.33301 3 -4 9c-1.33301 12.667 -6 22 -14 28c-24 -45.333 -72 -88.166 -144 -128.499s-134.333 -60.5 -187 -60.5c-44 0 -66 14.667 -66 44c0 26.667 17 54.334 51 83.001
c24.667 20.667 53 38.334 85 53.001c25.333 11.333 58.833 21.5 100.5 30.5s75.834 13.5 102.501 13.5c2.66699 8 4 15.667 4 23c0 42.667 -31.667 67.334 -95 74.001c-22.667 -10 -47.334 -15 -74.001 -15c-34.667 0 -52 5.33301 -52 16c0 9.33301 24 16 72 20
c38.667 3.33301 75 11.666 109 24.999c42 16 80 38.667 114 68c42.667 36 64 72.333 64 109c0 56.667 -52.333 92.667 -157 108c-202.667 -236 -327 -434 -373 -594c-7.33301 -23.333 -11 -42.666 -11 -57.999c0 -19.333 5.66699 -29 17 -29c4 0 9.83301 0.833008 17.5 2.5
s13.5 2.5 17.5 2.5c4.66699 0 7 -0.666992 7 -2c0 -4 -10.833 -8.66699 -32.5 -14s-36.5 -8 -44.5 -8c-29.333 0 -44 15 -44 45c0 54.667 46.667 156.334 140 305.001c68.667 108.667 137.334 207 206.001 295c-0.666992 6 12.333 26 39 60
c-10.667 0.666992 -21.334 1 -32.001 1c-162 0 -282 -44 -360 -132c-32.667 -37.333 -49 -71 -49 -101c0 -12.667 4.33301 -23.334 13 -32.001s13 -13.334 13 -14.001c0 -1.33301 -1.33301 -2 -4 -2c-16.667 0 -30.334 8.33301 -41.001 25c-8.66699 14 -13 30 -13 48
c0 30.667 11.333 60 34 88c41.333 51.333 111.666 89.333 210.999 114c77.333 19.333 159 28.333 245 27c2 2.66699 4 5.66699 6 9c12.667 10.667 30.334 16 53.001 16c13.333 0 20 -3 20 -9c0 -2 -4.66699 -8.33301 -14 -19c132 -11.333 198 -49.666 198 -114.999
c0 -49.333 -33.333 -99.666 -100 -150.999c-62 -48 -119 -74 -171 -78c35.333 -2 65.333 -10.667 90 -26c32 -19.333 48 -43 48 -71c0 -8.66699 -1.66699 -17.667 -5 -27c12 -8.66699 18 -21 18 -37zM551.001 134.995c-28.667 0 -62.333 -5 -101 -15
c-40.667 -10 -72.667 -21.667 -96 -35c-59.333 -35.333 -89 -69 -89 -101c0 -19.333 13.333 -29 40 -29c40.667 0 88 20.333 142 61c52 39.333 86.667 79 104 119z" />
    <glyph glyph-name="C" unicode="C" horiz-adv-x="682" 
d="M754 549c11.333 -19.333 17.001 -33.668 17.001 -43.001c0 -14.667 -4 -24 -12 -28c-3.33301 8 -8 17.333 -14 28l-28 -61c-14 -26.667 -28.333 -40 -43 -40c-4.66699 0 -13 1.33301 -25 4s-18 5.33398 -18 8.00098c0 8 12.667 27.667 38 59
c31.333 39.333 48 60.333 50 63c-21.333 38 -58.333 57 -111 57c-62 0 -127 -15 -195 -45c-47.333 -20.667 -92.333 -47.667 -135 -81c-54 -42.667 -99.333 -91.667 -136 -147c-44 -66 -66 -128 -66 -186c0 -54.667 21 -96 63 -124c35.333 -23.333 82 -35 140 -35
c135.333 0 277.666 56 426.999 168c5.33301 4 9.33301 6 12 6c2 0 3 -1 3 -3c0 -6.66699 -3.33301 -12.667 -10 -18c-12.667 -11.333 -34 -27 -64 -47c-120.667 -82.667 -246.334 -124 -377.001 -124c-72.667 0 -131.667 11.667 -177 35c-58.667 30.667 -88 78.667 -88 144
c0 62 25.333 127.333 76 196c42 56.667 93.333 106.667 154 150c48.667 34.667 100.667 62.667 156 84c80 32 154.333 48 223 48c22.667 0 45.334 -3.66699 68.001 -11c28 -8.66699 47 -20.667 57 -36c18 22.667 27 39.5 27 50.5s4.33301 16.5 13 16.5c4.66699 0 7 -4 7 -12
c0 -8.66699 -10.667 -34 -32 -76z" />
    <glyph glyph-name="D" unicode="D" horiz-adv-x="905" 
d="M626 606c77.333 -12.667 142.997 -37.002 196.997 -73.002c68.667 -45.333 103 -101.666 103 -168.999c0 -72.667 -40.667 -142.334 -122 -209.001c-57.333 -46.667 -130 -88.667 -218 -126c-101.333 -42.667 -203 -64 -305 -64c-18 0 -35.667 1 -53 3
c-2.66699 -13.333 -4 -24.666 -4 -33.999c0 -19.333 5.66699 -29 17 -29c10.667 0 23.834 7 39.501 21s23.834 21 24.501 21s1.33398 -1 2.00098 -3c0 -6.66699 -3.83301 -14.5 -11.5 -23.5s-15.167 -15.167 -22.5 -18.5c-24.667 -11.333 -47.667 -17 -69 -17
c-28.667 0 -43 15 -43 45c0 13.333 2.66699 29.333 8 48c-92 21.333 -138 56 -138 104c0 26.667 17.333 56 52 88c48 44.667 130.667 82.667 248 114c36 55.333 73.333 109.333 112 162c14 19.333 35.333 47 64 83c-0.666992 6.66699 13.333 28.334 42 65.001
c-19.333 1.33301 -39 2 -59 2c-53.333 0 -106.333 -4.66699 -159 -14c-59.333 -10.667 -111 -28.334 -155 -53.001c-60.667 -34 -91 -75.333 -91 -124c0 -20 6 -39.333 18 -58c8 -13.333 19 -26.666 33 -39.999c12 -12 18 -18.333 18 -19c0 -1.33301 -1.33301 -2 -4 -2
c-4.66699 0 -9.66699 1.66699 -15 5c-65.333 42.667 -98 87.667 -98 135c0 50 37 92 111 126c48.667 22 107 38.667 175 50c57.333 9.33301 114.333 14 171 14c24 0 47.333 -1 70 -3c7.33301 14.667 25.333 22 54 22c15.333 0 23 -3.33301 23 -10c0 -2 -5 -8.33301 -15 -19z
M646.997 329.998c6 0 9.00098 -0.667969 9.00098 -2.00098c0 -2.66699 -3.66699 -4.33398 -11 -5.00098c-93.333 -7.33301 -184.333 -24.333 -273 -51c-72 -111.333 -118.333 -205.666 -139 -282.999h6c94 -0.666992 201.333 26.333 322 81
c214.667 97.333 322 200.333 322 309c0 58.667 -32.333 107.334 -97 146.001c-48.667 30 -107.334 50.667 -176.001 62c-84 -98 -157.333 -194 -220 -288c96 20.667 181.667 31 257 31zM310.998 252.997c-154.667 -54 -231.999 -110.334 -231.999 -169.001
c0 -22 11 -41.333 33 -58c17.333 -13.333 38.333 -23.333 63 -30c21.333 62.667 66.666 148.334 135.999 257.001z" />
    <glyph glyph-name="E" unicode="E" horiz-adv-x="709" 
d="M794 549c11.333 -19.333 16.998 -33.666 16.998 -42.999c0 -16.667 -4 -26 -12 -28c-1.33301 0 -2.33301 1.33301 -3 4c-2 8 -5.66699 16 -11 24c-3.33301 -5.33301 -5 -10 -5 -14c0 -6.66699 -6 -17 -18 -31c-5.33301 -6.66699 -13 -10 -23 -10
c-12 0 -18 3.33301 -18 10c0 12 12.333 38 37 78c-21.333 38 -58.333 57 -111 57c-83.333 0 -167.666 -25 -252.999 -75c-79.333 -46 -145 -104.667 -197 -176c97.333 12 216.333 18 357 18c48 0 79 -1.66699 93 -5c8.66699 -2 13 -4 13 -6c0 -5.33301 -10.333 -9 -31 -11
l-104 -6c-82.667 -4.66699 -153.667 -9.33398 -213 -14.001c-32 -2.66699 -79.667 -8.66699 -143 -18c-36 -59.333 -54 -114.666 -54 -165.999c0 -10.667 1 -20.667 3 -30c77.333 -22 142 -33 194 -33h10c4 0.666992 7 1 9 1c4.66699 0 7 -0.666992 7 -2
c0 -4.66699 -9.66699 -7 -29 -7c-68.667 0 -130.667 6.33301 -186 19c22.667 -71.333 88 -107 196 -107c136 0 278 56 426 168c7.33301 6 12 9 14 9c0.666992 -0.666992 1 -1.66699 1 -3c0 -2 -6.66699 -8.83301 -20 -20.5s-20 -19.834 -20 -24.501v-3
c0.666992 -2 1 -3.33301 1 -4l-2 -4c-27.333 -34 -94.666 -66 -201.999 -96c-94.667 -26 -171 -39 -229 -39c-58.667 0 -109.334 11 -152.001 33c-52 26.667 -81.667 66 -89 118c-23.333 10.667 -43 24.667 -59 42c-20.667 20.667 -31 41.334 -31 62.001
c0 51.333 53.333 89.666 160 114.999c58.667 81.333 137.667 149 237 203c102 55.333 202 83 300 83c22.667 0 45.334 -3.66699 68.001 -11c28 -8.66699 47 -20.667 57 -36c17.333 22 26 38.667 26 50s4.66699 17 14 17c4 0 6 -4 6 -12c0 -8.66699 -10.333 -34 -31 -76z
M85.998 281c-65.333 -23.333 -98 -49.999 -98 -79.999c0 -26.667 19 -49.334 57 -68.001v6c-0.666992 42.667 13 90 41 142z" />
    <glyph glyph-name="F" unicode="F" horiz-adv-x="608" 
d="M854 412c-2 0 -3.00195 1.33301 -3.00195 4c0 8.66699 6.16699 24.5 18.5 47.5s18.5 38.5 18.5 46.5c0 4 -2 6.66699 -6 8c-18.667 6 -39.334 9 -62.001 9c-61.333 0 -116.333 -32 -165 -96c-16 -20.667 -49.667 -79.334 -101 -176.001c16 0 39.667 -2 71 -6
c8.66699 -2 13 -4 13 -6c0 -3.33301 -10 -5.66602 -30 -6.99902l-66 -3c-42 -74.667 -79.333 -131 -112 -169c-47.333 -56.667 -100.666 -97 -159.999 -121c-13.333 -5.33301 -29 -8 -47 -8c-30.667 0 -57 6 -79 18c-26 14.667 -40.667 36 -44 64c-22.667 10 -43 24 -61 42
c-20.667 21.333 -31 42.666 -31 63.999c0 86 162.667 130.333 488 133c98.667 176.667 183.334 268.334 254.001 275.001c-88 22.667 -195 34 -321 34c-198 0 -297 -38.667 -297 -116c0 -32 14.667 -62.667 44 -92c24 -24 53.333 -43.667 88 -59
c10 -4.66699 15 -8.66699 15 -12c0 -2 -1.66699 -3 -5 -3s-9 1.33301 -17 4c-100 33.333 -150 82.666 -150 147.999c0 10.667 1.66699 21.334 5 32.001c28 95.333 120.667 143 278 143c58 0 143.833 -10.667 257.5 -32s199.5 -32 257.5 -32c13.333 0 24.833 4.33301 34.5 13
s15.5 13 17.5 13c4.66699 0 9.16699 -2.16699 13.5 -6.5s6.5 -8.83301 6.5 -13.5c0 -4 -3.66699 -7.66699 -11 -11c-18 -9.33301 -36 -26.333 -54 -51l-42 -63c-7.33301 -10 -12.666 -15 -15.999 -15zM480.998 229c-116 -7.33301 -201.666 -15.666 -256.999 -24.999
c-128 -21.333 -192 -53.333 -192 -96c0 -26 22.667 -49.333 68 -70c0 10 2.66699 24.667 8 44c6 23.333 12.333 35 19 35c2 0 3 -2.66699 3 -8c0 -6.66699 -1 -16.167 -3 -28.5s-3 -21.833 -3 -28.5c0 -8.66699 0.666992 -17 2 -25c54 -20 98.667 -30 134 -30h7
c2.66699 0.666992 5 1 7 1c3.33301 0 5 -0.666992 5 -2c0 -4.66699 -7.33301 -7 -22 -7c-46 0 -88 5.66699 -126 17c11.333 -34.667 36.666 -52 75.999 -52c52 0 106.333 34.333 163 103c30 37.333 67 94.666 111 171.999z" />
    <glyph glyph-name="G" unicode="G" horiz-adv-x="787" 
d="M361 -281c-59.333 0 -89.002 26.3301 -89.002 78.9971c0 10.667 2.33301 25.334 7 44.001c6.66699 23.333 13.667 35 21 35c2.66699 0 4 -2 4 -6c0 -3.33301 -0.666992 -8.33301 -2 -15s-2 -12 -2 -16c0 -25.333 5.33301 -48.333 16 -69c12.667 -26 30.667 -39 54 -39
c52.667 0 113 49.333 181 148c42 62 82.667 136 122 222c-129.333 -94.667 -263.666 -142 -402.999 -142c-72.667 0 -131.667 11.667 -177 35c-58.667 30.667 -88 78.667 -88 144c0 62 25.333 127.333 76 196c42 56.667 93.333 106.667 154 150
c48.667 34.667 100.667 62.667 156 84c80 32 154.333 48 223 48c22.667 0 45.334 -3.66699 68.001 -11c28 -8.66699 47 -20.667 57 -36c18 22.667 27 39.5 27 50.5s4.33301 16.5 13 16.5c4.66699 0 7 -4 7 -12c0 -8.66699 -10.667 -34 -32 -76
c11.333 -19.333 17 -33.666 17 -42.999c0 -14.667 -4 -24 -12 -28c-3.33301 8 -8 17.333 -14 28c-10 -24 -27 -55.667 -51 -95c-4 -4 -10.667 -6 -20 -6c-4.66699 0 -13 1.33301 -25 4s-18 5.33398 -18 8.00098c0 8 12.667 27.667 38 59c31.333 39.333 48 60.333 50 63
c-21.333 38 -58.333 57 -111 57c-62 0 -127 -15 -195 -45c-47.333 -20.667 -92.333 -47.667 -135 -81c-54 -42.667 -99.333 -91.667 -136 -147c-44 -66 -66 -128 -66 -186c0 -54.667 21 -96 63 -124c35.333 -23.333 82 -35 140 -35c65.333 0 137 15.667 215 47
c68.667 27.333 133 63 193 107c9.33301 24.667 24 61.334 44 110.001l3 11c-96 -2 -160.333 -4.66699 -193 -8c-88 -8 -147.333 -24.333 -178 -49c-8 -6.66699 -15 -16.334 -21 -29.001c-4 -7.33301 -8 -11 -12 -11c-2 0 -3 1.66699 -3 5c0 2 0.333008 4.33301 1 7
c16.667 46 43.334 77 80.001 93c26 10.667 68 16.667 126 18c19.333 0.666992 39.333 1 60 1c58 0 108.333 -2.66699 151 -8c10.667 10.667 27.667 16 51 16c13.333 0 20 -3.33301 20 -10c0 -2.66699 -2.33301 -7.33398 -7 -14.001s-15.334 -25.334 -32.001 -56.001l-40 -73
l-84 -157c-34.667 -61.333 -68.667 -110.666 -102 -147.999c-43.333 -47.333 -91 -81.666 -143 -102.999c-14 -5.33301 -29.667 -8 -47 -8z" />
    <glyph glyph-name="H" unicode="H" horiz-adv-x="716" 
d="M737 261c32.667 -2.66699 48.999 -5.66406 48.999 -8.99707c0 -6 -7.33301 -9 -22 -9c6 0 -6.33301 0.666992 -37 2c-88.667 -142.667 -133 -247.667 -133 -315c0 -19.333 5.66699 -29 17 -29c4 0 9.66699 0.833008 17 2.5s13 2.5 17 2.5c5.33301 0 8 -0.666992 8 -2
c0 -4 -10.833 -8.66699 -32.5 -14s-36.5 -8 -44.5 -8c-29.333 0 -44 15 -44 45c0 57.333 49.667 163.666 149 318.999c-16.667 0.666992 -34 1 -52 1c-62.667 0 -128 -2.33301 -196 -7c-70 -96 -138.667 -185 -206 -267h7c8.66699 0 13 -1.66699 13 -5
c0 -6.66699 -11 -10 -33 -10c-12.667 -16 -22.334 -24 -29.001 -24c-4 0 -6 2.33301 -6 7s3 11 9 19c-40.667 6 -78.667 22.667 -114 50c-40 32 -60 67 -60 105c0 97.333 133.333 148.333 400 153c100.667 143.333 151 234.666 151 273.999c0 32 -28 48 -84 48
c-41.333 0 -89 -8.66699 -143 -26c-49.333 -15.333 -93.666 -34.666 -132.999 -57.999c-69.333 -40.667 -104 -80.667 -104 -120c0 -18.667 8.66699 -34.667 26 -48c10.667 -8.66699 26.667 -17.334 48 -26.001c17.333 -7.33301 26 -12 26 -14c0 -2.66699 -3 -4 -9 -4
c-28 0 -56.333 7.33301 -85 22c-34 16.667 -51 37.667 -51 63c0 47.333 45.667 97 137 149c42.667 24 90.334 44 143.001 60c56 17.333 106.667 26 152 26c78.667 0 118 -25.667 118 -77c0 -36.667 -51 -126.334 -153 -269.001h23c76.667 0 148.667 -1.66699 216 -5
c67.333 104 129.333 192 186 264c-0.666992 4.66699 1 11 5 19c12.667 14.667 28.667 34.334 48 59.001c2 3.33301 5 7.66602 9 12.999c11.333 10.667 29 16 53 16c13.333 0 20 -3 20 -9c0 -2 -0.666992 -3.66699 -2 -5l-85 -99c-73.333 -90 -136.333 -176.667 -189 -260z
M391.999 238.003c-236 -18.667 -354.001 -63.333 -354.001 -134c0 -29.333 20.333 -57.333 61 -84c32.667 -22 66.334 -36.667 101.001 -44z" />
    <glyph glyph-name="I" unicode="I" horiz-adv-x="469" 
d="M644 553c-18 0 -37.998 0.999023 -59.998 2.99902c-196 -233.333 -313 -422.666 -351 -567.999c53.333 -7.33301 97 -11 131 -11c58.667 0 97 10 115 30c6.66699 7.33301 11 11 13 11c1.33301 0 2 -1 2 -3c0 -6 -3.66699 -12.333 -11 -19
c-32.667 -29.333 -88.334 -44 -167.001 -44c-24.667 0 -55 1.66699 -91 5c-1.33301 -10.667 -2 -19.667 -2 -27c0 -19.333 5.66699 -29 17 -29c3.33301 0 8.83301 0.833008 16.5 2.5s13.5 2.5 17.5 2.5c4.66699 0 7 -0.666992 7 -2c0 -4 -10.833 -8.66699 -32.5 -14
s-36.5 -8 -44.5 -8c-28.667 0 -43 15 -43 45c0 10.667 1.33301 22.667 4 36c-47.333 4.66699 -82 7 -104 7c-48 0 -72 -10.333 -72 -31c0 -9.33301 8.33301 -17.333 25 -24s25 -10.334 25 -11.001c0 -2 -2.33301 -3 -7 -3c-15.333 0 -30 5.16699 -44 15.5
s-21 22.833 -21 37.5c0 18 8.66699 32 26 42c14 8 30.667 12 50 12c24.667 0 69 -4 133 -12c30 84 101 207 213 369c47.333 68.667 86.333 122.667 117 162c-0.666992 6.66699 6 18.667 20 36c-34 5.33301 -67.667 11 -101 17c-40 6 -74 9 -102 9
c-38.667 0 -73.334 -5.66699 -104.001 -17c-42 -16.667 -63 -41.334 -63 -74.001c0 -25.333 14 -48 42 -68c20.667 -16 46 -28.333 76 -37c10 -2.66699 31 -6.66699 63 -12c6 -1.33301 9 -3.33301 9 -6s-3.66699 -4 -11 -4c-41.333 0 -89 12.333 -143 37
c-64.667 29.333 -97 62.333 -97 99s27.333 64.334 82 83.001c38.667 12.667 80.667 19 126 19c31.333 0 71.333 -3.33301 120 -10c74 -10 113.667 -15.333 119 -16c6 8.66699 15 20.334 27 35.001c10.667 10.667 28 16 52 16c13.333 0 20 -3 20 -9
c0 -1.33301 -13 -17.333 -39 -48c26 -1.33301 49 -2 69 -2c48.667 0 79.334 5.66699 92.001 17c4 4.66699 7.33301 7 10 7c1.33301 0 2 -1 2 -3s-1 -4.33301 -3 -7c-18.667 -24 -61.334 -36 -128.001 -36z" />
    <glyph glyph-name="J" unicode="J" horiz-adv-x="520" 
d="M688 518c-37.333 -52.667 -95.334 -147.997 -174.001 -285.997h16c18 0 27 -3.66699 27 -11c0 -4 -17.333 -5.66699 -52 -5c-54 -94 -99.333 -166 -136 -216c-80 -108.667 -172.333 -163 -277 -163c-40.667 0 -77 10 -109 30c-36.667 23.333 -55 54.333 -55 93
c0 80.667 76.333 150.667 229 210c90 35.333 194.333 55.666 313 60.999c49.333 79.333 96 159.666 140 240.999c-0.666992 1.33301 -1 2.66602 -1 3.99902c0 6 7.66699 19.667 23 41c-12.667 0.666992 -34.334 1.66699 -65.001 3c-27.333 1.33301 -48.666 2 -63.999 2
c-29.333 0 -57.666 -3.16699 -84.999 -9.5s-51.666 -16.5 -72.999 -30.5c-29.333 -18 -44 -38.333 -44 -61c0 -39.333 51 -67.666 153 -84.999c6 -0.666992 9 -2.33398 9 -5.00098c0 -3.33301 -3.66699 -5 -11 -5c-34.667 0 -75.334 10 -122.001 30
c-55.333 23.333 -83 49.666 -83 78.999c0 27.333 20.667 51 62 71c28 14 60.333 24 97 30c32.667 6 66 9 100 9h5c16 0 39.333 -0.333008 70 -1s53.667 -1 69 -1c3.33301 5.33301 8 12.333 14 21c11.333 11.333 28 17 50 17c10 0 15 -2.33301 15 -7
c0 -1.33301 -7 -11.333 -21 -30c30 0.666992 53.667 2.33398 71 5.00098c32.667 4.66699 54 12 64 22c4.66699 4 8 6 10 6s3 -0.666992 3 -2c0 -2.66699 -1 -5 -3 -7c-24 -30 -79 -46.667 -165 -50zM460.999 216.003c-110.667 -4 -210.001 -26.666 -298.001 -67.999
c-125.333 -58.667 -188 -124 -188 -196c0 -28 11 -50.333 33 -67c20 -15.333 44.667 -23 74 -23c86.667 0 172.334 57.667 257.001 173c35.333 47.333 76 107.666 122 180.999z" />
    <glyph glyph-name="K" unicode="K" horiz-adv-x="719" 
d="M1073 483c-1.33301 0 -2.00195 0.334961 -2.00195 1.00195l15.5 18.5c10.333 12.333 15.5 24.166 15.5 35.499c0 19.333 -12.333 29 -37 29c-64.667 0 -163.667 -55.333 -297 -166c-95.333 -79.333 -182 -162.666 -260 -249.999
c142.667 -118 268.334 -193.667 377.001 -227c13.333 -4 23.666 -6 30.999 -6s11 2 11 6s-4 9.66699 -12 17s-12 12.666 -12 15.999c0 2.66699 1.33301 4 4 4c4.66699 0 14.5 -7.33301 29.5 -22s22.5 -24.667 22.5 -30c0 -8 -10 -12 -30 -12c-92 0 -241 75 -447 225
c-15.333 -20 -24.666 -30 -27.999 -30c-0.666992 0 -1 0.666992 -1 2c0 10 6.33301 21.667 19 35l-20 15c-110 -157.333 -208 -236 -294 -236c-84.667 0 -127 41 -127 123c0 10 0.666992 20.667 2 32c6 42.667 13.667 64 23 64c1.33301 0 2.33301 -3 3 -9
c0 -5.33301 -0.833008 -13.5 -2.5 -24.5s-2.5 -19.167 -2.5 -24.5c0 -40 7.33301 -73.333 22 -100c18.667 -32.667 46.334 -49 83.001 -49c71.333 0 159.666 82 264.999 246c-145.333 114 -218 208 -218 282c0 63.333 63 104 189 122c49.333 7.33301 139.333 11 270 11
c6.66699 0 16.667 0.333008 30 1h30c4 0 6 -1.33301 6 -4c0 -4.66699 -6.66699 -14.834 -20 -30.501s-41.333 -58.5 -84 -128.5l-151 -241l21 -18c89.333 106.667 174.333 195.667 255 267c126.667 110.667 230.334 166 311.001 166c48.667 0 73 -15.667 73 -47
c0 -6 -1 -11.667 -3 -17c-3.33301 -9.33301 -11.833 -19.333 -25.5 -30s-25.167 -16 -34.5 -16zM650.998 544.002c-44 0.666992 -74.667 0.999023 -92 0.999023c-46.667 0 -88.667 -1 -126 -3c-118 -8 -177 -40 -177 -96c0 -34.667 24.667 -78.667 74 -132
c22 -24 61.333 -61 118 -111l94 159c14 25.333 36.333 62 67 110v4c0 6.66699 6 18.334 18 35.001z" />
    <glyph glyph-name="L" unicode="L" horiz-adv-x="538" 
d="M834 -103c0 -16.667 -10 -25.001 -30 -25.001c-60 0 -201.333 70.667 -424 212c-63.333 -138.667 -125.666 -208 -186.999 -208c-48 0 -89.333 43 -124 129c-29.333 71.333 -44 136 -44 194c0 26.667 4.33301 40 13 40c4.66699 0 7 -7.33301 7 -22
c0 -68 13 -130.667 39 -188c34.667 -76.667 70 -115 106 -115c44.667 0 94 65.667 148 197c-152 96 -246.667 144 -284 144c-31.333 0 -47 -18.667 -47 -56c0 -6 1.33301 -15.333 4 -28s4 -22 4 -28c0 -10.667 -2.33301 -16 -7 -16s-9 9 -13 27
c-3.33301 14.667 -5 26.334 -5 35.001c0 29.333 6.66699 54 20 74c15.333 22.667 36.666 34 63.999 34c47.333 0 140.333 -49.667 279 -149c55.333 139.333 99 237.333 131 294c74 132.667 147.333 199 220 199c17.333 0 33 -6.16699 47 -18.5s21 -26.833 21 -43.5
c0 -22.667 -9.33301 -42.667 -28 -60c-5.33301 -5.33301 -9 -8 -11 -8s-3 1.33301 -3 4c0 3.33301 1 8.33301 3 15s3 12 3 16c0 18 -5.5 34 -16.5 48s-25.5 21 -43.5 21c-10 0 -19.667 -2.33301 -29 -7c-32.667 -16 -69.667 -66.667 -111 -152
c-16.667 -34 -42.667 -94.667 -78 -182l-63 -156c75.333 -54.667 132.333 -93.667 171 -117c72 -44 134 -72.333 186 -85c10 -2 18.333 -3 25 -3c15.333 0 23 6.33301 23 19c0 9.33301 -4.16699 22.5 -12.5 39.5l-12.5 25.5c0 2.66699 1 4 3 4
c6.66699 0 17.667 -14.333 33 -43s23 -49 23 -61z" />
    <glyph glyph-name="M" unicode="M" horiz-adv-x="884" 
d="M513 523c-40 0 -101.667 5.99902 -185 17.999c-20 3.33301 -38.333 5 -55 5c-29.333 0 -55.333 -5 -78 -15c-30.667 -12.667 -46 -31.667 -46 -57c0 -37.333 29.667 -64.666 89 -81.999c6.66699 -2 21.334 -4.66699 44.001 -8c5.33301 -1.33301 8 -3 8 -5
c0 -2.66699 -3 -4 -9 -4c-34.667 0 -74.334 10.333 -119.001 31c-53.333 24 -80 51.333 -80 82s22.667 53.667 68 69c32 10.667 66.667 16 104 16c26 0 54 -2.33301 84 -7c96 -14.667 169.667 -22 221 -22c40 0 65.333 5 76 15c3.33301 3.33301 6 5 8 5
c1.33301 0 2 -0.666992 2 -2c-0.666992 -2 -1.66699 -4 -3 -6c-16.667 -22 -59.667 -33 -129 -33zM772 -37.001c0 -40 8.33301 -60.0029 25 -60.0029c3.33301 0 8.66602 0.833008 15.999 2.5s12.666 2.5 15.999 2.5c6 0 9 -0.666992 9 -2c0 -4 -10.167 -8.5 -30.5 -13.5
s-34.166 -7.5 -41.499 -7.5c-37.333 0 -56 23.667 -56 71c0 82 51 223 153 423c-31.333 -38.667 -72 -86 -122 -142c-16.667 -20 -43 -49 -79 -87c-65.333 -63.333 -117.666 -95 -156.999 -95c-38.667 0 -58 35 -58 105c0 76 10.667 163.333 32 262
c-46.667 -100 -84.667 -177 -114 -231c-37.333 -68 -77 -128 -119 -180c-64.667 -78.667 -120.667 -118 -168 -118c-33.333 0 -57.666 22.333 -72.999 67c-10 30 -15 66 -15 108c0 26.667 2.33301 56 7 88c6 40 14 67.667 24 83c4.66699 6 8.66699 9 12 9s5 -2.33301 5 -7
c0 -1.33301 -0.666992 -3.66602 -2 -6.99902c-15.333 -48.667 -23 -100.667 -23 -156c0 -31.333 4.33301 -59.666 13 -84.999c12 -36 30.333 -54 55 -54c53.333 0 131.333 78.333 234 235c76.667 116.667 136.667 223.334 180 320.001c8.66699 18 16 27 22 27
c2 0 3 -1.66699 3 -5c0 -4.66699 -6 -19.667 -18 -45c9.33301 3.33301 17.666 5 24.999 5c6.66699 0 10 -2.66699 10 -8c0 -1.33301 -3 -13.333 -9 -36c-20.667 -74 -31 -162.333 -31 -265c0 -39.333 12 -59 36 -59c40 0 109.667 53.333 209 160
c82 88 141.667 161.667 179 221l21 37c-0.666992 2 -1 4.33301 -1 7c0 4.66699 6.66699 18 20 40l26 43c12 10.667 28 16 48 16c15.333 0 23 -3.66699 23 -11v-3l-67 -101c-146 -233.333 -219 -418 -219 -554z" />
    <glyph glyph-name="N" unicode="N" horiz-adv-x="736" 
d="M612 4c-5.33301 0 -8 4.66406 -8 13.9971c0 50.667 38.333 143.334 115 278.001c69.333 122.667 127.333 209.334 174 260.001c-15.333 -6 -32.666 -9 -51.999 -9c-4.66699 0 -7 2 -7 6c0 4.66699 3 7 9 7c33.333 0 58.666 7.33301 75.999 22l33 34
c14.667 13.333 28.667 20 42 20c11.333 0 17 -6 17 -18c0 -14 -7.66699 -26.333 -23 -37c-25.333 -18 -45 -33.667 -59 -47c-54 -50.667 -109 -120.667 -165 -210c-52.667 -83.333 -93 -163 -121 -239c-5.33301 -13.333 -12.333 -34.666 -21 -63.999
c-2.66699 -11.333 -6 -17 -10 -17zM690 -19.0029c0 -2.66699 -1.99902 -10.666 -5.99902 -23.999c-14.667 -42.667 -33.334 -63.334 -56.001 -62.001h-2c-12.667 2 -24.334 9 -35.001 21c-27.333 30.667 -61.333 119.667 -102 267l-43 150
c-90 -196.667 -162.667 -322 -218 -376c-45.333 -44 -87.333 -66 -126 -66c-29.333 0 -52 12.667 -68 38c-14 22 -21 48.333 -21 79c0 49.333 15.667 96 47 140c29.333 41.333 67.333 73.333 114 96c5.33301 2.66699 10.333 4 15 4c4 0 6 -1 6 -3
c0 -1.33301 -2.33301 -3.33301 -7 -6c-102.667 -64 -154 -138.667 -154 -224c0 -22 4.66699 -40.667 14 -56c11.333 -17.333 27.333 -26 48 -26c80 0 193.667 143.333 341 430c-37.333 112.667 -76.333 169 -117 169c-23.333 0 -47.666 -17.667 -72.999 -53s-40 -53 -44 -53
c-1.33301 0 -2 1 -2 3s0.333008 4 1 6c19.333 43.333 50.333 79.333 93 108c6 4.66699 15 10 27 16c12 4 22 6 30 6c43.333 0 80.333 -50 111 -150c12.667 26.667 21.667 40 27 40c1.33301 0 2 -1.33301 2 -4c0 -7.33301 -7 -28 -21 -62c8 -29.333 20.667 -78.333 38 -147
c22 -89.333 37.333 -147.333 46 -174c29.333 -90 57 -135 83 -135c12 0 22.833 8.83301 32.5 26.5s15.167 26.5 16.5 26.5c2 0 3 -1.66699 3 -5z" />
    <glyph glyph-name="O" unicode="O" horiz-adv-x="672" 
d="M741 536c0 -5.33301 -3.33301 -8 -10 -8c-3.33301 0 -7 0.666992 -11 2c-36 17.333 -71.333 27.333 -106 30c76 -40.667 114 -98.334 114 -173.001c0 -64.667 -29.667 -136.667 -89 -216c-48 -64 -106 -116.333 -174 -157c-74.667 -44.667 -148.667 -67 -222 -67
c-144.667 0 -217 52.333 -217 157c0 71.333 33.333 148 100 230c-10 26.667 -15 52 -15 76c0 66.667 35.333 118 106 154c56 28 120.667 42 194 42c58.667 0 112.334 -9 161.001 -27h10c55.333 0.666992 103.666 -8.66602 144.999 -27.999
c9.33301 -4.66699 14 -9.66699 14 -15zM480 567c-32 8 -65 12 -99 12c-60 0 -111.333 -12.333 -154 -37c-50.667 -29.333 -76 -72 -76 -128c0 -14.667 1.66699 -30 5 -46c95.333 104.667 203.333 171 324 199zM676 356c0 47.333 -15.333 88.666 -46 123.999
c-27.333 32 -64.333 57 -111 75c-65.333 -12 -130.333 -39 -195 -81c-61.333 -39.333 -114.333 -86.333 -159 -141c8.66699 -21.333 22 -43.666 40 -66.999c23.333 -29.333 43.666 -44 60.999 -44c11.333 0 19 7.33301 23 22c1.33301 3.33301 3.33301 15 6 35
c0.666992 5.33301 3.33398 8 8.00098 8c5.33301 0 8 -3 8 -9c0 -46.667 -17 -70 -51 -70c-22 0 -45 11 -69 33c-18.667 18 -34.667 39.333 -48 64c-46.667 -64.667 -70 -124.667 -70 -180c0 -48 17.333 -85.333 52 -112c30.667 -23.333 70.667 -35 120 -35
c66 0 132.333 16.667 199 50s118.667 76.333 156 129c50.667 72 76 138.333 76 199z" />
    <glyph glyph-name="P" unicode="P" horiz-adv-x="671" 
d="M321 111c-22 0 -42.3359 1.66797 -61.0029 5.00098c-40.667 -82.667 -61 -144.667 -61 -186c0 -19.333 5.66699 -29 17 -29c4 0 9.66699 0.833008 17 2.5s13 2.5 17 2.5c4.66699 0 7 -0.666992 7 -2c0 -4 -10.667 -8.66699 -32 -14s-36 -8 -44 -8
c-29.333 0 -44 15 -44 45c0 40.667 25.667 107.334 77 200.001c-34 12.667 -51 31.667 -51 57c0 59.333 62 111.666 186 156.999c53.333 78.667 98 140.667 134 186c-1.33301 6.66699 10.667 25.667 36 57c-12 0.666992 -24.333 1 -37 1c-90.667 0 -179.667 -16 -267 -48
c-93.333 -33.333 -140 -75 -140 -125c0 -36 31 -67 93 -93c6 -2.66699 9 -5 9 -7c0 -3.33301 -5.33301 -5 -16 -5c-25.333 0 -55.666 12 -90.999 36c-38.667 26 -58 51.667 -58 77c0 50.667 53.333 94.334 160 131.001c96 34 191.667 51 287 51
c24.667 0 48.334 -1.33301 71.001 -4l15 20c10.667 10.667 28 16 52 16c14 0 21 -3 21 -9c0 -1.33301 -9.66699 -13.333 -29 -36c54.667 -10.667 101.334 -28.334 140.001 -53.001c50 -32.667 75 -72.334 75 -119.001c0 -66 -50.333 -132.667 -151 -200
c-45.333 -30 -98.333 -55 -159 -75c-64 -20.667 -121.667 -31 -173 -31zM767.997 438.001c0 40.667 -22.333 74.001 -67 100.001c-33.333 18.667 -74 32 -122 40c-61.333 -72 -118 -144.667 -170 -218c51.333 14.667 82.666 22 93.999 22c2.66699 0 4 -0.666992 4 -2
c0 -4 -3.66699 -7 -11 -9l-33 -9c-24 -6 -46 -12.333 -66 -19c-53.333 -76.667 -96.666 -147.334 -129.999 -212.001c16 -4 33 -6 51 -6c46 0 104.667 16 176 48c74 32.667 136.333 71.667 187 117c58 52 87 101.333 87 148zM332.997 317.002c-30 -14 -57.333 -31 -82 -51
c-33.333 -28 -50 -53.333 -50 -76c0 -16.667 8.33301 -30.667 25 -42c29.333 50.667 65 107 107 169z" />
    <glyph glyph-name="Q" unicode="Q" horiz-adv-x="636" 
d="M708 -144c0 -36 -24.3311 -54.001 -72.998 -54.001c-52 0 -112.333 20.667 -181 62c-59.333 35.333 -110 76 -152 122c-27.333 -6 -54.333 -9 -81 -9c-58.667 0 -107.334 14.333 -146.001 43c-44 32.667 -66 77.334 -66 134.001c0 70 30.333 141.333 91 214
c-9.33301 30.667 -14 59 -14 85c0 53.333 20 93.333 60 120c34.667 22.667 80 34 136 34c37.333 0 75 -5 113 -15c43.333 -11.333 78 -27 104 -47c49.333 -7.33301 91 -22.666 125 -45.999c7.33301 -6 11 -11.333 11 -16s-2.33301 -7 -7 -7c-3.33301 0 -7 1.33301 -11 4
c-32.667 22 -64 36.667 -94 44c61.333 -58.667 92 -122.334 92 -191.001c0 -61.333 -25.333 -125 -76 -191c-53.333 -70 -120.333 -118.667 -201 -146c36.667 -42 78 -79 124 -111c58 -40 109 -60 153 -60c18.667 0 35.167 4.66699 49.5 14s21.5 23 21.5 41
c0 4 -1 9.16699 -3 15.5s-3 10.833 -3 13.5c0 3.33301 1.66699 5 5 5c5.33301 0 10.666 -8.33301 15.999 -25c4.66699 -14 7 -25 7 -33zM414.002 546.999c-49.333 23.333 -98.001 35.001 -146.001 35.001c-45.333 0 -81 -11.333 -107 -34s-39 -56.334 -39 -101.001
c0 -15.333 1.66699 -32 5 -50c84.667 89.333 180.334 139.333 287.001 150zM574.001 320c0 90 -42.999 160.333 -128.999 211c-56 -2.66699 -112.667 -20 -170 -52c-52.667 -30 -98.667 -68 -138 -114c59.333 -152 121.666 -269 186.999 -351c78 20 138.667 60 182 120
c45.333 63.333 68 125.333 68 186zM284.002 6c-72.667 86.667 -130.667 194.667 -174 324c-39.333 -57.333 -59 -112 -59 -164c0 -52.667 19 -93.667 57 -123c34.667 -26 79 -39 133 -39c14 0 28.333 0.666992 43 2z" />
    <glyph glyph-name="R" unicode="R" horiz-adv-x="802" 
d="M882 -33c0 -38 -14.335 -57 -43.002 -57c-38.667 0 -92 38.333 -160 115c-5.33301 6 -49 61.333 -131 166c-48.667 -13.333 -91 -20 -127 -20c-13.333 0 -26.333 0.666992 -39 2c-60.667 -108.667 -91 -189.667 -91 -243c0 -19.333 5.66699 -29 17 -29
c4 0 9.66699 0.833008 17 2.5s13 2.5 17 2.5c5.33301 0 8 -0.666992 8 -2c0 -4 -10.833 -8.66699 -32.5 -14s-36.5 -8 -44.5 -8c-29.333 0 -44 15 -44 45c0 48.667 36.333 133.667 109 255c-54.667 16 -82 40.667 -82 74c0 11.333 3.83301 23.166 11.5 35.499
s16.834 18.5 27.501 18.5c4 0 6 -1.66699 6 -5c0 -2 -3.5 -7.83301 -10.5 -17.5s-10.5 -19.167 -10.5 -28.5c0 -26.667 22 -48 66 -64l76 118c-16 8.66699 -30.333 13 -43 13c-18 0 -32.333 -7.66699 -43 -23c-5.33301 -8 -11.666 -22.667 -18.999 -44
c-5.33301 -15.333 -10.666 -23 -15.999 -23c-2 0 -3 1.66699 -3 5c0 26 12 52.167 36 78.5s48.667 39.5 74 39.5c13.333 0 26.333 -3 39 -9c52 75.333 94.667 134.333 128 177c-0.666992 6.66699 10.666 24.667 33.999 54c-55.333 12.667 -114.333 19 -177 19
c-88 0 -168.667 -12.667 -242 -38c-85.333 -28.667 -128 -64.667 -128 -108c0 -31.333 28.333 -58 85 -80c5.33301 -2.66699 8 -4.66699 8 -6c0 -3.33301 -4.66699 -5 -14 -5c-23.333 0 -51 10.333 -83 31c-35.333 22.667 -53 45 -53 67c0 43.333 48.667 81.333 146 114
c81.333 26.667 168 40 260 40c72.667 0 141 -8.33301 205 -25c4.66699 6.66699 12.167 15.667 22.5 27s27.5 17 51.5 17c13.333 0 20 -3 20 -9c0 -1.33301 -14 -18.333 -42 -51c111.333 -40.667 167 -94 167 -160c0 -46 -29.667 -90 -89 -132
c-43.333 -31.333 -94.333 -57 -153 -77l109 -137c53.333 -65.333 92 -105.666 116 -120.999c10 -6.66699 18.333 -10 25 -10c17.333 0 26 22.333 26 67c0 3.33301 1.66699 5 5 5c5.33301 0 8 -14 8 -42zM800.998 434c0 55.333 -46.667 99.332 -140 131.999
c-67.333 -79.333 -128 -158.666 -182 -237.999c26 -22.667 58.667 -57 98 -103c53.333 22.667 100 49.667 140 81c56 43.333 84 86 84 128zM533.998 207.999c-30 36.667 -56.668 64.333 -80.001 83c-24.667 -36.667 -46.667 -72 -66 -106c9.33301 -1.33301 18.333 -2 27 -2
c30.667 0 70.334 8.33301 119.001 25z" />
    <glyph glyph-name="S" unicode="S" horiz-adv-x="721" 
d="M805 616c0 -7.33301 -8 -29.999 -24 -67.999c12 -19.333 18 -33.333 18 -42c0 -13.333 -3 -21.333 -9 -24c-4 7.33301 -9 16 -15 26c-7.33301 -22 -21 -51.333 -41 -88c-3.33301 -4 -9.33301 -6 -18 -6c-27.333 0 -41 5 -41 15c0 5.33301 11 23 33 53
c24.667 34 38.334 53 41.001 57c-22 34.667 -63 52 -123 52c-28.667 0 -59 -4.66699 -91 -14c-39.333 -10.667 -74.333 -26.667 -105 -48c-40.667 -28 -61 -58 -61 -90c0 -26 17.333 -48 52 -66c13.333 -6.66699 41.333 -17 84 -31c124 -40.667 186 -92.334 186 -155.001
c0 -48.667 -35 -98.667 -105 -150c-48.667 -36 -105.334 -67.667 -170.001 -95c-67.333 -28 -134 -42 -200 -42c-47.333 0 -89.666 8.33301 -126.999 25c-49.333 21.333 -74 52.666 -74 93.999c0 37.333 22.667 75.666 68 114.999c32 28 71 53.667 117 77
c16 8 28.333 12 37 12c4.66699 0 7 -1.33301 7 -4c0 -3.33301 -4.66699 -7.33301 -14 -12c-12 -4.66699 -29.667 -13 -53 -25c-80 -43.333 -120 -92 -120 -146c0 -33.333 16.667 -58.333 50 -75c26 -13.333 57.333 -20 94 -20c46 0 97.167 9.16699 153.5 27.5
s111.166 47.166 164.499 86.499c67.333 49.333 101 97 101 143c0 48.667 -41.667 88.667 -125 120c-12 4.66699 -35 12.334 -69 23.001c-36 10.667 -59.333 18.667 -70 24c-27.333 14.667 -41 33.334 -41 56.001c0 58.667 39.667 107.334 119 146.001
c65.333 32.667 131.333 49 198 49c65.333 0 110 -16 134 -48c11.333 16 18.333 31.333 21 46c1.33301 10.667 5 16 11 16c4.66699 0 7 -4.66699 7 -14z" />
    <glyph glyph-name="T" unicode="T" horiz-adv-x="514" 
d="M820 422c-2 0 -3.00098 1.66699 -3.00098 5c0 8.66699 6.16699 24.5 18.5 47.5s18.5 38.5 18.5 46.5c0 3.33301 -2 5.66602 -6 6.99902c-10 3.33301 -32.667 8 -68 14c-45.333 7.33301 -98 13.666 -158 18.999c-192 -228.667 -310.333 -419.667 -355 -573
c-6.66699 -23.333 -10 -42.666 -10 -57.999c0 -19.333 5.66699 -29 17 -29c3.33301 0 8.83301 0.833008 16.5 2.5s13.5 2.5 17.5 2.5c4.66699 0 7 -0.666992 7 -2c0 -4 -10.667 -8.66699 -32 -14s-36 -8 -44 -8c-29.333 0 -44 15 -44 45
c0 54.667 46.667 156.334 140 305.001c68 108.667 136.333 207 205 295c-0.666992 6.66699 6.66602 19.334 21.999 38.001c-49.333 3.33301 -96.666 5 -141.999 5c-84.667 0 -156.667 -5.66699 -216 -17c-106.667 -19.333 -160 -54 -160 -104c0 -32 14.667 -62.667 44 -92
c23.333 -24 52.333 -43.667 87 -59c10.667 -4.66699 16 -8.66699 16 -12c0 -2 -1.66699 -3 -5 -3c-4 0 -10 1.33301 -18 4c-100 33.333 -150 82.666 -150 147.999c0 10.667 1.66699 21.334 5 32.001c30 100 133 150 309 150c61.333 0 144.333 -9.33301 249 -28
c4.66699 7.33301 12.167 16.666 22.5 27.999s27.5 17 51.5 17c13.333 0 20 -3 20 -9c0 -1.33301 -12 -16.333 -36 -45c101.333 -16 178.666 -24 231.999 -24c13.333 0 24.833 4.5 34.5 13.5s15.834 13.5 18.501 13.5c4 0 8.16699 -2.16699 12.5 -6.5s6.5 -8.83301 6.5 -13.5
s-3.33301 -8.66699 -10 -12c-18.667 -9.33301 -37 -26 -55 -50l-42 -63c-7.33301 -10.667 -12.666 -16 -15.999 -16z" />
    <glyph glyph-name="U" unicode="U" horiz-adv-x="756" 
d="M637 -119c0 -49.333 8.00195 -73.999 24.002 -73.999c3.33301 0 8.66602 0.833008 15.999 2.5s12.666 2.5 15.999 2.5c5.33301 0 8 -1 8 -3c0 -3.33301 -9 -7.33301 -27 -12s-30.667 -7 -38 -7c-37.333 0 -56 25.667 -56 77c0 101.333 65 281.666 195 540.999
c13.333 26.667 34 66 62 118v7c0 4.66699 6.33301 18 19 40l26 43c12 10.667 28.333 16 49 16c14.667 0 22 -3.66699 22 -11v-3l-71 -107c-163.333 -260 -245 -470 -245 -630zM756.002 436.001c0 -18.667 -8.66699 -50.3301 -26 -94.9971
c-28 -70.667 -66 -140.667 -114 -210c-54.667 -78 -109.667 -134.667 -165 -170c-37.333 -24 -74.666 -36 -111.999 -36c-58.667 0 -88 27 -88 81c0 39.333 21.667 97 65 173l120 201c43.333 76 65 133.333 65 172s-30 58 -90 58c-40.667 0 -86.667 -9 -138 -27
c-47.333 -16 -90 -36 -128 -60c-60.667 -38.667 -91 -76.334 -91 -113.001c0 -34.667 31.667 -63.334 95 -86.001c10.667 -3.33301 16 -6.66602 16 -9.99902c0 -2 -3 -3 -9 -3c-3.33301 0 -7 0.333008 -11 1c-92.667 15.333 -139 45.333 -139 90c0 41.333 38 86.333 114 135
c42.667 26.667 90.334 48.667 143.001 66c56 18.667 107.333 28 154 28c84 0 126 -29 126 -87c0 -42.667 -33 -120.334 -99 -233.001c-74 -126.667 -116 -208 -126 -244c-6 -20 -9 -37.667 -9 -53c0 -35.333 15 -53 45 -53c21.333 0 47.666 8.66699 78.999 26
c56.667 31.333 111.667 81 165 149c49.333 63.333 86 127.666 110 192.999c9.33301 24 18.666 61 27.999 111c0.666992 4 3.66699 6 9 6c7.33301 0 11 -3.33301 11 -10z" />
    <glyph glyph-name="V" unicode="V" horiz-adv-x="508" 
d="M865 556l0.000976562 3c0 -0.666992 4 5.66602 12 18.999s12 25.333 12 36c0 17.333 -9 26 -27 26c-6 0 -12.333 -1 -19 -3c-28 -10 -58.667 -28.333 -92 -55c-94 -76.667 -205.667 -210 -335 -400c-43.333 -63.333 -75.333 -113.666 -96 -150.999
c-12 -21.333 -19 -32 -21 -32c-0.666992 0.666992 -1 1.66699 -1 3c0 9.33301 3.66699 21.333 11 36c19.333 35.333 47.666 83.333 84.999 144c162.667 264 305 422.333 427 475c18 7.33301 35.667 11 53 11c31.333 0 47 -12.667 47 -38
c0 -4.66699 -0.333008 -8.66699 -1 -12c-2 -10 -9.66699 -22.833 -23 -38.5s-24 -23.5 -32 -23.5zM503.001 532c-30.667 0 -76.498 6.00098 -137.498 18.001s-107.167 18 -138.5 18c-38.667 0 -73.334 -6 -104.001 -18c-42 -16 -63 -40.333 -63 -73
c0 -25.333 13.667 -48.333 41 -69c21.333 -15.333 46.666 -27.333 75.999 -36c10.667 -3.33301 32 -7.66602 64 -12.999c6 -0.666992 9 -2.33398 9 -5.00098c0 -3.33301 -3.66699 -5 -11 -5c-41.333 0 -89.333 12.333 -144 37c-64 29.333 -96 62.666 -96 99.999
c0 36.667 27.333 64 82 82c38 13.333 80 20 126 20c35.333 0 87.833 -5.83301 157.5 -17.5s122.167 -17.5 157.5 -17.5c36.667 0 60 6 70 18c4 4 6.66699 6 8 6s2 -0.666992 2 -2c0 -2.66699 -0.666992 -5 -2 -7c-16 -24 -48.333 -36 -97 -36zM329.003 355.001
c0 -102.667 -10.3311 -208.999 -30.998 -318.999l-15 -69c-6.66699 -24.667 -20.334 -37 -41.001 -37c-7.33301 0 -11 2.66699 -11 8c0 23.333 9.66699 81.666 29 174.999s29 164.333 29 213c0 14 -4.66699 79 -14 195l-1 3c0 3.33301 1.66699 5 5 5c6 0 14.167 -5 24.5 -15
s16.166 -18 17.499 -24c5.33301 -20.667 8 -65.667 8 -135z" />
    <glyph glyph-name="W" unicode="W" horiz-adv-x="1049" 
d="M744 -17c-40 0 -69.6641 16.333 -88.9971 49c-16.667 26.667 -25 61.334 -25 104.001c0 54.667 12.667 111.667 38 171c23.333 56 54 105.333 92 148c-34.667 -10.667 -100.334 -62.667 -197.001 -156c-65.333 -63.333 -127 -127 -185 -191c-18 -19.333 -41 -47 -69 -83
c-7.33301 -14 -12 -21 -14 -21c-0.666992 0 -1 1.33301 -1 4c0 8 2.83301 20 8.5 36s49.167 67.667 130.5 155c73.333 78 124.333 130.333 153 157c24 22 57 46.667 99 74c46.667 31.333 82.667 51 108 59c2.66699 2 6.66699 3 12 3c13.333 0 21.333 -3.33301 24 -10
l-35 -47c-28 -44 -52 -94.667 -72 -152c-21.333 -62.667 -32 -117.334 -32 -164.001c0 -77.333 21.333 -116 64 -116c35.333 0 79.666 26 132.999 78c36.667 36.667 71 78 103 124c27.333 40 50.333 79.333 69 118c26.667 56 40 102.333 40 139c0 51.333 -26 77 -78 77
c-6 0 -9 2.66699 -9 8c0 6 3 9 9 9c30.667 0 55.167 -10.833 73.5 -32.5s27.166 -48.167 26.499 -79.5v-6c-0.666992 -48.667 -12.667 -100.667 -36 -156c-17.333 -40.667 -40 -80 -68 -118c-34 -46 -73.667 -86 -119 -120c-56 -40.667 -107.333 -61 -154 -61zM529.003 528
c0 -68 -78.002 -229.333 -234.002 -484c-13.333 -22.667 -34.333 -55.334 -63 -98.001c-6 -8 -11.667 -12 -17 -12c-4.66699 0 -7 3 -7 9c0 4 1.33301 8.33301 4 13l160 290c76.667 142.667 115 237.667 115 285c0 39.333 -31 59 -93 59
c-40.667 0 -85.5 -8.16699 -134.5 -24.5s-91.167 -36.166 -126.5 -59.499c-56 -37.333 -84 -73.666 -84 -108.999c0 -36 33.667 -65.667 101 -89c10.667 -4 16 -7.66699 16 -11c0 -2 -2.66699 -3 -8 -3c-32 0 -63.667 8.33301 -95 25c-38 19.333 -57 43 -57 71
c0 44.667 37 90.667 111 138c38.667 24.667 83.834 45.167 135.501 61.5s99.834 24.5 144.501 24.5c33.333 0 62 -6 86 -18c30.667 -14.667 46 -37.334 46 -68.001z" />
    <glyph glyph-name="X" unicode="X" horiz-adv-x="498" 
d="M437 253c20.667 -43.333 52.999 -107.333 96.999 -192c12.667 -24.667 34 -59.334 64 -104.001c15.333 -18.667 31.333 -28 48 -28c10.667 0 16 5 16 15c0 7.33301 -3.16699 16.333 -9.5 27s-9.5 17 -9.5 19c0 4 2.33301 6 7 6c6.66699 0 12.334 -8 17.001 -24
c3.33301 -12 5 -22.667 5 -32c0 -33.333 -16.333 -50 -49 -50c-36.667 0 -68 20.667 -94 62s-68.333 128 -127 260c-170 -197.333 -289.667 -296 -359 -296c-36 0 -54 18.667 -54 56c0 34 19.833 72.667 59.5 116s74.167 65 103.5 65c7.33301 0 11 -3 11 -9
c0 -1.33301 -1.33301 -2.66602 -4 -3.99902c-12 -6 -29.333 -15.333 -52 -28c-52.667 -34.667 -79 -70 -79 -106c0 -22.667 12.333 -34 37 -34c64 0 173.333 87 328 261c-33.333 74 -58.333 127.667 -75 161c-37.333 72 -69.666 120 -96.999 144c-16 14 -32 21 -48 21
c-21.333 0 -37.333 -11 -48 -33c-8 -17.333 -12 -38 -12 -62c0 -38 11 -88 33 -150c2 -6.66699 3 -12 3 -16c0 -6 -2 -9 -6 -9c-3.33301 0 -6.33301 2.33301 -9 7c-26.667 54 -40 108.333 -40 163c0 34.667 7.33301 64.667 22 90c18 30 43.333 45 76 45
c37.333 0 70.333 -21.667 99 -65c23.333 -36 68.666 -121.667 135.999 -257l186 225l85 104c4 4.66699 7.66699 7 11 7c4.66699 0 7 -2.33301 7 -7c0 -2.66699 -1.66699 -6 -5 -10l-79 -97z" />
    <glyph glyph-name="Y" unicode="Y" horiz-adv-x="672" 
d="M473 128h14.002c21.333 0.666992 32 -2.66602 32 -9.99902c0 -4 -18.333 -5.66699 -55 -5c-54 -98 -98.333 -170.333 -133 -217c-108.667 -148 -223.334 -222 -344.001 -222c-41.333 0 -77 10.333 -107 31c-33.333 24 -50 56 -50 96c0 70 50.333 136 151 198
c75.333 46 157.333 79.667 246 101c41.333 119.333 62 225.666 62 318.999c0 42.667 -5.66699 80 -17 112c-16.667 46 -42.667 69 -78 69c-33.333 0 -60 -19.333 -80 -58c-16.667 -31.333 -25 -65.333 -25 -102c0 -26.667 4.33301 -60.334 13 -101.001
c10 -44.667 21 -76 33 -94c1.33301 -2 2 -4 2 -6c0 -5.33301 -3 -8 -9 -8c-2 0 -4 1 -6 3c-17.333 22 -33 55.333 -47 100c-14 42.667 -21 78.667 -21 108c0 48 13 90.333 39 127c29.333 40.667 67.333 61 114 61c48 0 84.667 -23.667 110 -71
c20 -37.333 30 -82.666 30 -135.999c0 -69.333 -15.667 -150 -47 -242c54.667 77.333 115 154.333 181 231c86.667 102 154.667 168.333 204 199c1.33301 0.666992 2.66602 1 3.99902 1c2 0 3.66699 -0.666992 5 -2c1.33301 8 12.666 12 33.999 12c19.333 0 29 -5 29 -15
c0 -2 -0.333008 -3.66699 -1 -5l-55 -75c-35.333 -53.333 -74.666 -119 -117.999 -197zM679.002 585c-53.333 -46 -123.001 -117.333 -209.001 -214c-94.667 -106 -153.667 -183 -177 -231l-12 -29c46.667 8 95.334 13.333 146.001 16l211 378c-0.666992 0.666992 -1 2 -1 4
c0 4.66699 14 30 42 76zM418.001 112c-49.333 -2 -97.668 -8.33301 -145.001 -19c-4 -12 -7.66699 -23.667 -11 -35c-6.66699 -18.667 -16 -28 -28 -28c-12.667 0 -19 9 -19 27c0 6 1.66699 13.333 5 22c-34 -10 -65.333 -21.667 -94 -35
c-63.333 -29.333 -117.333 -63.333 -162 -102c-60.667 -54 -91 -107.667 -91 -161c0 -28.667 9.33301 -51 28 -67s42.334 -24 71.001 -24c102 0 212 80.333 330 241c29.333 40 68 100.333 116 181z" />
    <glyph glyph-name="Z" unicode="Z" horiz-adv-x="661" 
d="M816 533c-59.333 -48 -143.664 -128.002 -252.997 -240.002c74.667 -1.33301 130.667 -6.66602 168 -15.999c8.66699 -2 13 -4 13 -6s-4.33301 -4.33301 -13 -7s-14.667 -4 -18 -4c-20 0 -49.667 0.666992 -89 2c-41.333 1.33301 -71 2 -89 2l-194 -209
c123.333 -61.333 195 -96.333 215 -105c96 -42.667 170.333 -64 223 -64c28 0 42 12 42 36c0 6 -1.5 14.667 -4.5 26s-4.5 18 -4.5 20c0 4 1.66699 6 5 6c6 0 12.333 -10.667 19 -32s10 -36 10 -44c0 -31.333 -18.333 -47 -55 -47c-8 0 -17.667 1 -29 3
c-66.667 12.667 -144.334 36 -233.001 70l-225 92c-83.333 -83.333 -147.666 -125 -192.999 -125c-39.333 0 -59 32.667 -59 98c0 38 2.66699 57 8 57c2 0 3.33301 -4 4 -12c0 -1.33301 0.333008 -6.33301 1 -15c1.33301 -62 17 -93 47 -93c33.333 0 84.333 35.333 153 106
c-86.667 34.667 -140.334 52 -161.001 52c-22 0 -39.667 -7.33301 -53 -22s-20 -33 -20 -55c0 -4.66699 1.16699 -11.167 3.5 -19.5s3.5 -14.5 3.5 -18.5c0 -4.66699 -1.33301 -7 -4 -7c-10 0 -15 22.333 -15 67c0 70 31 105 93 105c43.333 0 107 -20.333 191 -61l175 191
c-116.667 -4 -191 -20.333 -223 -49c-6 -5.33301 -11.333 -13 -16 -23c-3.33301 -7.33301 -7 -11 -11 -11c-2.66699 0 -4 1.33301 -4 4s0.666992 5.33398 2 8.00098c24 63.333 118 96.666 282 99.999c101.333 99.333 192.666 178.666 273.999 237.999h-9
c-38 -0.666992 -83 3 -135 11c-45.333 7.33301 -90.333 15 -135 23c-28 4 -54.333 6 -79 6c-41.333 0 -79 -6.66699 -113 -20c-46.667 -18.667 -70 -45.667 -70 -81c0 -45.333 36.667 -77.666 110 -96.999c7.33301 -2 24.666 -5.33301 51.999 -10
c5.33301 -1.33301 8 -3.33301 8 -6s-3.66699 -4 -11 -4c-38 0 -81.667 11.333 -131 34c-58 26.667 -87 57.334 -87 92.001c0 17.333 6.66699 33.333 20 48c38.667 42.667 107 64 205 64c31.333 0 65 -2.66699 101 -8c138 -21.333 233 -32 285 -32h9
c12.667 9.33301 26 18.333 40 27s28.667 13 44 13c17.333 0 26 -4 26 -12c0 -12 -13.333 -22.667 -40 -32c-19.333 -7.33301 -38 -12 -56 -14z" />
    <glyph glyph-name="bracketleft" unicode="[" horiz-adv-x="354" 
d="M542 574c0 -0.666992 -0.667969 -4.33398 -2.00098 -11.001c-3.33301 -0.666992 -7.33301 -1 -12 -1c-6.66699 0 -16.5 0.5 -29.5 1.5s-22.5 1.5 -28.5 1.5c-22.667 0 -38 -1.66699 -46 -5c-12 -6 -30.667 -22.333 -56 -49c-50 -52.667 -107.333 -127.667 -172 -225
c-77.333 -116.667 -116 -198 -116 -244c0 -25.333 19.333 -38 58 -38c7.33301 0 17.833 0.5 31.5 1.5s24.167 1.5 31.5 1.5c14.667 0 22 -3.33301 22 -10c0 -7.33301 -25.667 -11 -77 -11c-76 0 -114 10 -114 30c0 14 7.33301 40 22 78
c29.333 72.667 77.333 159.334 144 260.001c74.667 112 138.334 185.667 191.001 221c16 10.667 36 16 60 16c62 0 93 -5.66699 93 -17z" />
    <glyph glyph-name="backslash" unicode="\" horiz-adv-x="532" 
d="M504 -53c0 -10.667 -5.33496 -18.666 -16.002 -23.999c0 1.33301 -1.83301 6.5 -5.5 15.5s-21.5 59.5 -53.5 151.5c-42 119.333 -76.667 212.333 -104 279c-39.333 93.333 -75.333 162.666 -108 207.999c2 3.33301 6.33301 5 13 5c12 0 23.667 -5.33301 35 -16
s29.333 -39.667 54 -87c22.667 -43.333 48.334 -107.666 77.001 -192.999c22.667 -74 58.334 -184.333 107.001 -331c0.666992 -2.66699 1 -5.33398 1 -8.00098z" />
    <glyph glyph-name="bracketright" unicode="]" horiz-adv-x="458" 
d="M595 562c0 -14.667 -7.66602 -40.998 -22.999 -78.998c-28.667 -72.667 -76.334 -159.334 -143.001 -260.001c-74.667 -112 -138.334 -185.667 -191.001 -221c-16 -10.667 -36 -16 -60 -16c-62 0 -93 5.66699 -93 17c0 8 2.33301 12 7 12c7.33301 0 18.333 -0.5 33 -1.5
s25.334 -1.5 32.001 -1.5c22.667 0 38 2 46 6c12 5.33301 30.667 21.666 56 48.999c50 52.667 107.333 127.667 172 225c77.333 116.667 116 197.667 116 243c0 26 -19.333 39 -58 39c-4 0 -10.167 -0.333008 -18.5 -1s-14.5 -1 -18.5 -1c-14.667 0 -22 3.33301 -22 10
s13.333 10 40 10c83.333 0 125 -10 125 -30z" />
    <glyph glyph-name="asciicircum" unicode="^" horiz-adv-x="305" 
d="M374 273l-6 -6c-11.333 0.666992 -28.166 10 -50.499 28s-36.833 32.667 -43.5 44c-72.667 -46 -112.334 -69 -119.001 -69c-2 0 -3 2 -3 6c0 5.33301 21.667 22 65 50s69.666 43 78.999 45l5 -2c12.667 -24 36.334 -53.333 71.001 -88z" />
    <glyph glyph-name="underscore" unicode="_" horiz-adv-x="251" 
d="M259 0l-2 -10l-1 -2l-258 2l2 10l2 2h256z" />
    <glyph glyph-name="grave" unicode="`" horiz-adv-x="216" 
d="M287 314c-4.66699 0 -16.333 7.66602 -35 22.999l-36 29c-18.667 14 -28 23.333 -28 28c0 6 3.66699 11.5 11 16.5s14.333 7.5 21 7.5c11.333 0 17 -4.33301 17 -13c0.666992 -19.333 9.66699 -37.666 27 -54.999s26 -28 26 -32c0 -2.66699 -1 -4 -3 -4z" />
    <glyph glyph-name="a" unicode="a" horiz-adv-x="319" 
d="M238 -8c-30 0 -45 21.667 -45 65c0 27.333 4.33301 60.333 13 99c-18 -30 -45 -62.667 -81 -98c-43.333 -43.333 -77.666 -65 -102.999 -65c-12.667 0 -19 8.66699 -19 26c0 40.667 19 92 57 154c40.667 68 80 100.333 118 97c21.333 10.667 38 16 50 16
c4 0 17.667 -1.66699 41 -5c9.33301 4 17 6 23 6c7.33301 0 11 -3.33301 11 -10c0 -6 -3.66699 -17.333 -11 -34s-13 -25.667 -17 -27c-9.33301 -18 -17.5 -43.167 -24.5 -75.5s-10.5 -59.166 -10.5 -80.499c0 -25.333 7.33301 -38 22 -38c14 0 31 9 51 27s29.667 27 29 27
c1.33301 0 2 -0.666992 2 -2c0 -14.667 -16.667 -34.334 -50 -59.001c-20.667 -15.333 -39.334 -23 -56.001 -23zM240 258c-6 2.66699 -12.332 3.99805 -18.999 3.99805c-24.667 0 -47.334 -11.333 -68.001 -34c-18 -19.333 -36.667 -47.166 -56 -83.499
s-33.333 -68.833 -42 -97.5c-2 -5.33301 -3 -9.66602 -3 -12.999c0 -4.66699 1.66699 -7 5 -7c4.66699 0 12.334 4 23.001 12c35.333 25.333 66.666 58.333 93.999 99c14 22 36 62 66 120z" />
    <glyph glyph-name="b" unicode="b" horiz-adv-x="270" 
d="M84 114c94.667 120.667 161.331 180.998 199.998 180.998c14.667 0 22 -8 22 -24c0 -19.333 -7 -47 -21 -83c15.333 6.66699 24 10 26 10c2.66699 0 4 -1 4 -3c0 -4 -5 -8 -15 -12c-6.66699 -2 -13.667 -4.33301 -21 -7c-27.333 -64 -56.666 -110 -87.999 -138
c-8 -7.33301 -20 -14 -36 -20c-22 -8 -35 -13 -39 -15c-5.33301 -4 -10.833 -7.83301 -16.5 -11.5s-12.5 -5.5 -20.5 -5.5c-17.333 0 -31.666 4.33301 -42.999 13c-4 -5.33301 -7 -8 -9 -8c-5.33301 0 -10 2.66699 -14 8s-6 11 -6 17c0 12.667 20 62 60 148
c62 136.667 121 253.334 177 350.001c-2 4.66699 -3 9.33398 -3 14.001c0 3.33301 0.666992 6 2 8c16.667 28 29 47 37 57c6.66699 8 20.667 12 42 12c17.333 0 26 -3.33301 26 -10l-100 -151c-56 -92 -110.667 -202 -164 -330zM254.997 244.998
c0 6.66699 -2.33496 10 -7.00195 10c-14.667 0 -42 -22.333 -82 -67c-33.333 -37.333 -57.666 -68 -72.999 -92c34.667 26 80.334 51.667 137.001 77c16.667 36 25 60 25 72zM224.995 159.998c-30 -12.667 -61.667 -31.334 -95 -56.001c-38 -27.333 -64 -52.666 -78 -75.999
c10 -13.333 22 -20 36 -20c43.333 0 89 50.667 137 152z" />
    <glyph glyph-name="c" unicode="c" horiz-adv-x="233" 
d="M279 259c0 -14 -5.33105 -28 -15.998 -42s-22.334 -21 -35.001 -21c-2.66699 0 -4 1 -4 3c0 1.33301 0.666992 3 2 5c5.33301 11.333 8 24.666 8 39.999c0 19.333 -5.66699 29 -17 29c-10.667 0 -23.334 -5.33301 -38.001 -16c-20 -14.667 -43.667 -46.334 -71 -95.001
c-28 -50.667 -42 -87.667 -42 -111s12 -35 36 -35c20 0 42 8 66 24c16.667 11.333 34.667 26.666 54 45.999l24 24c2.66699 0 4 -1.33301 4 -4c0 -15.333 -12.333 -32.666 -37 -51.999c-53.333 -40.667 -109.333 -61 -168 -61c-16.667 0 -27 3.33301 -31 10
c-3.33301 4.66699 -5 13.334 -5 26.001c0 10.667 1.33301 21.334 4 32.001c17.333 61.333 44 113 80 155c44 51.333 94 77 150 77c24 0 36 -11.333 36 -34z" />
    <glyph glyph-name="d" unicode="d" horiz-adv-x="319" 
d="M300 267c0 -7.33301 -7.99707 -24.3311 -23.9971 -50.998c0 -0.666992 -2.33301 -7 -7 -19c-18.667 -50.667 -28 -92.667 -28 -126c0 -32.667 8 -49 24 -49c13.333 0 30.166 9 50.499 27s30.166 27 29.499 27c0.666992 0 1 -0.666992 1 -2
c0 -14.667 -16.333 -34.334 -49 -59.001c-21.333 -15.333 -40.333 -23 -57 -23c-29.333 0 -44 21.667 -44 65c0 15.333 2.5 35 7.5 59s10.5 41.667 16.5 53c-11.333 -20.667 -26.333 -42 -45 -64c-20.667 -24 -43.667 -46.667 -69 -68c-34.667 -29.333 -61.667 -44 -81 -44
c-12.667 0 -19 8.66699 -19 26c0 40.667 18.667 92 56 154c41.333 68 80.666 100.333 117.999 97c21.333 10.667 37.666 16 48.999 16c-4 0 10.333 -1.66699 43 -5l62 118c24 46 46.667 84.333 68 115c-2 4.66699 -3 9.33398 -3 14.001c0 3.33301 0.666992 6 2 8
c16 28 28.333 47 37 57c6.66699 8 20.667 12 42 12c17.333 0 26 -3.33301 26 -10c0 1.33301 -21.333 -29.334 -64 -92.001c-59.333 -86.667 -106.666 -165.334 -141.999 -236.001zM244.003 255.002c-7.33301 4 -15.332 5.99805 -23.999 5.99805
c-22.667 0 -44.334 -11 -65.001 -33c-18 -19.333 -36.5 -47.166 -55.5 -83.499s-33.167 -68.833 -42.5 -97.5c-1.33301 -5.33301 -2 -9.66602 -2 -12.999c0 -4.66699 1.66699 -7 5 -7c4.66699 0 12 4 22 12c63.333 45.333 117.333 117.333 162 216z" />
    <glyph glyph-name="e" unicode="e" horiz-adv-x="223" 
d="M261 162c0 -2.66699 -4.66797 -4.00195 -14.001 -4.00195c-4 0 -10 0.5 -18 1.5s-14 1.5 -18 1.5c-30 0 -67.667 -4.66699 -113 -14c-23.333 -42.667 -35 -74.667 -35 -96c0 -23.333 12 -35 36 -35c20 0 42.333 8 67 24c16.667 11.333 34.334 26.666 53.001 45.999
c16 16 24.333 24 25 24c2 0 3 -1.33301 3 -4c0 -15.333 -12.333 -32.666 -37 -51.999c-53.333 -40.667 -109.333 -61 -168 -61c-16 0 -26.333 3.33301 -31 10c-3.33301 4.66699 -5 13.334 -5 26.001c0 24.667 11 60.334 33 107.001c-0.666992 1.33301 -1 2.33301 -1 3
s3 5.33398 9 14.001l17 31c29.333 48 61.666 76.667 96.999 86c8.66699 2 15.667 3 21 3c4.66699 0 7 -1 7 -3c0 -2.66699 -4.33301 -7 -13 -13c-17.333 -12.667 -38.666 -40.667 -63.999 -84c34.667 6 64.667 8 90 6c20 28.667 30 56.334 30 83.001
c0 7.33301 -0.833008 11.666 -2.5 12.999s-5.66699 2 -12 2s-9.5 1.66699 -9.5 5s5.33301 6.33301 16 9s19 4 25 4c18 0 27 -8.33301 27 -25c0 -14 -6 -31.333 -18 -52s-24 -34.334 -36 -41.001c26 -4.66699 39 -9.66699 39 -15z" />
    <glyph glyph-name="f" unicode="f" horiz-adv-x="247" 
d="M121 183c12 0.666992 23.998 1.00098 35.998 1.00098c50.667 0 88.334 -5 113.001 -15c6 -2.66699 9 -5 9 -7c0 -2.66699 -5 -4 -15 -4c-3.33301 0 -8.16602 0.333008 -14.499 1s-11.166 1 -14.499 1c-32.667 0 -77.667 -5.66699 -135 -17l-1 -3
c56.667 -96 85 -186.667 85 -272c0 -26 -3 -49 -9 -69c-9.33301 -31.333 -32.833 -60 -70.5 -86s-73.167 -39 -106.5 -39c-48 0 -72 28.333 -72 85c0 66 43.667 190.667 131 374l-19 -5c-2 2 -3 5 -3 9c0 15.333 6.33301 28 19 38c-4 6.66699 -6 10.667 -6 12
c0 4 2.66699 6 8 6c4 0 9.66699 -4.66699 17 -14l7 1c62.667 127.333 126.334 238.666 191.001 333.999c-1.33301 4.66699 -2 9.33398 -2 14.001c0 3.33301 0.333008 6 1 8c17.333 29.333 29.666 48.166 36.999 56.499s21.666 12.5 42.999 12.5c17.333 0 26 -3.33301 26 -10
c0 2 -23.333 -31.333 -70 -100c-68 -100.667 -129.667 -204.667 -185 -312zM147.998 -127.999c0 66 -20.667 146.001 -62 240.001c-71.333 -148.667 -107 -264.334 -107 -347.001c0 -46.667 13.333 -70 40 -70c20 0 43 13 69 39c22.667 22.667 38.667 45.334 48 68.001
c8 19.333 12 42.666 12 69.999z" />
    <glyph glyph-name="g" unicode="g" horiz-adv-x="258" 
d="M317 291l-12.002 -20.999c-8.66699 -14.667 -24 -48.667 -46 -102l-80 -203c6.66699 0.666992 15.667 1 27 1c16 0 24 -3.33301 24 -10c0 -2.66699 -17.667 -4 -53 -4h-3c-32 -76.667 -72.333 -140.334 -121 -191.001c-61.333 -63.333 -127.666 -95 -198.999 -95
c-31.333 0 -59 7.33301 -83 22c-28 16.667 -42 40 -42 70c0 58.667 54 110.334 162 155.001c66.667 28 149.667 45 249 51c13.333 33.333 27.333 70.666 42 111.999c6.66699 17.333 15.667 44 27 80c-18 -30 -45 -62.667 -81 -98c-43.333 -43.333 -77.666 -65 -102.999 -65
c-12.667 0 -19 8.66699 -19 26c0 40.667 19 92 57 154c40.667 68 79.667 100.333 117 97c22 10.667 38.667 16 50 16c6 0 17 -1 33 -3l1 3c10.667 10 24 15 40 15c9.33301 0 14 -2.66699 14 -8zM242.998 258.001c-6 2.66699 -12.668 3.99805 -20.001 3.99805
c-24 0 -46.333 -11.333 -67 -34c-18 -19.333 -36.667 -47.166 -56 -83.499s-33.333 -68.833 -42 -97.5c-2 -5.33301 -3 -9.66602 -3 -12.999c0 -4.66699 1.66699 -7 5 -7c4.66699 0 12.334 4 23.001 12c35.333 25.333 66.333 58.333 93 99c14.667 22 37 62 67 120z
M133.997 -49.001c-93.333 -5.33301 -171.666 -24.334 -234.999 -57.001c-86.667 -44 -130 -91 -130 -141c0 -21.333 8.66699 -38 26 -50c14.667 -10.667 33 -16 55 -16c58 0 115.333 31.333 172 94c43.333 46.667 80.666 103.334 111.999 170.001z" />
    <glyph glyph-name="h" unicode="h" horiz-adv-x="307" 
d="M241 0c-33.333 0 -50.002 21.9951 -50.002 65.9951c0 38.667 12 89.667 36 153l-168 -189c0 -5.33301 -1.66699 -13.666 -5 -24.999c-2 -3.33301 -11.333 -8.66602 -28 -15.999s-27.334 -11 -32.001 -11c-0.666992 0 -1 0.333008 -1 1c0 4 5.66699 18.333 17 43l107 252
c42.667 97.333 85.334 177.333 128.001 240c-1.33301 4.66699 -2 9.33398 -2 14.001c0 3.33301 0.333008 6 1 8c16.667 28 29 47 37 57c7.33301 8 21.666 12 42.999 12c17.333 0 26 -3.33301 26 -10c0 2.66699 -21.667 -28.666 -65 -93.999
c-90 -134.667 -162 -277.334 -216 -428.001c20.667 20 49.334 50.833 86.001 92.5s64.334 71.5 83.001 89.5c1.33301 1.33301 4.33301 2.66602 9 3.99902c10.667 8.66699 19 13 25 13v-1h1c1.33301 0.666992 3 1 5 1c4.66699 0 7 -5.33301 7 -16
c0 -8 -2.33301 -18.667 -7 -32s-9.66699 -21.666 -15 -24.999l-18 -64c-6 -23.333 -9 -45.666 -9 -66.999c0 -28 7 -42 21 -42c14.667 0 34.167 10.167 58.5 30.5l36.5 30.5c1.33301 0 2 -1 2 -3c0 -3.33301 -2 -7.66602 -6 -12.999c-12 -18.667 -27.333 -34.667 -46 -48
c-21.333 -15.333 -41.666 -23 -60.999 -23z" />
    <glyph glyph-name="i" unicode="i" horiz-adv-x="142" 
d="M202 378c3.33301 0 5 -1.66895 5 -5.00195c0 -10 -8.83301 -20.667 -26.5 -32s-32.167 -17 -43.5 -17c-2.66699 0 -4 5.66699 -4 17c0 14.667 2 22.334 6 23.001s15 3.33398 33 8.00098c14.667 4 24.667 6 30 6zM56 -0.00195312
c-32.667 0 -48.999 16.6689 -48.999 50.002c0 23.333 7 51.333 21 84c7.33301 17.333 21.333 45.666 42 84.999c4 8.66699 10.333 21 19 37c7.33301 11.333 21 17 41 17l-1 -1l1 -1c1.33301 1.33301 3 2 5 2c4 0 6 -3.33301 6 -10c0 -8 -3.83301 -19.833 -11.5 -35.5
s-14.834 -24.834 -21.501 -27.501l-38 -71c-16 -30.667 -24 -55.667 -24 -75c0 -18.667 10 -28 30 -28c14.667 0 35.667 10.167 63 30.5s41.333 30.5 42 30.5s1 -0.333008 1 -1c0 -3.33301 -2.66699 -8.33301 -8 -15c-14 -18 -31.667 -33.667 -53 -47
c-24 -16 -45.667 -24 -65 -24z" />
    <glyph glyph-name="j" unicode="j" horiz-adv-x="151" 
d="M232 389c3.33301 0 5.00098 -1.66699 5.00098 -5c0 -10 -8.83301 -20.667 -26.5 -32s-31.834 -17 -42.501 -17c-3.33301 0 -5 5.33301 -5 16c0 15.333 2.33301 23.333 7 24l32 8c14.667 4 24.667 6 30 6zM182.001 261c-11.333 -17.333 -29.998 -57.002 -55.998 -119.002
l-71 -177c6.66699 0.666992 15.667 1 27 1c16 0 24 -3.33301 24 -10c0 -2.66699 -18 -4 -54 -4h-3c-24.667 -59.333 -45.334 -104.333 -62.001 -135c-56.667 -100.667 -134.334 -151 -233.001 -151c-34 0 -64.667 7.33301 -92 22c-33.333 18.667 -50 43.667 -50 75
c0 54.667 54 104.667 162 150c68 28.667 148.333 45.667 241 51c10.667 20 29 64 55 132c11.333 26.667 26 66.334 44 119.001c0.666992 6.66699 1.5 13.334 2.5 20.001s4.83301 13.667 11.5 21c10 10 23.333 15 40 15c9.33301 0 14 -2.33301 14 -7v-3zM9.00293 -49.002
c-86.667 -5.33301 -161.999 -24.332 -225.999 -56.999c-86.667 -44 -130 -90 -130 -138c0 -22.667 10 -40.334 30 -53.001c16.667 -11.333 36.667 -17 60 -17c82.667 0 154 53.667 214 161c13.333 24 30.666 58.667 51.999 104z" />
    <glyph glyph-name="k" unicode="k" horiz-adv-x="256" 
d="M126 159l-0.000976562 -3.00195c74 69.333 128.667 113.333 164 132c5.33301 2.66699 11.333 4 18 4c11.333 0 17 -3 17 -9c0 -8.66699 -15 -21.667 -45 -39c-60 -35.333 -109.667 -70.333 -149 -105c6.66699 -22 16.334 -44.333 29.001 -67
c18 -31.333 34.333 -47 49 -47c13.333 0 26.5 11.5 39.5 34.5s19.833 34.5 20.5 34.5c2 0 3 -2.33301 3 -7c0 -3.33301 -0.666992 -6.33301 -2 -9c-9.33301 -26.667 -17 -44.667 -23 -54c-12.667 -18.667 -29 -28 -49 -28c-21.333 0 -41.666 15 -60.999 45
c-16 24.667 -26 49.667 -30 75c-17.333 -20 -33.333 -42 -48 -66c0.666992 -2 1 -4 1 -6c0 -13.333 -6.66699 -26.5 -20 -39.5s-27 -19.5 -41 -19.5c-4.66699 0 -6.66699 1.66699 -6 5c4.66699 6.66699 11.334 17 20.001 31l71 139c-4 17.333 -6 27.666 -6 30.999
c0 11.333 10.333 20 31 26c53.333 121.333 104.666 220.333 153.999 297c-2 4.66699 -3 9.33398 -3 14.001c0 2.66699 0.666992 5.33398 2 8.00098c16 27.333 28.333 46.333 37 57c7.33301 8 21.666 12 42.999 12c17.333 0 26 -3.33301 26 -10
c0 0.666992 -14.667 -20.666 -44 -63.999c-48.667 -73.333 -97.667 -156 -147 -248c-34.667 -64.667 -51.667 -106 -51 -124z" />
    <glyph glyph-name="l" unicode="l" horiz-adv-x="177" 
d="M69 50c0 -12.667 5.00098 -19.001 15.001 -19.001c14 0 33.833 9.83301 59.5 29.5l38.5 29.5c1.33301 0 2 -1.33301 2 -4c0 -6 -3.33301 -13 -10 -21c-12 -14 -28.833 -27.333 -50.5 -40s-41.5 -21 -59.5 -25c-7.33301 -1.33301 -13.666 -2 -18.999 -2
c-18.667 0 -28 9.66699 -28 29c0 12.667 4.33301 31 13 55c49.333 129.333 127.666 273.333 234.999 432c-1.33301 4.66699 -2 9.33398 -2 14.001c0 3.33301 0.333008 6 1 8c17.333 29.333 29.666 48.166 36.999 56.499s21.666 12.5 42.999 12.5
c17.333 0 26 -3.33301 26 -10c0 2.66699 -22 -29.333 -66 -96c-71.333 -107.333 -139.666 -227.666 -204.999 -360.999c-20 -40.667 -30 -70 -30 -88z" />
    <glyph glyph-name="m" unicode="m" horiz-adv-x="472" 
d="M512 87c1.33301 0 2.00098 -0.670898 2.00098 -2.00391c0 -3.33301 -2 -8 -6 -14c-11.333 -18 -26.666 -34 -45.999 -48c-21.333 -15.333 -41.666 -23 -60.999 -23c-39.333 0 -59 23.667 -59 71c0 28.667 9.66699 69.334 29 122.001
c-25.333 -32 -62.666 -71 -111.999 -117c-5.33301 -17.333 -14 -32.666 -26 -45.999c-14.667 -16 -30 -24 -46 -24c-5.33301 0 -8 1.66699 -8 5c0 0.666992 0.333008 1.33398 1 2.00098l43 103c19.333 48.667 29 82.667 29 102c0 7.33301 -2 11 -6 11
c-12 0 -39.333 -24.667 -82 -74c-31.333 -37.333 -56 -69 -74 -95c-10.667 -15.333 -20.334 -31.333 -29.001 -48c-2 -5.33301 -9.66699 -11.166 -23 -17.499s-23 -9.5 -29 -9.5c-4.66699 0 -6.66699 1.66699 -6 5c19.333 32.667 48 96.667 86 192l11 29
c0 1.33301 -1.83301 2 -5.5 2s-5.5 1 -5.5 3l37 61c2 4 7.66699 8 17 12s16.666 6 21.999 6c6.66699 0 10 -3 10 -9c0 -2 -10.667 -28 -32 -78c-22.667 -53.333 -35.334 -85 -38.001 -95c22 26.667 52.333 58 91 94c49.333 46.667 81.666 70 96.999 70
c9.33301 0 14 -7.33301 14 -22c0 -32 -15.667 -83 -47 -153c59.333 52 101 95.667 125 131c4.66699 6.66699 11 10 19 10c14 0 21 -6.66699 21 -20c0 -7.33301 -2.5 -17.666 -7.5 -30.999s-10.167 -21.333 -15.5 -24c-8.66699 -32.667 -13 -62.334 -13 -89.001
c0 -35.333 9.33301 -53 28 -53c14.667 0 34.167 10.167 58.5 30.5z" />
    <glyph glyph-name="n" unicode="n" horiz-adv-x="356" 
d="M397 87c0.666992 0 0.999023 -0.669922 0.999023 -2.00293c0 -3.33301 -1.66699 -8 -5 -14c-11.333 -18 -26.666 -34 -45.999 -48c-22 -15.333 -42.333 -23 -61 -23c-41.333 0 -62 22.333 -62 67c0 21.333 8.66699 60 26 116c6 19.333 9 32 9 38
c0 5.33301 -1.66699 8 -5 8c-4.66699 0 -12.667 -4.66699 -24 -14c-25.333 -21.333 -54.833 -53.166 -88.5 -95.499s-57.834 -78.166 -72.501 -107.499c-2.66699 -5.33301 -10.667 -11.166 -24 -17.499s-22.666 -9.5 -27.999 -9.5c-4.66699 0 -6.66699 1.66699 -6 5
c31.333 53.333 63.333 119.666 96 198.999l8 22c0 1.33301 -1.66699 2 -5 2s-5 1 -5 3c0 0.666992 12 21 36 61c2.66699 4 8.66699 8 18 12s16.666 6 21.999 6c6.66699 0 10 -3 10 -9s-26.333 -63.667 -79 -173c22.667 26.667 53.334 58.334 92.001 95.001
c50 46.667 82.667 70 98 70c7.33301 0 11 -5.66699 11 -17c0 -10.667 -3.33301 -28.667 -10 -54c-20.667 -78 -31 -125 -31 -141c0 -26.667 9.66699 -40 29 -40c14.667 0 34.167 10.167 58.5 30.5s36.833 30.5 37.5 30.5z" />
    <glyph glyph-name="o" unicode="o" horiz-adv-x="255" 
d="M219 307c40.667 0 61.001 -17.666 61.001 -52.999c0 -31.333 -15.667 -72.333 -47 -123c-28.667 -46.667 -57 -81.667 -85 -105c10 -12 23 -18 39 -18c5.33301 0 8 -1.33301 8 -4c0 -4 -3.33301 -6 -10 -6c-16.667 0 -31.667 7.66699 -45 23
c-26 -19.333 -53.667 -29 -83 -29c-31.333 0 -47 14 -47 42s11.333 63.667 34 107c20 35.333 41.667 66.666 65 93.999v2c-0.666992 21.333 12.666 39 39.999 53c22.667 11.333 46 17 70 17zM234.001 246.001c0 25.333 -8.66699 38.001 -26 38.001
c-16 0 -29 -9.66699 -39 -29c4.66699 -6 7 -11.667 7 -17c0 -2.66699 -0.666992 -4.33398 -2 -5.00098c-19.333 -11.333 -35 -23 -47 -35c-5.33301 -18 -8 -39 -8 -63c0 -39.333 6.66699 -71.333 20 -96c22 20.667 43.333 53 64 97s31 80.667 31 110zM131.001 32.002
c-19.333 30.667 -29.333 70.667 -30 120c-23.333 -37.333 -35 -68 -35 -92c0 -28.667 10.333 -43 31 -43c10.667 0 22 5 34 15z" />
    <glyph glyph-name="p" unicode="p" horiz-adv-x="280" 
d="M124 -6c-34 0 -58.999 5.66797 -74.999 17.001c-57.333 -117.333 -86 -203 -86 -257c0 -32.667 8 -49 24 -49c13.333 0 30.166 9 50.499 27s30.166 27 29.499 27c0.666992 0 1 -0.666992 1 -2c0 -14.667 -16.333 -34.334 -49 -59.001
c-21.333 -15.333 -40.333 -23 -57 -23c-29.333 0 -44 21.667 -44 65c0 54 37.333 152.667 112 296c-1.33301 4.66699 -2 9.66699 -2 15c0 25.333 13.333 43.666 40 54.999c30.667 54 66.667 110.667 108 170c-17.333 26.667 -33 44.334 -47 53.001c-2 1.33301 -3 3 -3 5
c0 4.66699 4.33301 10.667 13 18s15.667 11 21 11c6.66699 0 21 -16 43 -48c24 34 40 51 48 51c2.66699 0 4 -1.66699 4 -5c0 -1.33301 -13.333 -22 -40 -62c41.333 -64 62 -117.333 62 -160c0 -35.333 -16.667 -68.333 -50 -99s-67.666 -46 -102.999 -46zM238.001 109.001
c0 42.667 -16.666 92 -49.999 148c-27.333 -42.667 -54 -87.667 -80 -135c4.66699 2.66699 8.66699 4 12 4s5 -1.33301 5 -4c0 -6 -10.333 -14.333 -31 -25l-29 -55c11.333 -18.667 34.666 -28 69.999 -28c30 0 54.667 8.5 74 25.5s29 40.167 29 69.5z" />
    <glyph glyph-name="q" unicode="q" horiz-adv-x="261" 
d="M183 70c16.667 -26.667 30.501 -59.501 41.501 -98.501s16.5 -74.5 16.5 -106.5c0 -72 -24.333 -127 -73 -165c-27.333 -21.333 -52 -32 -74 -32c-32.667 0 -49 23 -49 69c0 70.667 40 192 120 364c-19.333 -22.667 -41.333 -44.334 -66 -65.001
c-34 -28.667 -60.333 -43 -79 -43c-12 0 -18 8.66699 -18 26c0 40.667 18.667 92 56 154c41.333 68 80.666 100.333 117.999 97c22 10.667 38.667 16 50 16c5.33301 0 16.333 -1 33 -3c10.667 6.66699 22.667 10 36 10c12 0 18 -2.66699 18 -8
c-0.666992 -1.33301 -1 -2.66602 -1 -3.99902c-14.667 -19.333 -35.667 -48.666 -63 -87.999c-21.333 -33.333 -43.333 -74.333 -66 -123zM238.001 257.999c-6 2.66699 -12.332 3.99805 -18.999 3.99805c-24.667 0 -47.334 -11.333 -68.001 -34
c-18 -19.333 -36.667 -47.166 -56 -83.499s-33.333 -68.833 -42 -97.5c-2 -5.33301 -3 -9.66602 -3 -12.999c0 -4.66699 2 -7 6 -7s11.333 4 22 12c50.667 36.667 104 109.667 160 219zM173.002 53.9971c-50 -136 -75 -242.333 -75 -319c0 -27.333 7 -41 21 -41
c17.333 0 35.333 16 54 48c14.667 24.667 25 48 31 70s9 43 9 63c0 53.333 -13.333 113 -40 179z" />
    <glyph glyph-name="r" unicode="r" horiz-adv-x="287" 
d="M325 247c0 -12 -3.50098 -23.667 -10.501 -35s-16.5 -17 -28.5 -17c-5.33301 0 -8 2 -8 6c0 2 0.333008 4.66699 1 8s1 6 1 8c0 12.667 -4.33301 19 -13 19c-15.333 0 -42 -18.667 -80 -56c-31.333 -29.333 -54 -53.833 -68 -73.5s-25 -42.167 -33 -67.5
c-1.33301 -6 -4 -14 -8 -24c-2.66699 -5.33301 -12 -11.666 -28 -18.999s-27 -11 -33 -11c-4.66699 0 -6.66699 1.66699 -6 5c19.333 32.667 47.666 96.667 84.999 192l11 29c0 1.33301 -1.66699 2 -5 2s-5 1 -5 3c0 -0.666992 12 19.666 36 60.999c2.66699 4 8.5 8 17.5 12
s16.167 6 21.5 6c7.33301 0 11 -3 11 -9c0 -2.66699 -1 -6.33398 -3 -11.001c-15.333 -31.333 -35.666 -79.666 -60.999 -144.999c38.667 46 83.334 89.333 134.001 130c18.667 14.667 34.667 22 48 22c16 0 24 -11.667 24 -35z" />
    <glyph glyph-name="s" unicode="s" horiz-adv-x="227" 
d="M216 204c-0.666992 0 -1.00098 0.668945 -1.00098 2.00195c0 3.33301 1.16699 8.5 3.5 15.5s3.5 12.5 3.5 16.5c0 16.667 -11.333 25 -34 25c-20 0 -37.667 -6 -53 -18c-17.333 -12 -26 -27.667 -26 -47c0 -22.667 14.667 -44.334 44 -65.001s44 -39.334 44 -56.001
c0 -11.333 -4.66699 -23.333 -14 -36c22.667 1.33301 34.334 2 35.001 2c4 0 6 -1 6 -3c0 -4.66699 -3.66699 -7.66699 -11 -9c-9.33301 -1.33301 -23 -3.66602 -41 -6.99902c-34 -31.333 -81.667 -47 -143 -47c-21.333 0 -32 3.66699 -32 11c0 4.66699 6.33301 11 19 19
c30 16.667 77.667 28 143 34c1.33301 2 2 4.66699 2 8c0 12.667 -16.5 30.834 -49.5 54.501s-49.5 46.5 -49.5 68.5c0 7.33301 2 14.666 6 21.999c26.667 49.333 76 81.666 148 96.999c6 1.33301 11.333 2 16 2c22 0 33 -10 33 -30c0 -11.333 -5.33301 -24 -16 -38
s-21.667 -21 -33 -21z" />
    <glyph glyph-name="t" unicode="t" horiz-adv-x="177" 
d="M154 260c-54.667 -102.667 -81.999 -170.999 -81.999 -204.999c0 -19.333 8.33301 -29 25 -29c14.667 0 35.834 10.167 63.501 30.5l41.5 30.5c0.666992 0 1 -0.333008 1 -1c0 -3.33301 -2.33301 -8.33301 -7 -15c-14.667 -18 -32.334 -33.667 -53.001 -47
c-24.667 -16 -46.667 -24 -66 -24c-32.667 0 -49 16.667 -49 50c0 25.333 10 60.333 30 105l51 100c-44.667 -5.33301 -66 -8 -64 -8c-7.33301 0 -11 2.33301 -11 7c0 3.33301 2.5 6.5 7.5 9.5s14.167 8.16699 27.5 15.5c24.667 15.333 49.334 35.666 74.001 60.999
c3.33301 7.33301 6.16602 12.666 8.49902 15.999s6.5 6 12.5 8c31.333 10.667 46.333 16 45 16c3.33301 0 5 -1.33301 5 -4c0 -2 -16 -32.667 -48 -92c66 0.666992 99 -3.66602 99 -12.999c0 -4 -10.833 -6 -32.5 -6s-47.834 -1.66699 -78.501 -5zM130.001 310.001
c-10 -6.66699 -24.333 -17.333 -43 -32l34 4z" />
    <glyph glyph-name="u" unicode="u" horiz-adv-x="321" 
d="M270 -8c-29.333 0 -43.9971 21.6641 -43.9971 64.9971c0 14.667 2 34 6 58c4.66699 28.667 7.33398 48 8.00098 58c-88 -112.667 -148.333 -169 -181 -169c-24.667 0 -37 13 -37 39c0 22 7.33301 49 22 81c2 4 15.333 29 40 75h-2c-4 0 -6 1.66699 -6 5
c0 1.33301 0.333008 3 1 5c19.333 34.667 30.333 53.334 33 56.001c12.667 14 32.667 21 60 21c3.33301 0 5 -2 5 -6c0 -5.33301 -17.667 -36 -53 -92c-10 -16 -20.667 -37.667 -32 -65c-12.667 -31.333 -19 -53.666 -19 -66.999c0 -9.33301 3 -14 9 -14
c9.33301 0 23.666 8.33301 42.999 25c45.333 38 89.333 91 132 159l3 11c5.33301 20 13.666 33.667 24.999 41s26 11 44 11c10.667 0 16 -2.66699 16 -8c0 -4.66699 -5.66699 -13.667 -17 -27c-13.333 -15.333 -21 -24.666 -23 -27.999c-8 -15.333 -15.333 -41 -22 -77
c-6 -33.333 -9 -60.666 -9 -81.999c0 -30 7.66699 -45 23 -45c13.333 0 30.166 9 50.499 27s30.166 27 29.499 27c0.666992 0 1 -0.666992 1 -2c0 -14.667 -16.333 -34.334 -49 -59.001c-21.333 -15.333 -40.333 -23 -57 -23z" />
    <glyph glyph-name="v" unicode="v" horiz-adv-x="221" 
d="M28 -13c-3.33301 0.666992 -4.99902 1.33301 -4.99902 2c0 -3.33301 4 9.33398 12 38.001c12 42.667 18 91.667 18 147c0 21.333 -1 42.5 -3 63.5s-3 29.167 -3 24.5c0 4.66699 5.66699 7 17 7c20.667 0 32.667 -3.66699 36 -11c2.66699 -4 4 -19.333 4 -46
c0 -42.667 -5 -85 -15 -127c45.333 68.667 79.666 117 102.999 145c54 66 98.333 99 133 99c10.667 0 16 -3.66699 16 -11s-4 -12 -12 -14c-2.66699 0 -7 -0.666992 -13 -2c-14.667 -4 -32 -15 -52 -33c-45.333 -39.333 -99.333 -104.333 -162 -195
c-6.66699 -8.66699 -15.667 -22.334 -27 -41.001c-2 -4.66699 -4.66699 -11.667 -8 -21c-8 -16.667 -21 -25 -39 -25z" />
    <glyph glyph-name="w" unicode="w" horiz-adv-x="443" 
d="M475 274c0 -22 -5 -46.001 -15 -72.001c-16.667 -40 -43.334 -81.667 -80.001 -125c-44.667 -51.333 -84 -77 -118 -77c-32 0 -48 21.333 -48 64c0 14 1.66699 32 5 54c4 28.667 6.33301 47 7 55c-92 -116.667 -155.333 -175 -190 -175c-20.667 0 -31 11.333 -31 34
c0 24.667 7.33301 53.667 22 87c4 8 18.333 34.667 43 80h-3c-4 0 -6 1.66699 -6 5c0 2 0.666992 3.66699 2 5c19.333 34.667 30 53.334 32 56.001c12.667 14 32.667 21 60 21c4 0 6 -2 6 -6c0 -5.33301 -17.667 -36 -53 -92c-10.667 -16.667 -21.667 -38.667 -33 -66
c-13.333 -32 -20 -54.667 -20 -68c0 -9.33301 3.33301 -14 10 -14c8 0 22 8 42 24c48 40.667 92.667 94.667 134 162l3 11c5.33301 20 13.5 33.667 24.5 41s25.833 11 44.5 11c10 0 15 -2.66699 15 -8c0 -4 -5.66699 -13 -17 -27c-13.333 -16 -20.666 -25.333 -21.999 -28
c-8 -14 -15 -38 -21 -72c-5.33301 -30 -8 -55.333 -8 -76c0 -34.667 8.33301 -52 25 -52c22.667 0 50 21.333 82 64c24.667 34 43 66.167 55 96.5s18 57.833 18 82.5c0 20 -4.66699 38.333 -14 55c-2 4 -3 7 -3 9c0 4.66699 3 7 9 7c28.667 0 43 -22 43 -66z" />
    <glyph glyph-name="x" unicode="x" horiz-adv-x="304" 
d="M365 312c4 0 5.99707 -2.33301 5.99707 -7c0 -5.33301 -2.16699 -11.833 -6.5 -19.5s-8.5 -12.334 -12.5 -14.001s-7.66699 -2.5 -11 -2.5c-48.667 -32.667 -95.667 -69.667 -141 -111v-10c-1.33301 -104.667 11 -157 37 -157c16 0 32.667 14.667 50 44
c12.667 20.667 22.334 42.334 29.001 65.001c2.66699 8.66699 5 13 7 13c4 0 6 -7.33301 6 -22c0 -19.333 -5 -36 -15 -50c-36 -50.667 -68.667 -76 -98 -76c-8.66699 0 -16.667 2.66699 -24 8c-13.333 8 -23.666 31 -30.999 69
c-5.33301 29.333 -7.66602 56.333 -6.99902 81l-94 -87c-42 -40 -69 -71.333 -81 -94c-4 -6.66699 -7 -15.334 -9 -26.001c-1.33301 -7.33301 -4 -11 -8 -11c-5.33301 0 -8 5.33301 -8 16c0 23.333 19 54 57 92c20 20 49.333 47.667 88 83c12 10 29.667 26 53 48
c0.666992 10.667 1 18.334 1 23.001c0 15.333 -1.33301 29 -4 41c-1.33301 -1.33301 -3.33301 -2 -6 -2c-7.33301 0 -11 12.333 -11 37c0 12.667 2.66699 22.334 8 29.001c2 2 8.33301 6 19 12s17.334 9 20.001 9h1c9.33301 0 15.666 -17 18.999 -51
c2.66699 -25.333 3.33398 -46.333 2.00098 -63c8 9.33301 33.167 32.166 75.5 68.499s68.5 56.833 78.5 61.5c3.33301 2 6.66602 3 9.99902 3z" />
    <glyph glyph-name="y" unicode="y" horiz-adv-x="285" 
d="M197 -35l5.99805 -0.00292969c24.667 0.666992 37 -1.66602 37 -6.99902c0 -4 -16 -6 -48 -6c-32 -76.667 -72.333 -140.334 -121 -191.001c-61.333 -63.333 -127.666 -95 -198.999 -95c-31.333 0 -59 7.33301 -83 22c-28 16.667 -42 40 -42 70
c0 58.667 54 110.334 162 155.001c66.667 28 149.667 45 249 51l36 92c12.667 34.667 22.334 66.334 29.001 95.001l4 19c-43.333 -55.333 -71.666 -90 -84.999 -104c-43.333 -48 -77 -72 -101 -72c-19.333 0 -29 14.333 -29 43s17 75 51 139l-3 -1c-4 0 -6 2 -6 6
c0 1.33301 0.666992 3 2 5c19.333 34 30 52.333 32 55c12.667 14 32.667 21 60 21c4 0 6 -1.66699 6 -5c0 -6 -17.667 -37 -53 -93c-9.33301 -14.667 -19 -34 -29 -58c-11.333 -27.333 -17 -47 -17 -59c0 -9.33301 3.33301 -14 10 -14c19.333 0 51.666 26.333 96.999 79
c38 44.667 64.667 81.667 80 111c3.33301 10 7 20.167 11 30.5s10.333 18.5 19 24.5c13.333 8.66699 25.333 13 36 13c6.66699 0 10 -3.33301 10 -10c0 -7.33301 -3 -16.666 -9 -27.999c-6 -8.66699 -11.5 -17.5 -16.5 -26.5s-15.167 -37.167 -30.5 -84.5
c-13.333 -40 -35 -99 -65 -177zM151.998 -49.0029c-93.333 -5.33301 -171.333 -24.334 -234 -57.001c-87.333 -44 -131 -91 -131 -141c0 -21.333 8.66699 -38 26 -50c14.667 -10.667 33 -16 55 -16c58 0 115.667 31.333 173 94c42.667 46.667 79.667 103.334 111 170.001z
" />
    <glyph glyph-name="z" unicode="z" horiz-adv-x="300" 
d="M318 277c8 0 12 -2.99902 12 -8.99902c0 -8.66699 -6.5 -18.167 -19.5 -28.5s-24.5 -16.5 -34.5 -18.5c-69.333 -50.667 -133.333 -113 -192 -187c52 12 109.333 18 172 18c27.333 0 41 -5.66699 41 -17c0 -7.33301 -8.5 -21.333 -25.5 -42s-28.167 -31 -33.5 -31
c-2.66699 0 -4 1.66699 -4 5s5.16699 9.16602 15.5 17.499s15.5 14.833 15.5 19.5c0 7.33301 -13 11 -39 11c-36 0 -86.333 -3.33301 -151 -10c-12 -1.33301 -29.667 -3 -53 -5h-4c-1.33301 2 -2 5 -2 9c0 9.33301 2.16699 16.666 6.5 21.999s43.5 44 117.5 116
c66 64 99 99.667 99 107c0 0.666992 -0.333008 1 -1 1c-16.667 2.66699 -31.667 4 -45 4c-23.333 0 -43.833 -5.33301 -61.5 -16s-26.834 -16 -27.501 -16h-2c-1.33301 1.33301 -2 3 -2 5c0 10.667 12 24.334 36 41.001c11.333 2.66699 26 4 44 4h42
c18.667 -0.666992 32.334 -1 41.001 -1c6.66699 0 16 0.333008 28 1h27z" />
    <glyph glyph-name="braceleft" unicode="{" horiz-adv-x="304" 
d="M560 596c-2 -0.666992 -4.66992 -1.66406 -8.00293 -2.99707h-13c-17.333 -0.666992 -33.666 -3.33398 -48.999 -8.00098c-38 -12.667 -72.333 -43.334 -103 -92.001l-69 -124c-21.333 -32 -46.666 -59 -75.999 -81c-36 -26 -70 -38.333 -102 -37
c42 -3.33301 63 -22.666 63 -57.999c0 -22.667 -19 -66 -57 -130s-57 -107.333 -57 -130c0 -14 6 -24 18 -30c6.66699 -3.33301 18 -5.33301 34 -6c12.667 -0.666992 19.667 -2.33398 21 -5.00098c-2 -1.33301 -5.33301 -2 -10 -2c-59.333 0 -89 15.333 -89 46
c0 23.333 19.5 67.333 58.5 132s58.5 108.667 58.5 132c0 31.333 -25 47.333 -75 48l7 6c48 4.66699 83.667 15 107 31c32 22 62.667 62.333 92 121c34 67.333 60.667 110.666 80 129.999c39.333 41.333 94 62 164 62c2.66699 0 4.33398 -0.666992 5.00098 -2z" />
    <glyph glyph-name="bar" unicode="|" horiz-adv-x="206" 
d="M14 -96v0.999023c2 4 10 17.833 24 41.5l63 109.5c62 118 114.667 237.333 158 358c8.66699 24.667 20 61.667 34 111c0.666992 14 3.33398 32 8.00098 54c3.33301 6.66699 9.66602 10 18.999 10c14.667 0 22 -8.66699 22 -26c0 -12.667 -4.33301 -31 -13 -55
c-20.667 -59.333 -66 -163.333 -136 -312c-77.333 -163.333 -127.333 -255.333 -150 -276c-10 -9.33301 -19.667 -14.666 -29 -15.999z" />
    <glyph glyph-name="braceright" unicode="}" horiz-adv-x="399" 
d="M403 288c0 -24.667 23.665 -39.667 70.998 -45l-8 -7c-69.333 -0.666992 -127 -30.667 -173 -90l-111 -165c-50 -59.333 -115 -89 -195 -89c-2.66699 0 -4 0.666992 -4 2c4.66699 2 19.334 4 44.001 6s46 8 64 18c26 14.667 61.333 56.667 106 126
c46.667 72.667 85.334 120 116.001 142c46 32.667 91.333 51.334 136 56.001c-46 3.33301 -69 20.666 -69 51.999c0 22.667 22.333 66.5 67 131.5s67 109.167 67 132.5c0 12.667 -9 21.334 -27 26.001c-14 1.33301 -28 3 -42 5l-1 2l7 4c61.333 0 92 -13.333 92 -40
c0 -22.667 -23.333 -67.334 -70 -134.001s-70 -111 -70 -133z" />
    <glyph glyph-name="asciitilde" unicode="~" 
d="M415 373c-2 -5.33301 -11.5 -13.833 -28.5 -25.5s-28.167 -17.5 -33.5 -17.5c-12 0 -25.667 6.33301 -41 19s-28.333 19 -39 19c-8 0 -17.167 -3.16699 -27.5 -9.5s-16.833 -9.5 -19.5 -9.5l-1 3c2 5.33301 11.5 13.333 28.5 24s28.167 16 33.5 16
c8.66699 0 21 -5.83301 37 -17.5s31.333 -17.5 46 -17.5c7.33301 0 16 2.83301 26 8.5s16 8.5 18 8.5z" />
    <glyph glyph-name="nonbreakingspace" unicode="&#xa0;" horiz-adv-x="36" 
 />
    <glyph glyph-name="exclamdown" unicode="&#xa1;" horiz-adv-x="180" 
d="M207 280c0 -8.66699 -8.66699 -18.334 -26 -29.001s-31 -16 -41 -16l-2 1v0v1c-0.666992 2.66699 2.33301 9.33398 9 20.001c7.33301 13.333 11.333 20.333 12 21c8.66699 19.333 19.667 29 33 29c10 0 15 -9 15 -27zM145 162c0 -26 -22.333 -89.499 -67 -190.499
s-77 -163.5 -97 -187.5c-8.66699 -10 -18 -15 -28 -15s-15 4 -15 12c0 2.66699 2 7 6 13c45.333 68 88 141.333 128 220c14 27.333 32.333 68.666 55 123.999l4.5 19.5c1.66699 7 4.16699 10.5 7.5 10.5c4 0 6 -2 6 -6z" />
    <glyph glyph-name="cent" unicode="&#xa2;" horiz-adv-x="232" 
d="M429 565l-40.499 -44.499l-82.5 -94.5c12 -6.66699 18 -17.667 18 -33c0 -10.667 -4.33301 -24.667 -13 -42c-10 -19.333 -19.333 -29 -28 -29c-6 0 -9 3.33301 -9 10l14.5 23c9.66699 15.333 14.5 29.333 14.5 42c0 8 -2.33301 13.667 -7 17
c-72 -86.667 -128 -164.334 -168 -233.001c5.33301 -2 11.666 -3 18.999 -3c26.667 0 58.667 12 96 36c29.333 19.333 56 42 80 68c2.66699 4 7.66699 8 15 12l1 -1c-2 -3.33301 -5.66699 -8.33301 -11 -15c-26 -28 -58.667 -53.667 -98 -77
c-44 -26.667 -82.333 -40.667 -115 -42c-14.667 -26.667 -25.667 -50 -33 -70c-2.66699 -9.33301 -6 -19.666 -10 -30.999c-1.33301 -1.33301 -3.66602 -2 -6.99902 -2c-10.667 0 -16 1.66699 -16 5c0 12.667 15.667 46 47 100c-18.667 4 -28 16.333 -28 37
c0 43.333 25.333 93.666 76 150.999c52.667 60 100.667 87.333 144 82c73.333 90.667 119.666 136 138.999 136c1.33301 0 2 -0.666992 2 -2zM275.001 415.001c-36 -6.66699 -72.499 -32.5 -109.499 -77.5s-55.5 -85.833 -55.5 -122.5c0 -8.66699 1.66699 -16 5 -22
c43.333 68.667 96.666 142.667 159.999 222z" />
    <glyph glyph-name="sterling" unicode="&#xa3;" horiz-adv-x="604" 
d="M586 19c0 -26.667 -15.6689 -51.6641 -47.002 -74.9971c-26.667 -20.667 -54.334 -34 -83.001 -40c-15.333 -2.66699 -31.666 -4 -48.999 -4c-50 0 -111.667 10.667 -185 32c-114 33.333 -174.667 50.666 -182 51.999c-29.333 -16 -60.333 -24 -93 -24
c-18 0 -27 3.66699 -27 11c0 4.66699 6.33301 7 19 7c74.667 0 145.334 54 212.001 162c-36 -2 -53.333 -3 -52 -3c-4 0 -9.33301 2.33301 -16 7s-10.667 9 -12 13l1 1c19.333 2 50.333 3.66699 93 5c13.333 23.333 44 82 92 176c32.667 65.333 59.334 112 80.001 140
c42 57.333 83.333 86 124 86c28.667 0 50.667 -13 66 -39c13.333 -21.333 20 -47.333 20 -78c0 -13.333 -2.33301 -31.666 -7 -54.999c-5.33301 -30 -11.333 -45 -18 -45c-4 0 -6 1.66699 -6 5c0 1.33301 0.666992 3 2 5c11.333 27.333 17 53 17 77c0 25.333 -5 48 -15 68
c-12.667 25.333 -30.334 38 -53.001 38c-31.333 0 -65.666 -27 -102.999 -81c-16.667 -24.667 -40 -66 -70 -124c-19.333 -38.667 -50 -96.334 -92 -173.001c68.667 0.666992 120 -2.33301 154 -9c3.33301 -0.666992 5 -1.66699 5 -3c0 -2.66699 -3 -4 -9 -4
c-46 0 -100 -1.66699 -162 -5c-42.667 -68 -85.667 -116.333 -129 -145l177 -30c68.667 -10.667 128.334 -16 179.001 -16c107.333 0 161 21 161 63c0 12 -5.83301 26.5 -17.5 43.5s-17.834 26.833 -18.501 29.5l2 2c10 -2.66699 19.5 -12.334 28.5 -29.001
s13.5 -30.334 13.5 -41.001z" />
    <glyph glyph-name="yen" unicode="&#xa5;" horiz-adv-x="329" 
d="M241 447l0.000976562 -4c0 -32 -11.333 -76.667 -34 -134c-10 -23.333 -17.333 -35 -22 -35c-2 0 -3 1 -3 3l12 31c14 38.667 21 77.334 21 116.001c0 46.667 -13.667 70 -41 70c-22.667 0 -50.334 -13.5 -83.001 -40.5l-49 -40.5c-4 0 -6 1.66699 -6 5
s3 8.66602 9 15.999c17.333 22 39.333 42.333 66 61c32 23.333 58.667 35 80 35c33.333 0 50 -27.667 50 -83zM508.001 501c0 -6 -1.33301 -10.667 -4 -14c-2 25.333 -14.333 38 -37 38c-56.667 0 -113 -41.333 -169 -124c-36.667 -54.667 -70.334 -122 -101.001 -202
c58.667 -0.666992 103.334 -4 134.001 -10c3.33301 -0.666992 5 -1.66699 5 -3c0 -2.66699 -3.33301 -4 -10 -4c-38 0 -83.667 -1 -137 -3c-44 -122 -66 -216.333 -66 -283c0 -64.667 16.667 -97 50 -97c21.333 0 47 9.66699 77 29c-5.33301 -10 -15.5 -19 -30.5 -27
s-28.167 -12 -39.5 -12c-32 0 -57 14.667 -75 44c-15.333 25.333 -23 55 -23 89c0 56 24 141 72 255c-61.333 -2.66699 -88 -4 -80 -4c-11.333 0 -21 6.33301 -29 19l2 1c28 3.33301 66.667 5.33301 116 6c36 82 75.333 151.667 118 209c63.333 86 125 129 185 129
c28 0 42 -12 42 -36z" />
    <glyph glyph-name="section" unicode="&#xa7;" horiz-adv-x="498" 
d="M502 415c0 -30.667 -24.333 -46.002 -73 -46.002c-7.33301 0 -11 1.33301 -11 4s4 4 12 4c12 0 22.667 4 32 12s14 18 14 30c0 32 -25.333 48 -76 48c-32 0 -59.667 -9.16699 -83 -27.5s-35 -43.166 -35 -74.499c0 -30.667 15.333 -57.667 46 -81l84 -62
c30.667 -28 46 -62.667 46 -104c0 -64.667 -32.333 -114 -97 -148c-16 -36.667 -45 -65.667 -87 -87c-38 -19.333 -79 -29 -123 -29s-80.667 10.333 -110 31c-32.667 23.333 -49 56.333 -49 99c0 40.667 13.167 75.834 39.5 105.501s59.5 44.5 99.5 44.5
c20.667 0 31 -2.33301 31 -7c0 -0.666992 -6.66699 -1 -20 -1c-36.667 0 -66.167 -11.167 -88.5 -33.5s-33.5 -51.833 -33.5 -88.5c0 -38.667 12.333 -71.5 37 -98.5s56.334 -40.5 95.001 -40.5c28 0 57.333 7.33301 88 22c64 30 96 77.333 96 142
c0 37.333 -14.667 69.333 -44 96l-82 63c-29.333 24.667 -44 53 -44 85c0 48.667 29 83.667 87 105c5.33301 30 24 54.333 56 73c28 16.667 58.333 25 91 25c23.333 0 44.666 -4.33301 63.999 -13c25.333 -11.333 38 -27.333 38 -48zM420 114.998
c0 37.333 -15 69.667 -45 97l-83 63c-29.333 26 -43 56.333 -41 91c-35.333 -19.333 -53 -48.333 -53 -87c0 -30.667 15 -57.667 45 -81l85 -61c30.667 -28.667 46 -63.667 46 -105c0 -12.667 -1.66699 -25 -5 -37c34 27.333 51 67.333 51 120z" />
    <glyph glyph-name="dieresis" unicode="&#xa8;" horiz-adv-x="242" 
d="M220 383c0 2 -4.33105 -3 -12.998 -15c-4 -10.667 -8.33301 -21.667 -13 -33c-6.66699 -14.667 -14 -22 -22 -22c-4.66699 0 -8.83398 3.16699 -12.501 9.5s-5.5 11.833 -5.5 16.5c0 10 5 16.667 15 20c3.33301 4 11.166 9.33301 23.499 16s20.5 10 24.5 10l2 -1v0
c0.666992 0 1 -0.333008 1 -1zM109.002 383c0 2 -3.99902 -3 -11.999 -15c-4.66699 -10.667 -9 -21.667 -13 -33c-6.66699 -14.667 -14.334 -22 -23.001 -22c-4 0 -7.83301 3.16699 -11.5 9.5s-5.5 11.833 -5.5 16.5c0 10 5 16.667 15 20c3.33301 4 11 9.33301 23 16
s20.333 10 25 10l2 -1v0v-1z" />
    <glyph glyph-name="copyright" unicode="&#xa9;" horiz-adv-x="525" 
d="M478 300c0 -64.667 -33.501 -126.833 -100.501 -186.5s-133.167 -89.5 -198.5 -89.5c-39.333 0 -72.666 11.333 -99.999 34c-30 24.667 -45 56 -45 94c0 65.333 34.667 128.333 104 189c67.333 59.333 134 89 200 89c38.667 0 71.667 -12.167 99 -36.5s41 -55.5 41 -93.5
zM446.999 293.001c0 35.333 -10.833 64.166 -32.5 86.499s-50.167 33.5 -85.5 33.5c-61.333 0 -120.833 -28.167 -178.5 -84.5s-86.5 -115.166 -86.5 -176.499c0 -33.333 13 -60.333 39 -81c24 -20 53 -30 87 -30c58 0 115.333 27.5 172 82.5s85 111.5 85 169.5z
M387.999 337.001c0 -16.667 -4.99902 -25.333 -14.999 -26l-4 4c2.66699 12 4 18.333 4 19c0 19.333 -10 29 -30 29c-42.667 0 -88 -25.667 -136 -77s-72 -98.666 -72 -141.999c0 -26 13.333 -39 40 -39c25.333 0 60.333 11.833 105 35.5s64.667 35.5 60 35.5
c1.33301 -0.666992 2 -1.66699 2 -3c0 -18.667 -23 -37 -69 -55c-40.667 -16 -72.667 -24 -96 -24c-18.667 0 -34.334 4.33301 -47.001 13c-14.667 9.33301 -22 22.666 -22 39.999c0 50.667 27 100.667 81 150s106.667 74 158 74c27.333 0 41 -11.333 41 -34z" />
    <glyph glyph-name="ordfeminine" unicode="&#xaa;" horiz-adv-x="217" 
d="M197 336c-17.333 0 -25.999 13.001 -25.999 39.001c0 16 2.33301 35.667 7 59c-10.667 -18 -26.667 -37.667 -48 -59c-26 -25.333 -46.667 -38 -62 -38c-7.33301 0 -11 5 -11 15c0 24.667 11.333 55.667 34 93c24.667 40 48 59.333 70 58c13.333 6 23.333 9 30 9
c2.66699 0 11 -0.666992 25 -2c6 2 10.667 3 14 3c4 0 6 -2 6 -6s-2.16699 -10.833 -6.5 -20.5s-7.5 -15.167 -9.5 -16.5c-14 -27.333 -21 -58.333 -21 -93c0 -15.333 4.33301 -23 13 -23c8 0 18.167 5.33301 30.5 16s18.166 16 17.499 16c0.666992 0 1 -0.333008 1 -1
c0 -8.66699 -10 -20.334 -30 -35.001c-12.667 -9.33301 -24 -14 -34 -14zM199.001 495.001c-4 2 -8.00195 3 -12.002 3c-21.333 0 -42.666 -17 -63.999 -51c-15.333 -24 -27 -50 -35 -78c-1.33301 -3.33301 -2 -6 -2 -8c0 -2.66699 1 -4 3 -4
c2.66699 0 7.33398 2.33301 14.001 7c30 21.333 62 65 96 131z" />
    <glyph glyph-name="guillemotleft" unicode="&#xab;" horiz-adv-x="346" 
d="M335 359c0 -7.33301 -30.667 -49.332 -92 -125.999c46.667 -66.667 70 -103.334 70 -110.001c0 -8 -3 -11.667 -9 -11l-6 3c-10.667 16 -25 32.333 -43 49l-49 42c-1.33301 1.33301 -2 3 -2 5c0 4.66699 16.333 28.334 49 71.001c30.667 39.333 51 63.666 61 72.999
c6 6 11.333 9 16 9c3.33301 0 5 -1.66699 5 -5zM220 359.001c0 -7.33301 -31 -49.332 -93 -125.999c47.333 -66.667 71 -103.334 71 -110.001c0 -8 -3.33301 -11.667 -10 -11l-6 3c-10 16 -24.333 32.333 -43 49l-49 42c-1.33301 1.33301 -2 3 -2 5
c0 4.66699 16.667 28.334 50 71.001c30.667 39.333 50.667 63.666 60 72.999c6 6 11.667 9 17 9c3.33301 0 5 -1.66699 5 -5z" />
    <glyph glyph-name="registered" unicode="&#xae;" horiz-adv-x="525" 
d="M478 300c0 -64.667 -33.501 -126.833 -100.501 -186.5s-133.167 -89.5 -198.5 -89.5c-39.333 0 -72.666 11.333 -99.999 34c-30 24.667 -45 56 -45 94c0 65.333 34.667 128.333 104 189c67.333 59.333 134 89 200 89c38.667 0 71.667 -12.167 99 -36.5s41 -55.5 41 -93.5
zM446.999 293.001c0 35.333 -10.834 64.168 -32.501 86.501s-50.167 33.5 -85.5 33.5c-60 0 -118.667 -27 -176 -81c48.667 19.333 95 29 139 29c26.667 0 50 -4 70 -12c27.333 -10.667 41 -27.334 41 -50.001c0 -27.333 -19.667 -49 -59 -65
c-29.333 -12.667 -60.666 -19 -93.999 -19c21.333 -74.667 50 -112.667 86 -114c74 59.333 111 123.333 111 192zM381.998 305.003c0 30.667 -31 45.999 -93 45.999c-20 0 -47.333 -5 -82 -15c-32 -9.33301 -58 -19.333 -78 -30c-43.333 -52 -65 -103.333 -65 -154
c0 -33.333 13 -60.333 39 -81c24 -20 53 -30 87 -30c42.667 0 86 16 130 48c-20 5.33301 -40 23 -60 53c-15.333 24 -26.666 49.333 -33.999 76c-4.66699 -0.666992 -8.33398 0 -11.001 2c6.66699 2 11.667 4.33301 15 7l8 -2c96 12.667 144 39.334 144 80.001z
M294.998 338.002c-2 -4 -10.999 -16.001 -26.999 -36.001c-36.667 -46 -64.334 -82.667 -83.001 -110c-34.667 -51.333 -54 -91.333 -58 -120c-0.666992 -6 -1.66699 -9 -3 -9c-6.66699 0 -10 9.66699 -10 29c0 24.667 22 68.667 66 132
c37.333 54.667 69.333 95.334 96 122.001z" />
    <glyph glyph-name="macron" unicode="&#xaf;" horiz-adv-x="244" 
d="M248 420c0 -3.33301 -1.66699 -5 -5 -5c-16.667 0 -41.667 -1.5 -75 -4.5s-58.333 -4.5 -75 -4.5c-2.66699 0 -5.83398 2.5 -9.50098 7.5s-5.5 8.83301 -5.5 11.5l1 2c12.667 3.33301 39.667 5 81 5c42.667 0 71.334 -3 86.001 -9c1.33301 -1.33301 2 -2.33301 2 -3z" />
    <glyph glyph-name="macron" unicode="&#x2c9;" horiz-adv-x="244" 
d="M248 420c0 -3.33301 -1.66699 -5 -5 -5c-16.667 0 -41.667 -1.5 -75 -4.5s-58.333 -4.5 -75 -4.5c-2.66699 0 -5.83398 2.5 -9.50098 7.5s-5.5 8.83301 -5.5 11.5l1 2c12.667 3.33301 39.667 5 81 5c42.667 0 71.334 -3 86.001 -9c1.33301 -1.33301 2 -2.33301 2 -3z" />
    <glyph glyph-name="degree" unicode="&#xb0;" horiz-adv-x="207" 
d="M184 294c-16 0 -29.501 5.16699 -40.501 15.5s-16.5 23.833 -16.5 40.5c0 24 10.167 45.5 30.5 64.5s42.5 28.5 66.5 28.5c16.667 0 30.334 -5.16699 41.001 -15.5s16 -23.5 16 -39.5c0 -24 -10.167 -45.667 -30.5 -65s-42.5 -29 -66.5 -29zM249.999 380
c0 22 -11.333 33 -34 33c-14 0 -27 -5.66699 -39 -17s-18 -24 -18 -38c0 -22 11 -33 33 -33c14 0 27.167 5.66699 39.5 17s18.5 24 18.5 38z" />
    <glyph glyph-name="plusminus" unicode="&#xb1;" horiz-adv-x="360" 
d="M347 249c0 -0.666992 -0.333984 -2 -1.00098 -4l-8 -4c-28.667 0 -70 -0.666992 -124 -2c-6.66699 -37.333 -15 -77.333 -25 -120c-2 -3.33301 -4 -5 -6 -5c-2.66699 0 -4 5 -4 15c0 6 4.66699 42.667 14 110c-10.667 -0.666992 -29.667 -1.66699 -57 -3
c-24.667 -0.666992 -44 -1 -58 -1c-8.66699 0 -13 5.66699 -13 17l5 4c22.667 2.66699 64.667 3.66699 126 3c2.66699 32.667 7 70.667 13 114c2.66699 8.66699 9.33398 13.667 20.001 15l3 -4c0 -22.667 -5 -64.334 -15 -125.001c38.667 -0.666992 80.667 -2.66699 126 -6
c2.66699 -1.33301 4 -2.66602 4 -3.99902zM249.999 68c0 -3.33301 -1.99902 -4.99902 -5.99902 -4.99902c-16.667 0 -41.667 -1.66699 -75 -5s-58.333 -5 -75 -5c-2.66699 0 -5.66699 2.5 -9 7.5s-5 9.16699 -5 12.5l1 1c12.667 4 40 6 82 6
c43.333 0 71.666 -3.33301 84.999 -10c1.33301 -0.666992 2 -1.33398 2 -2.00098z" />
    <glyph glyph-name="twosuperior" unicode="&#xb2;" horiz-adv-x="500" 
 />
    <glyph glyph-name="threesuperior" unicode="&#xb3;" horiz-adv-x="500" 
 />
    <glyph glyph-name="acute" unicode="&#xb4;" horiz-adv-x="125" 
d="M182 401c0 -6 -13 -16.668 -39 -32.001c-26 -17.333 -55.667 -34.666 -89 -51.999l-2 2c0 4 3.66699 9 11 15l41.5 32.5c13.667 11 23.834 24.833 30.501 41.5c3.33301 8.66699 11 13 23 13c5.33301 0 10.666 -2 15.999 -6s8 -8.66699 8 -14z" />
    <glyph glyph-name="mu" unicode="&#xb5;" horiz-adv-x="244" 
d="M263 47l-0.00878906 -2c-19.333 -26 -40.333 -39 -63 -39c-23.333 0 -35 20 -35 60c0 20 1.33301 43.667 4 71c-22.667 -43.333 -64.667 -87.666 -126 -132.999c-34 -78.667 -56.667 -133.334 -68 -164.001c-24 -68 -36 -125 -36 -171c0 -48.667 16 -73 48 -73
c20.667 0 46 9 76 27c-5.33301 -9.33301 -15.666 -17.833 -30.999 -25.5s-28.666 -11.5 -39.999 -11.5c-27.333 0 -51.166 10.333 -71.499 31s-30.166 44.667 -29.499 72v2c0.666992 37.333 16.334 90 47.001 158l75 153c44.667 96 67 169.333 67 220
c-4 -12 -15 -33.333 -33 -64c-16.667 -28 -30 -49 -40 -63h-2c-2.66699 0 -4 1 -4 3l28 48.5c18.667 32.333 34.334 68.833 47.001 109.5c4.66699 14.667 11.334 22 20.001 22c10.667 0 16 -13 16 -39c0 -28 -7.33301 -63.667 -22 -107l-35 -105
c40.667 30.667 79.334 74 116.001 130c6 41.333 13 66.333 21 75c4 3.33301 9.33301 5 16 5c10.667 0 16 -2.66699 16 -8c0 -16 -5 -31 -15 -45c-12 -42.667 -18 -83 -18 -121c0 -26 8.33301 -39 25 -39c8.66699 0 18.334 4.66699 29.001 14s15.667 14 15 14
c2 0 3 -1.66699 3 -5z" />
    <glyph glyph-name="mu" unicode="&#x3bc;" horiz-adv-x="244" 
d="M263 47l-0.00878906 -2c-19.333 -26 -40.333 -39 -63 -39c-23.333 0 -35 20 -35 60c0 20 1.33301 43.667 4 71c-22.667 -43.333 -64.667 -87.666 -126 -132.999c-34 -78.667 -56.667 -133.334 -68 -164.001c-24 -68 -36 -125 -36 -171c0 -48.667 16 -73 48 -73
c20.667 0 46 9 76 27c-5.33301 -9.33301 -15.666 -17.833 -30.999 -25.5s-28.666 -11.5 -39.999 -11.5c-27.333 0 -51.166 10.333 -71.499 31s-30.166 44.667 -29.499 72v2c0.666992 37.333 16.334 90 47.001 158l75 153c44.667 96 67 169.333 67 220
c-4 -12 -15 -33.333 -33 -64c-16.667 -28 -30 -49 -40 -63h-2c-2.66699 0 -4 1 -4 3l28 48.5c18.667 32.333 34.334 68.833 47.001 109.5c4.66699 14.667 11.334 22 20.001 22c10.667 0 16 -13 16 -39c0 -28 -7.33301 -63.667 -22 -107l-35 -105
c40.667 30.667 79.334 74 116.001 130c6 41.333 13 66.333 21 75c4 3.33301 9.33301 5 16 5c10.667 0 16 -2.66699 16 -8c0 -16 -5 -31 -15 -45c-12 -42.667 -18 -83 -18 -121c0 -26 8.33301 -39 25 -39c8.66699 0 18.334 4.66699 29.001 14s15.667 14 15 14
c2 0 3 -1.66699 3 -5z" />
    <glyph glyph-name="paragraph" unicode="&#xb6;" horiz-adv-x="481" 
d="M599 554c0 -8.66699 -5.33105 -12.998 -15.998 -12.998c-32 0 -66.333 -27 -103 -81c-16.667 -24.667 -52.334 -93.667 -107.001 -207c-48 -100 -91 -172.667 -129 -218c-56.667 -66.667 -117.667 -99 -183 -97c-38 -27.333 -78.333 -41 -121 -41
c-18 0 -27 3.33301 -27 10c0 4.66699 6.33301 7 19 7c58.667 0 115 33.333 169 100c29.333 36.667 64.666 95.667 105.999 177c-33.333 2.66699 -61 12 -83 28c-25.333 19.333 -38 44.666 -38 75.999c0 27.333 9.33301 54.666 28 81.999c30 42.667 75 74.667 135 96
c50 18.667 105.333 28 166 28c25.333 0 45 1.66699 59 5c34.667 39.333 69 59 103 59c14.667 0 22 -3.66699 22 -11zM449.002 474.002l-23 -1c-34.667 -24.667 -72 -73.667 -112 -147l-106 -203c-44.667 -79.333 -88.667 -137 -132 -173c61.333 5.33301 119.333 51 174 137
c22 34 57.667 104.667 107 212l43 89c16.667 33.333 33 62 49 86z" />
    <glyph glyph-name="periodcentered" unicode="&#xb7;" horiz-adv-x="384" 
d="M209 206c-14.667 0 -27 5 -37 15s-15 22.333 -15 37c0 16.667 6.16699 31.167 18.5 43.5s26.833 18.5 43.5 18.5c14.667 0 27 -5 37 -15s15 -22.333 15 -37c0 -16.667 -6.16699 -31.167 -18.5 -43.5s-26.833 -18.5 -43.5 -18.5z" />
    <glyph glyph-name="periodcentered" unicode="&#x2219;" horiz-adv-x="384" 
d="M209 206c-14.667 0 -27 5 -37 15s-15 22.333 -15 37c0 16.667 6.16699 31.167 18.5 43.5s26.833 18.5 43.5 18.5c14.667 0 27 -5 37 -15s15 -22.333 15 -37c0 -16.667 -6.16699 -31.167 -18.5 -43.5s-26.833 -18.5 -43.5 -18.5z" />
    <glyph glyph-name="cedilla" unicode="&#xb8;" horiz-adv-x="184" 
d="M132 -4c-12 -2 -22.167 -8.50098 -30.5 -19.501s-12.5 -22.833 -12.5 -35.5c0 -5.33301 6.83301 -17.5 20.5 -36.5s20.5 -35.167 20.5 -48.5c0 -27.333 -15.667 -49.333 -47 -66c-25.333 -13.333 -53 -20 -83 -20c-4.66699 0 -7 3 -7 9c0 2.66699 2.66699 4.66699 8 6
l61 10c21.333 6 32 22.333 32 49c0 7.33301 -5.83301 20.333 -17.5 39s-17.5 33.334 -17.5 44.001c0 18 6.16699 35 18.5 51s27.5 24 45.5 24c6 0 9 -2 9 -6z" />
    <glyph glyph-name="ordmasculine" unicode="&#xba;" horiz-adv-x="185" 
d="M179 516c24.667 0 36.999 -10.666 36.999 -31.999c0 -18.667 -9.33301 -43.334 -28 -74.001c-17.333 -28 -34.333 -49 -51 -63c6 -6.66699 14 -10 24 -10c2.66699 0 4 -1 4 -3c0 -2.66699 -2 -4 -6 -4c-10 0 -19 4.66699 -27 14c-15.333 -11.333 -31.666 -17 -48.999 -17
c-19.333 0 -29 8.33301 -29 25c0 35.333 20 75.333 60 120v2c-0.666992 12.667 7.33301 23 24 31c13.333 7.33301 27 11 41 11zM187.999 479.001c0 15.333 -5 23.001 -15 23.001c-9.33301 0 -17 -5.66699 -23 -17c2.66699 -4 4 -7.66699 4 -11
c0 -1.33301 -0.666992 -2.33301 -2 -3c-11.333 -6.66699 -20.333 -13.667 -27 -21c-3.33301 -10.667 -5 -23 -5 -37c0 -24 4 -43.333 12 -58c12.667 12.667 25.167 32.167 37.5 58.5s18.5 48.166 18.5 65.499zM126.999 351.002c-12 18.667 -18 42.667 -18 72
c-14 -22.667 -21 -41 -21 -55c0 -17.333 6 -26 18 -26c6.66699 0 13.667 3 21 9z" />
    <glyph glyph-name="guillemotright" unicode="&#xbb;" horiz-adv-x="346" 
d="M339 259c0 -4.66699 -16.333 -28.335 -49 -71.002c-30.667 -39.333 -51 -63.666 -61 -72.999c-6 -6 -11.333 -9 -16 -9c-3.33301 0 -5 1.66699 -5 5c0 7.33301 30.667 49.333 92 126c-46.667 66.667 -70 103.334 -70 110.001c0 8 3.33301 11.667 10 11l6 -3
c10 -16 24 -32.333 42 -49l50 -42c0.666992 -1.33301 1 -3 1 -5zM211 258.999c0 -4.66699 -16.334 -28.335 -49.001 -71.002c-31.333 -39.333 -51.666 -63.666 -60.999 -72.999c-6 -6 -11.333 -9 -16 -9c-4 0 -6 1.66699 -6 5c0 7.33301 31 49.333 93 126
c-47.333 66.667 -71 103.334 -71 110.001c0 8 3.33301 11.667 10 11l6 -3c10 -16 24.333 -32.333 43 -49l49 -42c1.33301 -1.33301 2 -3 2 -5z" />
    <glyph glyph-name="questiondown" unicode="&#xbf;" horiz-adv-x="356" 
d="M203 138c-4 0 -6.00195 1.33301 -6.00195 4s3 6 9 10l31 27c14 12 24.667 18 32 18c3.33301 0 7.33301 -4.33301 12 -13s7 -14.667 7 -18c0 -2 -0.666992 -3 -2 -3c-19.333 -4.66699 -42.666 -12 -69.999 -22c-5.33301 -2 -9.66602 -3 -12.999 -3zM67.998 -311
c-30.667 0 -55.999 6.66895 -75.999 20.002c-22.667 15.333 -34 37.666 -34 66.999c0 35.333 27.333 75.666 82 120.999c8.66699 7.33301 51 37.333 127 90c19.333 12.667 33.333 34.334 42 65.001c4.66699 16 9 24 13 24c10 0 15 -9 15 -27
c0 -12.667 -4.66699 -26.334 -14 -41.001c-4.66699 -6.66699 -27.334 -24 -68.001 -52c-48.667 -34 -74.667 -52.333 -78 -55c-48 -38 -72 -79 -72 -123s29.333 -66 88 -66c36 0 69 8 99 24c36.667 20 55 46.333 55 79c0 20 -4.66699 34.333 -14 43
c-1.33301 0.666992 -4.33301 1.83398 -9 3.50098s-7 3.16699 -7 4.5c0 7.33301 5.33301 11 16 11c13.333 0 24.833 -6.33301 34.5 -19s14.5 -25.334 14.5 -38.001c0 -12 -3.66699 -23.667 -11 -35c-17.333 -28 -47.333 -51.333 -90 -70c-39.333 -17.333 -77 -26 -113 -26z
" />
    <glyph glyph-name="Agrave" unicode="&#xc0;" horiz-adv-x="540" 
d="M547 256c39.333 0 64.6709 -0.334961 76.0039 -1.00195c6.66699 -0.666992 10 -2.33398 10 -5.00098s-4.66699 -5 -14 -7l-44 -8c-18.667 -4.66699 -32.334 -10.667 -41.001 -18c-26 -68 -39 -138 -39 -210c0 -4.66699 0.333008 -9.33398 1 -14.001
c17.333 -1.33301 33.666 -2 48.999 -2c3.33301 0 8.33301 0.333008 15 1h14c6 0 9 -1.66699 9 -5c0 -5.33301 -3.66699 -13.166 -11 -23.499s-13.666 -17.166 -18.999 -20.499c-14.667 -10 -30.334 -15 -47.001 -15c-34 0 -53.667 16.667 -59 50
c-58 5.33301 -117.667 15.666 -179 30.999c-76 19.333 -131.667 41.333 -167 66c-94 -102 -141 -180.333 -141 -235c0 -3.33301 0.5 -8.5 1.5 -15.5s1.5 -12.167 1.5 -15.5c0 -8.66699 -4.33301 -13 -13 -13c-8 0 -14.5 4.16699 -19.5 12.5s-7.5 16.833 -7.5 25.5
c0 64 51.667 148 155 252c-38 32.667 -57 62.667 -57 90c0 38 33 63.333 99 76c41.333 8 88.666 10.667 141.999 8c103.333 93.333 214.666 188.333 333.999 285c9.33301 6.66699 22.666 17 39.999 31c2.66699 2.66699 6.66699 6.33398 12 11.001c27.333 22 51 33 71 33
c7.33301 0 11 -2.66699 11 -8c0 -8 -7.5 -27.167 -22.5 -57.5s-26.167 -48.833 -33.5 -55.5c-2 -1.33301 -5.33301 -3.33301 -10 -6c-1.33301 -1.33301 -4.66602 -7.66602 -9.99902 -18.999l-35 -64c-29.333 -57.333 -53.333 -108.666 -72 -153.999zM628.005 530.998
c-107.333 -73.333 -216.667 -164.333 -328 -273l214 -1c7.33301 21.333 18.333 49 33 83c54.667 124.667 82 188 82 190c0 0.666992 -0.333008 1 -1 1zM498.004 -26.002c4 -18.667 11.667 -28 23 -28c6 0 12 3 18 9s9 12 9 18v1h-10c-4.66699 -0.666992 -8 -1 -10 -1
c-9.33301 0 -19.333 0.333008 -30 1zM506.004 235.998l-32.999 -0.000976562c-16.667 0.666992 -27.334 1 -32.001 1c-99.333 0 -164 -11.667 -194 -35s-72.667 -59.333 -128 -108c55.333 -48 164.333 -80.333 327 -97v5c-0.666992 34.667 6 74.334 20 119.001z
M233.005 232.997c-6.66699 0.666992 -13.667 0.999023 -21 0.999023c-30 0 -59.667 -5.33301 -89 -16c-39.333 -14 -59 -33.333 -59 -58c0 -17.333 10.667 -35.666 32 -54.999zM523.005 624.996c0 -4 -2 -5.99902 -6 -5.99902l-117 66
c-16.667 9.33301 -25 18.666 -25 27.999c0 8.66699 6.66699 13 20 13c11.333 0 23.333 -5.66699 36 -17l51 -42c27.333 -22.667 41 -36.667 41 -42z" />
    <glyph glyph-name="Aacute" unicode="&#xc1;" horiz-adv-x="540" 
d="M547 256c39.333 0 64.6709 -0.334961 76.0039 -1.00195c6.66699 -0.666992 10 -2.33398 10 -5.00098s-4.66699 -5 -14 -7l-44 -8c-18.667 -4.66699 -32.334 -10.667 -41.001 -18c-26 -68 -39 -138 -39 -210c0 -4.66699 0.333008 -9.33398 1 -14.001
c17.333 -1.33301 33.666 -2 48.999 -2c3.33301 0 8.33301 0.333008 15 1h14c6 0 9 -1.66699 9 -5c0 -5.33301 -3.66699 -13.166 -11 -23.499s-13.666 -17.166 -18.999 -20.499c-14.667 -10 -30.334 -15 -47.001 -15c-34 0 -53.667 16.667 -59 50
c-58 5.33301 -117.667 15.666 -179 30.999c-76 19.333 -131.667 41.333 -167 66c-94 -102 -141 -180.333 -141 -235c0 -3.33301 0.5 -8.5 1.5 -15.5s1.5 -12.167 1.5 -15.5c0 -8.66699 -4.33301 -13 -13 -13c-8 0 -14.5 4.16699 -19.5 12.5s-7.5 16.833 -7.5 25.5
c0 64 51.667 148 155 252c-38 32.667 -57 62.667 -57 90c0 38 33 63.333 99 76c41.333 8 88.666 10.667 141.999 8c103.333 93.333 214.666 188.333 333.999 285c9.33301 6.66699 22.666 17 39.999 31c2.66699 2.66699 6.66699 6.33398 12 11.001c27.333 22 51 33 71 33
c7.33301 0 11 -2.66699 11 -8c0 -8 -7.5 -27.167 -22.5 -57.5s-26.167 -48.833 -33.5 -55.5c-2 -1.33301 -5.33301 -3.33301 -10 -6c-1.33301 -1.33301 -4.66602 -7.66602 -9.99902 -18.999l-35 -64c-29.333 -57.333 -53.333 -108.666 -72 -153.999zM628.005 530.998
c-107.333 -73.333 -216.667 -164.333 -328 -273l214 -1c7.33301 21.333 18.333 49 33 83c54.667 124.667 82 188 82 190c0 0.666992 -0.333008 1 -1 1zM498.004 -26.002c4 -18.667 11.667 -28 23 -28c6 0 12 3 18 9s9 12 9 18v1h-10c-4.66699 -0.666992 -8 -1 -10 -1
c-9.33301 0 -19.333 0.333008 -30 1zM506.004 235.998l-32.999 -0.000976562c-16.667 0.666992 -27.334 1 -32.001 1c-99.333 0 -164 -11.667 -194 -35s-72.667 -59.333 -128 -108c55.333 -48 164.333 -80.333 327 -97v5c-0.666992 34.667 6 74.334 20 119.001z
M233.005 232.997c-6.66699 0.666992 -13.667 0.999023 -21 0.999023c-30 0 -59.667 -5.33301 -89 -16c-39.333 -14 -59 -33.333 -59 -58c0 -17.333 10.667 -35.666 32 -54.999zM840.005 753.996c0 -8.66699 -10 -17.999 -30 -27.999c-86 -43.333 -128.667 -65 -128 -65
c-3.33301 0 -5 1.66699 -5 5c0 5.33301 15.667 19.666 47 42.999l59 42c14.667 11.333 27.667 17 39 17c12 0 18 -4.66699 18 -14z" />
    <glyph glyph-name="Acircumflex" unicode="&#xc2;" horiz-adv-x="540" 
d="M547 256c39.333 0 64.6709 -0.334961 76.0039 -1.00195c6.66699 -0.666992 10 -2.33398 10 -5.00098s-4.66699 -5 -14 -7l-44 -8c-18.667 -4.66699 -32.334 -10.667 -41.001 -18c-26 -68 -39 -138 -39 -210c0 -4.66699 0.333008 -9.33398 1 -14.001
c17.333 -1.33301 33.666 -2 48.999 -2c3.33301 0 8.33301 0.333008 15 1h14c6 0 9 -1.66699 9 -5c0 -5.33301 -3.66699 -13.166 -11 -23.499s-13.666 -17.166 -18.999 -20.499c-14.667 -10 -30.334 -15 -47.001 -15c-34 0 -53.667 16.667 -59 50
c-58 5.33301 -117.667 15.666 -179 30.999c-76 19.333 -131.667 41.333 -167 66c-94 -102 -141 -180.333 -141 -235c0 -3.33301 0.5 -8.5 1.5 -15.5s1.5 -12.167 1.5 -15.5c0 -8.66699 -4.33301 -13 -13 -13c-8 0 -14.5 4.16699 -19.5 12.5s-7.5 16.833 -7.5 25.5
c0 64 51.667 148 155 252c-38 32.667 -57 62.667 -57 90c0 38 33 63.333 99 76c41.333 8 88.666 10.667 141.999 8c103.333 93.333 214.666 188.333 333.999 285c9.33301 6.66699 22.666 17 39.999 31c2.66699 2.66699 6.66699 6.33398 12 11.001c27.333 22 51 33 71 33
c7.33301 0 11 -2.66699 11 -8c0 -8 -7.5 -27.167 -22.5 -57.5s-26.167 -48.833 -33.5 -55.5c-2 -1.33301 -5.33301 -3.33301 -10 -6c-1.33301 -1.33301 -4.66602 -7.66602 -9.99902 -18.999l-35 -64c-29.333 -57.333 -53.333 -108.666 -72 -153.999zM628.005 530.998
c-107.333 -73.333 -216.667 -164.333 -328 -273l214 -1c7.33301 21.333 18.333 49 33 83c54.667 124.667 82 188 82 190c0 0.666992 -0.333008 1 -1 1zM498.004 -26.002c4 -18.667 11.667 -28 23 -28c6 0 12 3 18 9s9 12 9 18v1h-10c-4.66699 -0.666992 -8 -1 -10 -1
c-9.33301 0 -19.333 0.333008 -30 1zM506.004 235.998l-32.999 -0.000976562c-16.667 0.666992 -27.334 1 -32.001 1c-99.333 0 -164 -11.667 -194 -35s-72.667 -59.333 -128 -108c55.333 -48 164.333 -80.333 327 -97v5c-0.666992 34.667 6 74.334 20 119.001z
M233.005 232.997c-6.66699 0.666992 -13.667 0.999023 -21 0.999023c-30 0 -59.667 -5.33301 -89 -16c-39.333 -14 -59 -33.333 -59 -58c0 -17.333 10.667 -35.666 32 -54.999zM838.005 626.996l-4.00098 -6c-12 0.666992 -31.667 10 -59 28s-45.666 32.667 -54.999 44
c-60 -46 -93.333 -69 -100 -69c-3.33301 0 -5 2.66699 -5 8s17.833 21.833 53.5 49.5s57.5 42.167 65.5 43.5l5 -2c19.333 -24 51 -53.333 95 -88z" />
    <glyph glyph-name="Atilde" unicode="&#xc3;" horiz-adv-x="540" 
d="M547 256c39.333 0 64.6709 -0.334961 76.0039 -1.00195c6.66699 -0.666992 10 -2.33398 10 -5.00098s-4.66699 -5 -14 -7l-44 -8c-18.667 -4.66699 -32.334 -10.667 -41.001 -18c-26 -68 -39 -138 -39 -210c0 -4.66699 0.333008 -9.33398 1 -14.001
c17.333 -1.33301 33.666 -2 48.999 -2c3.33301 0 8.33301 0.333008 15 1h14c6 0 9 -1.66699 9 -5c0 -5.33301 -3.66699 -13.166 -11 -23.499s-13.666 -17.166 -18.999 -20.499c-14.667 -10 -30.334 -15 -47.001 -15c-34 0 -53.667 16.667 -59 50
c-58 5.33301 -117.667 15.666 -179 30.999c-76 19.333 -131.667 41.333 -167 66c-94 -102 -141 -180.333 -141 -235c0 -3.33301 0.5 -8.5 1.5 -15.5s1.5 -12.167 1.5 -15.5c0 -8.66699 -4.33301 -13 -13 -13c-8 0 -14.5 4.16699 -19.5 12.5s-7.5 16.833 -7.5 25.5
c0 64 51.667 148 155 252c-38 32.667 -57 62.667 -57 90c0 38 33 63.333 99 76c41.333 8 88.666 10.667 141.999 8c103.333 93.333 214.666 188.333 333.999 285c9.33301 6.66699 22.666 17 39.999 31c2.66699 2.66699 6.66699 6.33398 12 11.001c27.333 22 51 33 71 33
c7.33301 0 11 -2.66699 11 -8c0 -8 -7.5 -27.167 -22.5 -57.5s-26.167 -48.833 -33.5 -55.5c-2 -1.33301 -5.33301 -3.33301 -10 -6c-1.33301 -1.33301 -4.66602 -7.66602 -9.99902 -18.999l-35 -64c-29.333 -57.333 -53.333 -108.666 -72 -153.999zM628.005 530.998
c-107.333 -73.333 -216.667 -164.333 -328 -273l214 -1c7.33301 21.333 18.333 49 33 83c54.667 124.667 82 188 82 190c0 0.666992 -0.333008 1 -1 1zM498.004 -26.002c4 -18.667 11.667 -28 23 -28c6 0 12 3 18 9s9 12 9 18v1h-10c-4.66699 -0.666992 -8 -1 -10 -1
c-9.33301 0 -19.333 0.333008 -30 1zM506.004 235.998l-32.999 -0.000976562c-16.667 0.666992 -27.334 1 -32.001 1c-99.333 0 -164 -11.667 -194 -35s-72.667 -59.333 -128 -108c55.333 -48 164.333 -80.333 327 -97v5c-0.666992 34.667 6 74.334 20 119.001z
M233.005 232.997c-6.66699 0.666992 -13.667 0.999023 -21 0.999023c-30 0 -59.667 -5.33301 -89 -16c-39.333 -14 -59 -33.333 -59 -58c0 -17.333 10.667 -35.666 32 -54.999zM612.005 671.996c-0.666992 -5.33301 -7.83203 -13.833 -21.499 -25.5s-23.5 -17.5 -29.5 -17.5
c-12 0 -27.333 6.5 -46 19.5s-33.334 19.5 -44.001 19.5c-8 0 -16.5 -3.33301 -25.5 -10s-14.167 -10 -15.5 -10l-3 4c1.33301 5.33301 9 13.333 23 24s23.667 16 29 16c8.66699 0 22.5 -5.83301 41.5 -17.5s35.833 -17.5 50.5 -17.5c7.33301 0 15.333 2.66699 24 8
s14 8.33301 16 9z" />
    <glyph glyph-name="Adieresis" unicode="&#xc4;" horiz-adv-x="540" 
d="M547 256c39.333 0 64.6709 -0.334961 76.0039 -1.00195c6.66699 -0.666992 10 -2.33398 10 -5.00098s-4.66699 -5 -14 -7l-44 -8c-18.667 -4.66699 -32.334 -10.667 -41.001 -18c-26 -68 -39 -138 -39 -210c0 -4.66699 0.333008 -9.33398 1 -14.001
c17.333 -1.33301 33.666 -2 48.999 -2c3.33301 0 8.33301 0.333008 15 1h14c6 0 9 -1.66699 9 -5c0 -5.33301 -3.66699 -13.166 -11 -23.499s-13.666 -17.166 -18.999 -20.499c-14.667 -10 -30.334 -15 -47.001 -15c-34 0 -53.667 16.667 -59 50
c-58 5.33301 -117.667 15.666 -179 30.999c-76 19.333 -131.667 41.333 -167 66c-94 -102 -141 -180.333 -141 -235c0 -3.33301 0.5 -8.5 1.5 -15.5s1.5 -12.167 1.5 -15.5c0 -8.66699 -4.33301 -13 -13 -13c-8 0 -14.5 4.16699 -19.5 12.5s-7.5 16.833 -7.5 25.5
c0 64 51.667 148 155 252c-38 32.667 -57 62.667 -57 90c0 38 33 63.333 99 76c41.333 8 88.666 10.667 141.999 8c103.333 93.333 214.666 188.333 333.999 285c9.33301 6.66699 22.666 17 39.999 31c2.66699 2.66699 6.66699 6.33398 12 11.001c27.333 22 51 33 71 33
c7.33301 0 11 -2.66699 11 -8c0 -8 -7.5 -27.167 -22.5 -57.5s-26.167 -48.833 -33.5 -55.5c-2 -1.33301 -5.33301 -3.33301 -10 -6c-1.33301 -1.33301 -4.66602 -7.66602 -9.99902 -18.999l-35 -64c-29.333 -57.333 -53.333 -108.666 -72 -153.999zM628.005 530.998
c-107.333 -73.333 -216.667 -164.333 -328 -273l214 -1c7.33301 21.333 18.333 49 33 83c54.667 124.667 82 188 82 190c0 0.666992 -0.333008 1 -1 1zM498.004 -26.002c4 -18.667 11.667 -28 23 -28c6 0 12 3 18 9s9 12 9 18v1h-10c-4.66699 -0.666992 -8 -1 -10 -1
c-9.33301 0 -19.333 0.333008 -30 1zM506.004 235.998l-32.999 -0.000976562c-16.667 0.666992 -27.334 1 -32.001 1c-99.333 0 -164 -11.667 -194 -35s-72.667 -59.333 -128 -108c55.333 -48 164.333 -80.333 327 -97v5c-0.666992 34.667 6 74.334 20 119.001z
M233.005 232.997c-6.66699 0.666992 -13.667 0.999023 -21 0.999023c-30 0 -59.667 -5.33301 -89 -16c-39.333 -14 -59 -33.333 -59 -58c0 -17.333 10.667 -35.666 32 -54.999zM832.005 700.996l-1 -1.00098l-17 -14c-8 -11.333 -16.333 -22.333 -25 -33
c-11.333 -15.333 -21.333 -23 -30 -23c-6.66699 0 -10 6 -10 18c0 10 10.667 21.333 32 34s37.333 19.334 48 20.001l2 -1h1zM732.005 700.995v-1.00098l-17 -14l-25 -33c-12 -15.333 -22.333 -23 -31 -23c-6.66699 0 -10 6 -10 18c0 10 10.667 21.333 32 34
s37.333 19.334 48 20.001l3 -1v0z" />
    <glyph glyph-name="Aring" unicode="&#xc5;" horiz-adv-x="575" 
d="M725 597l-23.9961 -57.002c-12 -24 -24.333 -39.667 -37 -47c-0.666992 -0.666992 -4 -7 -10 -19l-35 -64c-29.333 -57.333 -53.333 -108.666 -72 -153.999c39.333 0 64.666 -0.333008 75.999 -1c6.66699 -0.666992 10 -2.33398 10 -5.00098s-4.66699 -5 -14 -7l-44 -8
c-18.667 -4.66699 -32.334 -10.667 -41.001 -18c-26 -68 -39 -138 -39 -210c0 -4.66699 0.333008 -9.33398 1 -14.001c18 -1.33301 34.333 -2 49 -2c3.33301 0 8.33301 0.333008 15 1h15c5.33301 0 8 -1.66699 8 -5c0 -5.33301 -3.66699 -13.166 -11 -23.499
s-13.666 -17.166 -18.999 -20.499c-14.667 -10 -30.334 -15 -47.001 -15c-34 0 -53.667 16.667 -59 50c-58 5.33301 -117.667 15.666 -179 30.999c-76 19.333 -131.667 41.333 -167 66c-94 -102 -141 -180.333 -141 -235c0 -3.33301 0.5 -8.5 1.5 -15.5
s1.5 -12.167 1.5 -15.5c0 -8.66699 -4.33301 -13 -13 -13c-8 0 -14.5 4.16699 -19.5 12.5s-7.5 16.833 -7.5 25.5c0 64 51.667 148 155 252c-38 32.667 -57 62.667 -57 90c0 38 33.333 63.333 100 76c40.667 8 87.667 10.667 141 8
c103.333 93.333 214.666 188.333 333.999 285c9.33301 6.66699 22.666 17 39.999 31c8 6.66699 21 16.334 39 29.001c-3.33301 4.66699 -5 10 -5 16c0 11.333 3.83301 24.333 11.5 39s16.5 23.334 26.5 26.001c10 18 24.667 27 44 27c21.333 0 32 -12.667 32 -38
c0 -16 -6 -31.5 -18 -46.5s-25.667 -25.5 -41 -31.5zM764.004 673.998c0 16 -5.00195 23.999 -15.002 23.999c-6.66699 0 -15 -3.66699 -25 -11l8 -4c-1.33301 -3.33301 -7.66602 -12.666 -18.999 -27.999c-8 -11.333 -12 -22.333 -12 -33v-5c7.33301 2 13.333 3 18 3
c6.66699 0 10.334 -2 11.001 -6c22.667 12.667 34 32.667 34 60zM628.002 530.997c-107.333 -73.333 -216.667 -164.333 -328 -273l214 -1c7.33301 21.333 18.333 49 33 83c54.667 124.667 82 188 82 190c0 0.666992 -0.333008 1 -1 1zM498.001 -26.0029
c4 -18.667 11.667 -28 23 -28c6 0 12 3 18 9s9 12 9 18v1h-10c-4.66699 -0.666992 -8 -1 -10 -1c-9.33301 0 -19.333 0.333008 -30 1zM506.001 235.997l-32.999 -0.000976562c-16.667 0.666992 -27.334 1 -32.001 1c-99.333 0 -164 -11.667 -194 -35
s-72.667 -59.333 -128 -108c55.333 -48 164.333 -80.333 327 -97v5c-0.666992 34.667 6 74.334 20 119.001zM233.002 232.996c-6.66699 0.666992 -13.667 0.999023 -21 0.999023c-30 0 -59.667 -5.33301 -89 -16c-39.333 -14 -59 -33.333 -59 -58
c0 -17.333 10.667 -35.666 32 -54.999z" />
    <glyph glyph-name="AE" unicode="&#xc6;" horiz-adv-x="1168" 
d="M1201 549c11.333 -19.333 17.0039 -33.668 17.0039 -43.001c0 -16 -4 -25.333 -12 -28c-3.33301 8 -8 17.333 -14 28c-3.33301 -5.33301 -5 -10 -5 -14c0 -7.33301 -5.66699 -17.666 -17 -30.999c-6 -6.66699 -14 -10 -24 -10c-11.333 0 -17 3.33301 -17 10
c0 12 12.333 38 37 78c-21.333 38 -58.333 57 -111 57c-96.667 0 -193 -32.333 -289 -97c-92.667 -62 -161.334 -137.333 -206.001 -226c22 0.666992 99.667 2.66699 233 6c94.667 2.66699 172.334 4 233.001 4c8 0 12 -1.33301 12 -4c0 -8 -8.33301 -13.667 -25 -17
c-4.66699 -1.33301 -21.334 -2.66602 -50.001 -3.99902c-92 -2 -230.667 -6.66699 -416 -14c-16 -38 -24 -73.667 -24 -107c0 -54.667 21 -96 63 -124c35.333 -23.333 82.333 -35 141 -35c135.333 0 277.333 56 426 168c7.33301 6 12 9 14 9
c0.666992 -0.666992 1 -1.66699 1 -3c0 -2 -6.83301 -8.83301 -20.5 -20.5s-20.5 -19.834 -20.5 -24.501c0 -0.666992 0.333008 -1.66699 1 -3v-4c0 -1.33301 -0.333008 -2.66602 -1 -3.99902c-27.333 -34 -94.666 -66 -201.999 -96c-94.667 -26 -171 -39 -229 -39
c-66 0 -121 13 -165 39c-52.667 32 -79 78.333 -79 139c0 32 7.33301 65.667 22 101c-48 -3.33301 -87.333 -6.66602 -118 -9.99902c-58.667 -8 -95.334 -17.667 -110.001 -29c-29.333 -22.667 -71.666 -58.334 -126.999 -107.001c38 -33.333 101.667 -60 191 -80l45 -9
c10 -2.66699 15 -6 15 -10c0 -2.66699 -3.33301 -4 -10 -4c-28 0 -72.333 10 -133 30s-102.667 38 -126 54c-94 -102 -141 -180.333 -141 -235c0 -3.33301 0.5 -8.5 1.5 -15.5s1.5 -12.167 1.5 -15.5c0 -8.66699 -4.33301 -13 -13 -13c-8 0 -14.5 4.16699 -19.5 12.5
s-7.5 16.833 -7.5 25.5c0 64 51.667 148 155 252c-38 32.667 -57 62.667 -57 90c0 38 33.333 63.333 100 76c40.667 8 87.667 10.667 141 8c103.333 93.333 214.666 188.333 333.999 285c9.33301 6.66699 22.666 17 39.999 31l5 5c5.33301 7.33301 17.5 15.666 36.5 24.999
s32.833 14 41.5 14c7.33301 0 11 -2.66699 11 -8c0 -7.33301 -7.33301 -25.833 -22 -55.5s-25.334 -47.834 -32.001 -54.501c0 -0.666992 -4 -3.66699 -12 -9c-4.66699 -9.33301 -11.334 -21.666 -20.001 -36.999c57.333 46.667 122.666 84.667 195.999 114
c78 31.333 151.667 47 221 47c22.667 0 45.334 -3.66699 68.001 -11c28 -8.66699 47 -20.667 57 -36c18 22 27 38.667 27 50s4.33301 17 13 17c4.66699 0 7 -4 7 -12c0 -8.66699 -10.667 -34 -32 -76zM628.004 530.998c-107.333 -72.667 -216.668 -163.667 -328.001 -273
c22.667 0 54.334 2.33301 95.001 7c44 5.33301 75.667 8.33301 95 9c13.333 25.333 29.666 50.333 48.999 75c4.66699 5.33301 11.334 13.666 20.001 24.999c4 6.66699 16.667 33.334 38 80.001s32 72 32 76c0 0.666992 -0.333008 1 -1 1zM233.002 232.998
c-6.66699 0.666992 -13.667 0.999023 -21 0.999023c-30 0 -59.667 -5.33301 -89 -16c-39.333 -14 -59 -33.333 -59 -58c0 -17.333 10.667 -35.666 32 -54.999z" />
    <glyph glyph-name="Ccedilla" unicode="&#xc7;" horiz-adv-x="682" 
d="M754 549c11.333 -19.333 17.002 -33.6699 17.002 -43.0029c0 -16 -4 -25.333 -12 -28c-3.33301 8 -8 17.333 -14 28c-10 -24 -27 -55.667 -51 -95c-4 -4 -10.667 -6 -20 -6c-4.66699 0 -13 1.33301 -25 4s-18 5.33398 -18 8.00098c0 8 12.667 27.667 38 59
c31.333 39.333 48 60.333 50 63c-21.333 38 -58.333 57 -111 57c-62 0 -127 -15 -195 -45c-47.333 -20.667 -92.333 -47.667 -135 -81c-54 -42.667 -99.333 -91.667 -136 -147c-44 -66 -66 -128 -66 -186c0 -54.667 21 -96 63 -124c35.333 -23.333 82 -35 140 -35
c135.333 0 277.666 56 426.999 168c5.33301 4 9.33301 6 12 6c2 0 3 -1 3 -3c0 -6.66699 -3.33301 -12.667 -10 -18c-12.667 -11.333 -34 -27 -64 -47c-120.667 -82.667 -246.334 -124 -377.001 -124c-18.667 0 -36.334 1 -53.001 3c-22 -9.33301 -33 -25.666 -33 -48.999
c0 -8.66699 6.66699 -22.167 20 -40.5s20 -33.166 20 -44.499c0 -28.667 -15 -51.667 -45 -69c-24.667 -14 -53 -21 -85 -21c-4.66699 0 -7 3 -7 9c0 2.66699 2.66699 5 8 7l62 10c21.333 6 32 22.333 32 49c0 7.33301 -6 20.333 -18 39s-18 33 -18 43
c0 32.667 13 55.667 39 69c-124.667 18 -187 76 -187 174c0 62 25.333 127.333 76 196c42 56.667 93.333 106.667 154 150c48.667 34.667 100.667 62.667 156 84c80 32 154.333 48 223 48c22.667 0 45.334 -3.66699 68.001 -11c28 -8.66699 47 -20.667 57 -36
c18 22.667 27 39.5 27 50.5s4.33301 16.5 13 16.5c4.66699 0 7 -4 7 -12c0 -8.66699 -10.667 -34 -32 -76z" />
    <glyph glyph-name="Egrave" unicode="&#xc8;" horiz-adv-x="807" 
d="M794 549c11.333 -19.333 16.998 -33.666 16.998 -42.999c0 -16.667 -4 -26 -12 -28c-1.33301 0 -2.33301 1.33301 -3 4c-2 8 -5.66699 16 -11 24c-3.33301 -5.33301 -5 -10 -5 -14c0 -6.66699 -6 -17 -18 -31c-5.33301 -6.66699 -13 -10 -23 -10
c-12 0 -18 3.33301 -18 10c0 12 12.333 38 37 78c-21.333 38 -58.333 57 -111 57c-83.333 0 -167.666 -25 -252.999 -75c-79.333 -46 -145 -104.667 -197 -176c97.333 12 216.333 18 357 18c48 0 79 -1.66699 93 -5c8.66699 -2 13 -4 13 -6c0 -5.33301 -10.333 -9 -31 -11
l-104 -6c-82.667 -4.66699 -153.667 -9.33398 -213 -14.001c-32 -2.66699 -79.667 -8.66699 -143 -18c-36 -59.333 -54 -114.666 -54 -165.999c0 -10.667 1 -20.667 3 -30c77.333 -22 142 -33 194 -33h10c4 0.666992 7 1 9 1c4.66699 0 7 -0.666992 7 -2
c0 -4.66699 -9.66699 -7 -29 -7c-68.667 0 -130.667 6.33301 -186 19c22.667 -71.333 88 -107 196 -107c136 0 278 56 426 168c7.33301 6 12 9 14 9c0.666992 -0.666992 1 -1.66699 1 -3c0 -2 -6.66699 -8.83301 -20 -20.5s-20 -19.834 -20 -24.501v-3
c0.666992 -2 1 -3.33301 1 -4l-2 -4c-27.333 -34 -94.666 -66 -201.999 -96c-94.667 -26 -171 -39 -229 -39c-58.667 0 -109.334 11 -152.001 33c-52 26.667 -81.667 66 -89 118c-23.333 10.667 -43 24.667 -59 42c-20.667 20.667 -31 41.334 -31 62.001
c0 51.333 53.333 89.666 160 114.999c58.667 81.333 137.667 149 237 203c102 55.333 202 83 300 83c22.667 0 45.334 -3.66699 68.001 -11c28 -8.66699 47 -20.667 57 -36c17.333 22 26 38.667 26 50s4.66699 17 14 17c4 0 6 -4 6 -12c0 -8.66699 -10.333 -34 -31 -76z
M85.998 281c-65.333 -23.333 -98 -49.999 -98 -79.999c0 -26.667 19 -49.334 57 -68.001v6c-0.666992 42.667 13 90 41 142zM764.998 654.001c0 -4 -2 -5.99902 -6 -5.99902l-117 66c-16.667 9.33301 -25 18.666 -25 27.999c0 8.66699 6.66699 13 20 13
c11.333 0 23.333 -5.66699 36 -17l51 -42c27.333 -22 41 -36 41 -42z" />
    <glyph glyph-name="Eacute" unicode="&#xc9;" horiz-adv-x="590" 
d="M794 549c11.333 -19.333 16.998 -33.666 16.998 -42.999c0 -16.667 -4 -26 -12 -28c-1.33301 0 -2.33301 1.33301 -3 4c-2 8 -5.66699 16 -11 24c-3.33301 -5.33301 -5 -10 -5 -14c0 -6.66699 -6 -17 -18 -31c-5.33301 -6.66699 -13 -10 -23 -10
c-12 0 -18 3.33301 -18 10c0 12 12.333 38 37 78c-21.333 38 -58.333 57 -111 57c-83.333 0 -167.666 -25 -252.999 -75c-79.333 -46 -145 -104.667 -197 -176c97.333 12 216.333 18 357 18c48 0 79 -1.66699 93 -5c8.66699 -2 13 -4 13 -6c0 -5.33301 -10.333 -9 -31 -11
l-104 -6c-82.667 -4.66699 -153.667 -9.33398 -213 -14.001c-32 -2.66699 -79.667 -8.66699 -143 -18c-36 -59.333 -54 -114.666 -54 -165.999c0 -10.667 1 -20.667 3 -30c77.333 -22 142 -33 194 -33h10c4 0.666992 7 1 9 1c4.66699 0 7 -0.666992 7 -2
c0 -4.66699 -9.66699 -7 -29 -7c-68.667 0 -130.667 6.33301 -186 19c22.667 -71.333 88 -107 196 -107c136 0 278 56 426 168c7.33301 6 12 9 14 9c0.666992 -0.666992 1 -1.66699 1 -3c0 -2 -6.66699 -8.83301 -20 -20.5s-20 -19.834 -20 -24.501v-3
c0.666992 -2 1 -3.33301 1 -4l-2 -4c-27.333 -34 -94.666 -66 -201.999 -96c-94.667 -26 -171 -39 -229 -39c-58.667 0 -109.334 11 -152.001 33c-52 26.667 -81.667 66 -89 118c-23.333 10.667 -43 24.667 -59 42c-20.667 20.667 -31 41.334 -31 62.001
c0 51.333 53.333 89.666 160 114.999c58.667 81.333 137.667 149 237 203c102 55.333 202 83 300 83c22.667 0 45.334 -3.66699 68.001 -11c28 -8.66699 47 -20.667 57 -36c17.333 22 26 38.667 26 50s4.66699 17 14 17c4 0 6 -4 6 -12c0 -8.66699 -10.333 -34 -31 -76z
M85.998 281c-65.333 -23.333 -98 -49.999 -98 -79.999c0 -26.667 19 -49.334 57 -68.001v6c-0.666992 42.667 13 90 41 142zM632.998 646.001c-2.66699 0 -4 1.33301 -4 4c0 5.33301 19.333 20 58 44l71 42c18 11.333 32.667 17 44 17c10 0 15 -3 15 -9
c0 -10 -12.667 -21 -38 -33c-98 -43.333 -146.667 -65 -146 -65z" />
    <glyph glyph-name="Ecircumflex" unicode="&#xca;" horiz-adv-x="807" 
d="M794 549c11.333 -19.333 16.998 -33.666 16.998 -42.999c0 -16.667 -4 -26 -12 -28c-1.33301 0 -2.33301 1.33301 -3 4c-2 8 -5.66699 16 -11 24c-3.33301 -5.33301 -5 -10 -5 -14c0 -6.66699 -6 -17 -18 -31c-5.33301 -6.66699 -13 -10 -23 -10
c-12 0 -18 3.33301 -18 10c0 12 12.333 38 37 78c-21.333 38 -58.333 57 -111 57c-83.333 0 -167.666 -25 -252.999 -75c-79.333 -46 -145 -104.667 -197 -176c97.333 12 216.333 18 357 18c48 0 79 -1.66699 93 -5c8.66699 -2 13 -4 13 -6c0 -5.33301 -10.333 -9 -31 -11
l-104 -6c-82.667 -4.66699 -153.667 -9.33398 -213 -14.001c-32 -2.66699 -79.667 -8.66699 -143 -18c-36 -59.333 -54 -114.666 -54 -165.999c0 -10.667 1 -20.667 3 -30c77.333 -22 142 -33 194 -33h10c4 0.666992 7 1 9 1c4.66699 0 7 -0.666992 7 -2
c0 -4.66699 -9.66699 -7 -29 -7c-68.667 0 -130.667 6.33301 -186 19c22.667 -71.333 88 -107 196 -107c136 0 278 56 426 168c7.33301 6 12 9 14 9c0.666992 -0.666992 1 -1.66699 1 -3c0 -2 -6.66699 -8.83301 -20 -20.5s-20 -19.834 -20 -24.501v-3
c0.666992 -2 1 -3.33301 1 -4l-2 -4c-27.333 -34 -94.666 -66 -201.999 -96c-94.667 -26 -171 -39 -229 -39c-58.667 0 -109.334 11 -152.001 33c-52 26.667 -81.667 66 -89 118c-23.333 10.667 -43 24.667 -59 42c-20.667 20.667 -31 41.334 -31 62.001
c0 51.333 53.333 89.666 160 114.999c58.667 81.333 137.667 149 237 203c102 55.333 202 83 300 83c22.667 0 45.334 -3.66699 68.001 -11c28 -8.66699 47 -20.667 57 -36c17.333 22 26 38.667 26 50s4.66699 17 14 17c4 0 6 -4 6 -12c0 -8.66699 -10.333 -34 -31 -76z
M85.998 281c-65.333 -23.333 -98 -49.999 -98 -79.999c0 -26.667 19 -49.334 57 -68.001v6c-0.666992 42.667 13 90 41 142zM790.998 671.001l-4.00098 -6.00098c-12 0.666992 -31.667 10.167 -59 28.5s-45.666 32.833 -54.999 43.5c-60 -46 -93.333 -69 -100 -69
c-3.33301 0 -5 2.66699 -5 8s17.833 21.833 53.5 49.5s57.5 42.5 65.5 44.5l5 -3c19.333 -23.333 51 -52.666 95 -87.999z" />
    <glyph glyph-name="Edieresis" unicode="&#xcb;" horiz-adv-x="807" 
d="M794 549c11.333 -19.333 16.998 -33.666 16.998 -42.999c0 -16.667 -4 -26 -12 -28c-1.33301 0 -2.33301 1.33301 -3 4c-2 8 -5.66699 16 -11 24c-3.33301 -5.33301 -5 -10 -5 -14c0 -6.66699 -6 -17 -18 -31c-5.33301 -6.66699 -13 -10 -23 -10
c-12 0 -18 3.33301 -18 10c0 12 12.333 38 37 78c-21.333 38 -58.333 57 -111 57c-83.333 0 -167.666 -25 -252.999 -75c-79.333 -46 -145 -104.667 -197 -176c97.333 12 216.333 18 357 18c48 0 79 -1.66699 93 -5c8.66699 -2 13 -4 13 -6c0 -5.33301 -10.333 -9 -31 -11
l-104 -6c-82.667 -4.66699 -153.667 -9.33398 -213 -14.001c-32 -2.66699 -79.667 -8.66699 -143 -18c-36 -59.333 -54 -114.666 -54 -165.999c0 -10.667 1 -20.667 3 -30c77.333 -22 142 -33 194 -33h10c4 0.666992 7 1 9 1c4.66699 0 7 -0.666992 7 -2
c0 -4.66699 -9.66699 -7 -29 -7c-68.667 0 -130.667 6.33301 -186 19c22.667 -71.333 88 -107 196 -107c136 0 278 56 426 168c7.33301 6 12 9 14 9c0.666992 -0.666992 1 -1.66699 1 -3c0 -2 -6.66699 -8.83301 -20 -20.5s-20 -19.834 -20 -24.501v-3
c0.666992 -2 1 -3.33301 1 -4l-2 -4c-27.333 -34 -94.666 -66 -201.999 -96c-94.667 -26 -171 -39 -229 -39c-58.667 0 -109.334 11 -152.001 33c-52 26.667 -81.667 66 -89 118c-23.333 10.667 -43 24.667 -59 42c-20.667 20.667 -31 41.334 -31 62.001
c0 51.333 53.333 89.666 160 114.999c58.667 81.333 137.667 149 237 203c102 55.333 202 83 300 83c22.667 0 45.334 -3.66699 68.001 -11c28 -8.66699 47 -20.667 57 -36c17.333 22 26 38.667 26 50s4.66699 17 14 17c4 0 6 -4 6 -12c0 -8.66699 -10.333 -34 -31 -76z
M85.998 281c-65.333 -23.333 -98 -49.999 -98 -79.999c0 -26.667 19 -49.334 57 -68.001v6c-0.666992 42.667 13 90 41 142zM784.998 724.001c-4 -4 -8.33301 -8.66699 -13 -14c-0.666992 0 -6.33398 -10.667 -17.001 -32c-7.33301 -15.333 -15.333 -23 -24 -23
c-10 0 -15 8 -15 24c0 8 8.83301 17.833 26.5 29.5s30.834 17.5 39.501 17.5l3 -1v1v-2zM684.998 724.001c-4 -4 -8.33398 -8.66699 -13.001 -14l-17 -32c-7.33301 -15.333 -15.333 -23 -24 -23c-10 0 -15 8 -15 24c0 8 8.83301 17.833 26.5 29.5s30.834 17.5 39.501 17.5
l3 -1v1v-2z" />
    <glyph glyph-name="Igrave" unicode="&#xcc;" horiz-adv-x="546" 
d="M644 553c-18 0 -37.998 0.999023 -59.998 2.99902c-196 -233.333 -313 -422.666 -351 -567.999c53.333 -7.33301 97 -11 131 -11c58.667 0 97 10 115 30c6.66699 7.33301 11 11 13 11c1.33301 0 2 -1 2 -3c0 -6 -3.66699 -12.333 -11 -19
c-32.667 -29.333 -88.334 -44 -167.001 -44c-24.667 0 -55 1.66699 -91 5c-1.33301 -10.667 -2 -19.667 -2 -27c0 -19.333 5.66699 -29 17 -29c3.33301 0 8.83301 0.833008 16.5 2.5s13.5 2.5 17.5 2.5c4.66699 0 7 -0.666992 7 -2c0 -4 -10.833 -8.66699 -32.5 -14
s-36.5 -8 -44.5 -8c-28.667 0 -43 15 -43 45c0 10.667 1.33301 22.667 4 36c-47.333 4.66699 -82 7 -104 7c-48 0 -72 -10.333 -72 -31c0 -9.33301 8.33301 -17.333 25 -24s25 -10.334 25 -11.001c0 -2 -2.33301 -3 -7 -3c-15.333 0 -30 5.16699 -44 15.5
s-21 22.833 -21 37.5c0 18 8.66699 32 26 42c14 8 30.667 12 50 12c24.667 0 68.667 -4 132 -12c30.667 84 102 207 214 369c47.333 68.667 86.333 122.667 117 162c-0.666992 6.66699 6 18.667 20 36c-34 5.33301 -67.667 11 -101 17c-40 6 -74 9 -102 9
c-38.667 0 -73.334 -5.66699 -104.001 -17c-42 -16.667 -63 -41.334 -63 -74.001c0 -25.333 14 -48 42 -68c20.667 -16 46 -28.333 76 -37c10 -2.66699 31 -6.66699 63 -12c6 -1.33301 9 -3.33301 9 -6s-3.66699 -4 -11 -4c-41.333 0 -89 12.333 -143 37
c-64.667 29.333 -97 62.333 -97 99s27.333 64.334 82 83.001c38.667 12.667 80.667 19 126 19c31.333 0 71.333 -3.33301 120 -10c74 -10 113.667 -15.333 119 -16c6 8.66699 15 20.334 27 35.001c10.667 10.667 28 16 52 16c13.333 0 20 -3 20 -9
c0 -1.33301 -13 -17.333 -39 -48c26 -1.33301 49 -2 69 -2c48.667 0 79 5.66699 91 17c4.66699 4.66699 8.33398 7 11.001 7c1.33301 0 2 -1 2 -3s-1 -4.33301 -3 -7c-18.667 -24 -61.334 -36 -128.001 -36zM687.002 664.999c0 -4 -2 -6 -6 -6
c0.666992 0 -38 21.667 -116 65c-17.333 9.33301 -26 19 -26 29c0 8.66699 6.66699 13 20 13c12 0 24.333 -5.66699 37 -17l51 -42c26.667 -22.667 40 -36.667 40 -42z" />
    <glyph glyph-name="Iacute" unicode="&#xcd;" horiz-adv-x="546" 
d="M644 553c-18 0 -37.998 0.999023 -59.998 2.99902c-196 -233.333 -313 -422.666 -351 -567.999c53.333 -7.33301 97 -11 131 -11c58.667 0 97 10 115 30c6.66699 7.33301 11 11 13 11c1.33301 0 2 -1 2 -3c0 -6 -3.66699 -12.333 -11 -19
c-32.667 -29.333 -88.334 -44 -167.001 -44c-24.667 0 -55 1.66699 -91 5c-1.33301 -10.667 -2 -19.667 -2 -27c0 -19.333 5.66699 -29 17 -29c3.33301 0 8.83301 0.833008 16.5 2.5s13.5 2.5 17.5 2.5c4.66699 0 7 -0.666992 7 -2c0 -4 -10.833 -8.66699 -32.5 -14
s-36.5 -8 -44.5 -8c-28.667 0 -43 15 -43 45c0 10.667 1.33301 22.667 4 36c-47.333 4.66699 -82 7 -104 7c-48 0 -72 -10.333 -72 -31c0 -9.33301 8.33301 -17.333 25 -24s25 -10.334 25 -11.001c0 -2 -2.33301 -3 -7 -3c-15.333 0 -30 5.16699 -44 15.5
s-21 22.833 -21 37.5c0 18 8.66699 32 26 42c14 8 30.667 12 50 12c24.667 0 68.667 -4 132 -12c30.667 84 102 207 214 369c47.333 68.667 86.333 122.667 117 162c-0.666992 6.66699 6 18.667 20 36c-34 5.33301 -67.667 11 -101 17c-40 6 -74 9 -102 9
c-38.667 0 -73.334 -5.66699 -104.001 -17c-42 -16.667 -63 -41.334 -63 -74.001c0 -25.333 14 -48 42 -68c20.667 -16 46 -28.333 76 -37c10 -2.66699 31 -6.66699 63 -12c6 -1.33301 9 -3.33301 9 -6s-3.66699 -4 -11 -4c-41.333 0 -89 12.333 -143 37
c-64.667 29.333 -97 62.333 -97 99s27.333 64.334 82 83.001c38.667 12.667 80.667 19 126 19c31.333 0 71.333 -3.33301 120 -10c74 -10 113.667 -15.333 119 -16c6 8.66699 15 20.334 27 35.001c10.667 10.667 28 16 52 16c13.333 0 20 -3 20 -9
c0 -1.33301 -13 -17.333 -39 -48c26 -1.33301 49 -2 69 -2c48.667 0 79 5.66699 91 17c4.66699 4.66699 8.33398 7 11.001 7c1.33301 0 2 -1 2 -3s-1 -4.33301 -3 -7c-18.667 -24 -61.334 -36 -128.001 -36zM775.002 755.999c0 -8.66699 -10 -18 -30 -28
c-86 -44 -128.667 -66 -128 -66c-3.33301 0 -5 2 -5 6c0 4.66699 15.667 18.667 47 42l59 42c14.667 11.333 27.667 17 39 17c12 0 18 -4.33301 18 -13z" />
    <glyph glyph-name="Icircumflex" unicode="&#xce;" horiz-adv-x="546" 
d="M644 553c-18 0 -37.998 0.999023 -59.998 2.99902c-196 -233.333 -313 -422.666 -351 -567.999c53.333 -7.33301 97 -11 131 -11c58.667 0 97 10 115 30c6.66699 7.33301 11 11 13 11c1.33301 0 2 -1 2 -3c0 -6 -3.66699 -12.333 -11 -19
c-32.667 -29.333 -88.334 -44 -167.001 -44c-24.667 0 -55 1.66699 -91 5c-1.33301 -10.667 -2 -19.667 -2 -27c0 -19.333 5.66699 -29 17 -29c3.33301 0 8.83301 0.833008 16.5 2.5s13.5 2.5 17.5 2.5c4.66699 0 7 -0.666992 7 -2c0 -4 -10.833 -8.66699 -32.5 -14
s-36.5 -8 -44.5 -8c-28.667 0 -43 15 -43 45c0 10.667 1.33301 22.667 4 36c-47.333 4.66699 -82 7 -104 7c-48 0 -72 -10.333 -72 -31c0 -9.33301 8.33301 -17.333 25 -24s25 -10.334 25 -11.001c0 -2 -2.33301 -3 -7 -3c-15.333 0 -30 5.16699 -44 15.5
s-21 22.833 -21 37.5c0 18 8.66699 32 26 42c14 8 30.667 12 50 12c24.667 0 68.667 -4 132 -12c30.667 84 102 207 214 369c47.333 68.667 86.333 122.667 117 162c-0.666992 6.66699 6 18.667 20 36c-34 5.33301 -67.667 11 -101 17c-40 6 -74 9 -102 9
c-38.667 0 -73.334 -5.66699 -104.001 -17c-42 -16.667 -63 -41.334 -63 -74.001c0 -25.333 14 -48 42 -68c20.667 -16 46 -28.333 76 -37c10 -2.66699 31 -6.66699 63 -12c6 -1.33301 9 -3.33301 9 -6s-3.66699 -4 -11 -4c-41.333 0 -89 12.333 -143 37
c-64.667 29.333 -97 62.333 -97 99s27.333 64.334 82 83.001c38.667 12.667 80.667 19 126 19c31.333 0 71.333 -3.33301 120 -10c74 -10 113.667 -15.333 119 -16c6 8.66699 15 20.334 27 35.001c10.667 10.667 28 16 52 16c13.333 0 20 -3 20 -9
c0 -1.33301 -13 -17.333 -39 -48c26 -1.33301 49 -2 69 -2c48.667 0 79 5.66699 91 17c4.66699 4.66699 8.33398 7 11.001 7c1.33301 0 2 -1 2 -3s-1 -4.33301 -3 -7c-18.667 -24 -61.334 -36 -128.001 -36zM722.002 648.999l-4.00098 -6
c-12 0.666992 -31.667 10.167 -59 28.5s-45.666 32.833 -54.999 43.5c-60 -46 -93.333 -69 -100 -69c-3.33301 0 -5 2.66699 -5 8s17.833 21.833 53.5 49.5s57.5 42.167 65.5 43.5l5 -2c19.333 -24 51 -53.333 95 -88z" />
    <glyph glyph-name="Idieresis" unicode="&#xcf;" horiz-adv-x="546" 
d="M644 553c-18 0 -37.998 0.999023 -59.998 2.99902c-196 -233.333 -313 -422.666 -351 -567.999c53.333 -7.33301 97 -11 131 -11c58.667 0 97 10 115 30c6.66699 7.33301 11 11 13 11c1.33301 0 2 -1 2 -3c0 -6 -3.66699 -12.333 -11 -19
c-32.667 -29.333 -88.334 -44 -167.001 -44c-24.667 0 -55 1.66699 -91 5c-1.33301 -10.667 -2 -19.667 -2 -27c0 -19.333 5.66699 -29 17 -29c3.33301 0 8.83301 0.833008 16.5 2.5s13.5 2.5 17.5 2.5c4.66699 0 7 -0.666992 7 -2c0 -4 -10.833 -8.66699 -32.5 -14
s-36.5 -8 -44.5 -8c-28.667 0 -43 15 -43 45c0 10.667 1.33301 22.667 4 36c-47.333 4.66699 -82 7 -104 7c-48 0 -72 -10.333 -72 -31c0 -9.33301 8.33301 -17.333 25 -24s25 -10.334 25 -11.001c0 -2 -2.33301 -3 -7 -3c-15.333 0 -30 5.16699 -44 15.5
s-21 22.833 -21 37.5c0 18 8.66699 32 26 42c14 8 30.667 12 50 12c24.667 0 68.667 -4 132 -12c30.667 84 102 207 214 369c47.333 68.667 86.333 122.667 117 162c-0.666992 6.66699 6 18.667 20 36c-34 5.33301 -67.667 11 -101 17c-40 6 -74 9 -102 9
c-38.667 0 -73.334 -5.66699 -104.001 -17c-42 -16.667 -63 -41.334 -63 -74.001c0 -25.333 14 -48 42 -68c20.667 -16 46 -28.333 76 -37c10 -2.66699 31 -6.66699 63 -12c6 -1.33301 9 -3.33301 9 -6s-3.66699 -4 -11 -4c-41.333 0 -89 12.333 -143 37
c-64.667 29.333 -97 62.333 -97 99s27.333 64.334 82 83.001c38.667 12.667 80.667 19 126 19c31.333 0 71.333 -3.33301 120 -10c74 -10 113.667 -15.333 119 -16c6 8.66699 15 20.334 27 35.001c10.667 10.667 28 16 52 16c13.333 0 20 -3 20 -9
c0 -1.33301 -13 -17.333 -39 -48c26 -1.33301 49 -2 69 -2c48.667 0 79 5.66699 91 17c4.66699 4.66699 8.33398 7 11.001 7c1.33301 0 2 -1 2 -3s-1 -4.33301 -3 -7c-18.667 -24 -61.334 -36 -128.001 -36zM749.002 739.999l-14 -14l-16 -33c-8 -14.667 -16 -22 -24 -22
c-10.667 0 -16 8 -16 24c0 7.33301 9 17 27 29s31.333 18 40 18l2 -1v1zM649.002 739.999c-4 -4 -8.33398 -8.66699 -13.001 -14l-17 -33c-7.33301 -14.667 -15.333 -22 -24 -22c-10 0 -15 8 -15 24c0 7.33301 8.83301 17 26.5 29s30.834 18 39.501 18l3 -1v1v-2z" />
    <glyph glyph-name="Ntilde" unicode="&#xd1;" horiz-adv-x="774" 
d="M612 4c-5.33301 0 -8 4.66406 -8 13.9971c0 50.667 38.333 143.334 115 278.001c69.333 122.667 127.333 209.334 174 260.001c-15.333 -6 -32.666 -9 -51.999 -9c-4.66699 0 -7 2 -7 6c0 4.66699 3 7 9 7c33.333 0 58.666 7.33301 75.999 22l33 34
c14.667 13.333 28.667 20 42 20c11.333 0 17 -6 17 -18c0 -14 -7.66699 -26.333 -23 -37c-25.333 -18 -45 -33.667 -59 -47c-54.667 -50.667 -109.667 -120.667 -165 -210c-52.667 -83.333 -93 -163 -121 -239c-5.33301 -13.333 -12.333 -34.666 -21 -63.999
c-2.66699 -11.333 -6 -17 -10 -17zM690 -19.0029c0 -2.66699 -2 -10.666 -6 -23.999c-14.667 -42.667 -33.334 -63.334 -56.001 -62.001h-3c-12 2 -23.333 9 -34 21c-27.333 30.667 -61.333 119.667 -102 267l-43 150c-90 -196.667 -162.667 -322 -218 -376
c-45.333 -44 -87.333 -66 -126 -66c-29.333 0 -52 12.667 -68 38c-14 22 -21 48.333 -21 79c0 49.333 15.667 96 47 140c29.333 41.333 67.333 73.333 114 96c5.33301 2.66699 10.333 4 15 4c4 0 6 -1 6 -3c0 -1.33301 -2.33301 -3.33301 -7 -6
c-102.667 -64 -154 -138.667 -154 -224c0 -22 4.66699 -40.667 14 -56c11.333 -17.333 27.333 -26 48 -26c80 0 193.667 143.333 341 430c-37.333 112.667 -76.333 169 -117 169c-23.333 0 -47.666 -17.667 -72.999 -53s-40 -53 -44 -53c-1.33301 0 -2 1 -2 3
s0.333008 4 1 6c19.333 43.333 50.333 79.333 93 108c6 4 15 9.33301 27 16c12 4 22 6 30 6c43.333 0 80.333 -50 111 -150c12.667 26.667 21.667 40 27 40c1.33301 0 2 -1.33301 2 -4c0 -7.33301 -7 -28 -21 -62c8 -29.333 20.667 -78.333 38 -147
c22 -89.333 37.333 -147.333 46 -174c29.333 -90 57 -135 83 -135c12 0 22.833 8.83301 32.5 26.5s15.167 26.5 16.5 26.5c2 0 3 -1.66699 3 -5zM814 607.998c-2 -5.33301 -11.501 -13.833 -28.501 -25.5s-28.167 -17.5 -33.5 -17.5c-12 0 -25.667 6.33301 -41 19
s-28.333 19 -39 19c-8 0 -17.167 -3.16699 -27.5 -9.5s-16.833 -9.83301 -19.5 -10.5l-1 4c2 5.33301 11.5 13.333 28.5 24s28.167 16 33.5 16c8.66699 0 21 -5.83301 37 -17.5s31.333 -17.5 46 -17.5c7.33301 0 15.833 2.83301 25.5 8.5s15.834 8.5 18.501 8.5z" />
    <glyph glyph-name="Ograve" unicode="&#xd2;" horiz-adv-x="521" 
d="M741 536c0 -5.33301 -3.33301 -8 -10 -8c-3.33301 0 -7 0.666992 -11 2c-36 17.333 -71.333 27.333 -106 30c76 -40.667 114 -98.334 114 -173.001c0 -64.667 -29.667 -136.667 -89 -216c-48 -64 -106 -116.333 -174 -157c-74.667 -44.667 -148.667 -67 -222 -67
c-144.667 0 -217 52.333 -217 157c0 71.333 33.333 148 100 230c-10 26.667 -15 52 -15 76c0 66.667 35.333 118 106 154c56 28 120.667 42 194 42c58.667 0 112.334 -9 161.001 -27h10c55.333 0.666992 103.666 -8.66602 144.999 -27.999
c9.33301 -4.66699 14 -9.66699 14 -15zM480 567c-32 8 -65 12 -99 12c-60 0 -111.333 -12.333 -154 -37c-50.667 -29.333 -76 -72 -76 -128c0 -14.667 1.66699 -30 5 -46c95.333 104.667 203.333 171 324 199zM676 356c0 47.333 -15.333 88.667 -46 124
c-27.333 32 -64.333 57 -111 75c-65.333 -12 -130.333 -39 -195 -81c-61.333 -39.333 -114.333 -86.333 -159 -141c8.66699 -22 22 -44.333 40 -67c23.333 -29.333 43.666 -44 60.999 -44c11.333 0 19 7.33301 23 22c1.33301 3.33301 3.33301 15 6 35
c0.666992 5.33301 3.33398 8 8.00098 8c5.33301 0 8 -3 8 -9c0 -46.667 -17 -70 -51 -70c-22 0 -45 11 -69 33c-18.667 18 -34.667 39.333 -48 64c-46.667 -64.667 -70 -124.667 -70 -180c0 -48 17.333 -85.333 52 -112c30.667 -23.333 70.667 -35 120 -35
c66 0 132.333 16.667 199 50s118.667 76.333 156 129c50.667 72 76 138.333 76 199zM629 629.001c0 -4 -2 -6 -6 -6l-117 65c-16.667 9.33301 -25 19 -25 29c0 8.66699 6.66699 13 20 13c11.333 0 23.333 -5.66699 36 -17l52 -42c26.667 -22.667 40 -36.667 40 -42z" />
    <glyph glyph-name="Oacute" unicode="&#xd3;" horiz-adv-x="521" 
d="M741 536c0 -5.33301 -3.33301 -8 -10 -8c-3.33301 0 -7 0.666992 -11 2c-36 17.333 -71.333 27.333 -106 30c76 -40.667 114 -98.334 114 -173.001c0 -64.667 -29.667 -136.667 -89 -216c-48 -64 -106 -116.333 -174 -157c-74.667 -44.667 -148.667 -67 -222 -67
c-144.667 0 -217 52.333 -217 157c0 71.333 33.333 148 100 230c-10 26.667 -15 52 -15 76c0 66.667 35.333 118 106 154c56 28 120.667 42 194 42c58.667 0 112.334 -9 161.001 -27h10c55.333 0.666992 103.666 -8.66602 144.999 -27.999
c9.33301 -4.66699 14 -9.66699 14 -15zM480 567c-32 8 -65 12 -99 12c-60 0 -111.333 -12.333 -154 -37c-50.667 -29.333 -76 -72 -76 -128c0 -14.667 1.66699 -30 5 -46c95.333 104.667 203.333 171 324 199zM676 356c0 47.333 -15.333 88.667 -46 124
c-27.333 32 -64.333 57 -111 75c-65.333 -12 -130.333 -39 -195 -81c-61.333 -39.333 -114.333 -86.333 -159 -141c8.66699 -22 22 -44.333 40 -67c23.333 -29.333 43.666 -44 60.999 -44c11.333 0 19 7.33301 23 22c1.33301 3.33301 3.33301 15 6 35
c0.666992 5.33301 3.33398 8 8.00098 8c5.33301 0 8 -3 8 -9c0 -46.667 -17 -70 -51 -70c-22 0 -45 11 -69 33c-18.667 18 -34.667 39.333 -48 64c-46.667 -64.667 -70 -124.667 -70 -180c0 -48 17.333 -85.333 52 -112c30.667 -23.333 70.667 -35 120 -35
c66 0 132.333 16.667 199 50s118.667 76.333 156 129c50.667 72 76 138.333 76 199zM704 713.001c0 -8.66699 -10 -18.333 -30 -29l-129 -65c-2.66699 0 -4 2 -4 6c0 4.66699 15.667 18.667 47 42l59 42c14.667 11.333 27.667 17 39 17c12 0 18 -4.33301 18 -13z" />
    <glyph glyph-name="Ocircumflex" unicode="&#xd4;" horiz-adv-x="521" 
d="M741 536c0 -5.33301 -3.33301 -8 -10 -8c-3.33301 0 -7 0.666992 -11 2c-36 17.333 -71.333 27.333 -106 30c76 -40.667 114 -98.334 114 -173.001c0 -64.667 -29.667 -136.667 -89 -216c-48 -64 -106 -116.333 -174 -157c-74.667 -44.667 -148.667 -67 -222 -67
c-144.667 0 -217 52.333 -217 157c0 71.333 33.333 148 100 230c-10 26.667 -15 52 -15 76c0 66.667 35.333 118 106 154c56 28 120.667 42 194 42c58.667 0 112.334 -9 161.001 -27h10c55.333 0.666992 103.666 -8.66602 144.999 -27.999
c9.33301 -4.66699 14 -9.66699 14 -15zM480 567c-32 8 -65 12 -99 12c-60 0 -111.333 -12.333 -154 -37c-50.667 -29.333 -76 -72 -76 -128c0 -14.667 1.66699 -30 5 -46c95.333 104.667 203.333 171 324 199zM676 356c0 47.333 -15.333 88.667 -46 124
c-27.333 32 -64.333 57 -111 75c-65.333 -12 -130.333 -39 -195 -81c-61.333 -39.333 -114.333 -86.333 -159 -141c8.66699 -22 22 -44.333 40 -67c23.333 -29.333 43.666 -44 60.999 -44c11.333 0 19 7.33301 23 22c1.33301 3.33301 3.33301 15 6 35
c0.666992 5.33301 3.33398 8 8.00098 8c5.33301 0 8 -3 8 -9c0 -46.667 -17 -70 -51 -70c-22 0 -45 11 -69 33c-18.667 18 -34.667 39.333 -48 64c-46.667 -64.667 -70 -124.667 -70 -180c0 -48 17.333 -85.333 52 -112c30.667 -23.333 70.667 -35 120 -35
c66 0 132.333 16.667 199 50s118.667 76.333 156 129c50.667 72 76 138.333 76 199zM705 634.001l-4 -6c-11.333 0.666992 -31.333 10.667 -60 30c-26 17.333 -43.667 31.333 -53 42c-60 -46 -93.333 -69 -100 -69c-4 0 -6 2.66699 -6 8s18 21.833 54 49.5s58 42.5 66 44.5
l5 -2c19.333 -24 51 -53.667 95 -89z" />
    <glyph glyph-name="Otilde" unicode="&#xd5;" horiz-adv-x="574" 
d="M741 536c0 -5.33301 -3.33301 -8 -10 -8c-3.33301 0 -7 0.666992 -11 2c-36 17.333 -71.333 27.333 -106 30c76 -40.667 114 -98.334 114 -173.001c0 -64.667 -29.667 -136.667 -89 -216c-48 -64 -106 -116.333 -174 -157c-74.667 -44.667 -148.667 -67 -222 -67
c-144.667 0 -217 52.333 -217 157c0 71.333 33.333 148 100 230c-10 26.667 -15 52 -15 76c0 66.667 35.333 118 106 154c56 28 120.667 42 194 42c58.667 0 112.334 -9 161.001 -27h10c55.333 0.666992 103.666 -8.66602 144.999 -27.999
c9.33301 -4.66699 14 -9.66699 14 -15zM480 567c-32 8 -65 12 -99 12c-60 0 -111.333 -12.333 -154 -37c-50.667 -29.333 -76 -72 -76 -128c0 -14.667 1.66699 -30 5 -46c95.333 104.667 203.333 171 324 199zM676 356c0 47.333 -15.333 88.667 -46 124
c-27.333 32 -64.333 57 -111 75c-65.333 -12 -130.333 -39 -195 -81c-61.333 -39.333 -114.333 -86.333 -159 -141c8.66699 -22 22 -44.333 40 -67c23.333 -29.333 43.666 -44 60.999 -44c11.333 0 19 7.33301 23 22c1.33301 3.33301 3.33301 15 6 35
c0.666992 5.33301 3.33398 8 8.00098 8c5.33301 0 8 -3 8 -9c0 -46.667 -17 -70 -51 -70c-22 0 -45 11 -69 33c-18.667 18 -34.667 39.333 -48 64c-46.667 -64.667 -70 -124.667 -70 -180c0 -48 17.333 -85.333 52 -112c30.667 -23.333 70.667 -35 120 -35
c66 0 132.333 16.667 199 50s118.667 76.333 156 129c50.667 72 76 138.333 76 199zM597 691.001c-0.666992 -5.33301 -7.83105 -13.833 -21.498 -25.5s-23.5 -17.5 -29.5 -17.5c-12 0 -27.333 6.5 -46 19.5s-33.334 19.5 -44.001 19.5c-8 0 -16.5 -3.33301 -25.5 -10
s-14.167 -10 -15.5 -10l-3 3c1.33301 5.33301 9 13.333 23 24s23.667 16 29 16c8.66699 0 22.5 -5.83301 41.5 -17.5s35.833 -17.5 50.5 -17.5c7.33301 0 15.166 2.83301 23.499 8.5s13.833 8.5 16.5 8.5z" />
    <glyph glyph-name="Odieresis" unicode="&#xd6;" horiz-adv-x="521" 
d="M741 536c0 -5.33301 -3.33301 -8 -10 -8c-3.33301 0 -7 0.666992 -11 2c-36 17.333 -71.333 27.333 -106 30c76 -40.667 114 -98.334 114 -173.001c0 -64.667 -29.667 -136.667 -89 -216c-48 -64 -106 -116.333 -174 -157c-74.667 -44.667 -148.667 -67 -222 -67
c-144.667 0 -217 52.333 -217 157c0 71.333 33.333 148 100 230c-10 26.667 -15 52 -15 76c0 66.667 35.333 118 106 154c56 28 120.667 42 194 42c58.667 0 112.334 -9 161.001 -27h10c55.333 0.666992 103.666 -8.66602 144.999 -27.999
c9.33301 -4.66699 14 -9.66699 14 -15zM480 567c-32 8 -65 12 -99 12c-60 0 -111.333 -12.333 -154 -37c-50.667 -29.333 -76 -72 -76 -128c0 -14.667 1.66699 -30 5 -46c95.333 104.667 203.333 171 324 199zM676 356c0 47.333 -15.333 88.667 -46 124
c-27.333 32 -64.333 57 -111 75c-65.333 -12 -130.333 -39 -195 -81c-61.333 -39.333 -114.333 -86.333 -159 -141c8.66699 -22 22 -44.333 40 -67c23.333 -29.333 43.666 -44 60.999 -44c11.333 0 19 7.33301 23 22c1.33301 3.33301 3.33301 15 6 35
c0.666992 5.33301 3.33398 8 8.00098 8c5.33301 0 8 -3 8 -9c0 -46.667 -17 -70 -51 -70c-22 0 -45 11 -69 33c-18.667 18 -34.667 39.333 -48 64c-46.667 -64.667 -70 -124.667 -70 -180c0 -48 17.333 -85.333 52 -112c30.667 -23.333 70.667 -35 120 -35
c66 0 132.333 16.667 199 50s118.667 76.333 156 129c50.667 72 76 138.333 76 199zM793 708.001l0.000976562 -2l-17 -14l-25 -32c-12 -15.333 -22.333 -23 -31 -23c-6.66699 0 -10 6 -10 18c0 9.33301 10.667 20.5 32 33.5s37.666 19.5 48.999 19.5l2 -1v1z
M693.001 708.001v-2l-17 -14l-25 -32c-12 -15.333 -22 -23 -30 -23c-6.66699 0 -10 6 -10 18c0 9.33301 10.667 20.5 32 33.5s37.333 19.5 48 19.5l2 -1v1z" />
    <glyph glyph-name="Oslash" unicode="&#xd8;" horiz-adv-x="522" 
d="M576 476c-2.66699 -3.33301 -12.667 -12.332 -30 -26.999l-83 -68c28.667 -24 43 -57 43 -99c0 -76 -47 -149 -141 -219c-88 -65.333 -171.333 -98 -250 -98c-16.667 0 -31.667 2.66699 -45 8c-57.333 -80.667 -86.666 -139.334 -87.999 -176.001l-1 -1
c-11.333 0.666992 -17 6 -17 16c0 28.667 30.667 84.667 92 168c-23.333 15.333 -35 41.666 -35 78.999c0 90.667 66.333 193 199 307c-42.667 -15.333 -89 -43.666 -139 -84.999c-4.66699 -3.33301 -8 -5 -10 -5h-1v2c-0.666992 2.66699 0.666016 6.33398 3.99902 11.001
c28 37.333 68.333 68.333 121 93c50.667 23.333 100.334 35 149.001 35c38 0 70.333 -7.33301 97 -22c32 29.333 51.333 46.666 58 51.999c28 22 50.333 33 67 33c5.33301 0 8.66602 -1.33301 9.99902 -4zM483 306.001c0 28 -10.333 49.667 -31 65
c-163.333 -142 -287.666 -270.667 -372.999 -386c9.33301 -3.33301 19.666 -5 30.999 -5c74 0 153.667 35.667 239 107c89.333 73.333 134 146.333 134 219zM429 385.001c-20.667 8.66699 -45.332 12.999 -73.999 12.999c-35.333 0 -70.333 -6 -105 -18
c6.66699 1.33301 13 2 19 2c16.667 0 28 -3.66699 34 -11c-2 -2.66699 -5.66699 -5 -11 -7c-54 -22 -108.667 -64.333 -164 -127c-58.667 -68 -88 -128.667 -88 -182c0 -29.333 8.33301 -50 25 -62c93.333 124.667 214.666 255.334 363.999 392.001z" />
    <glyph glyph-name="Ugrave" unicode="&#xd9;" horiz-adv-x="702" 
d="M637 -119c0 -49.333 8.00195 -73.999 24.002 -73.999c3.33301 0 8.66602 0.833008 15.999 2.5s12.666 2.5 15.999 2.5c5.33301 0 8 -1 8 -3c0 -3.33301 -9 -7.33301 -27 -12s-30.667 -7 -38 -7c-37.333 0 -56 25.667 -56 77c0 101.333 65 281.666 195 540.999
c13.333 26.667 34 66 62 118c-0.666992 2 -1 4.33301 -1 7c0 4.66699 6.66699 18 20 40l26 43c12 10.667 28.333 16 49 16c14.667 0 22 -3.66699 22 -11v-3l-71 -107c-163.333 -260 -245 -470 -245 -630zM756.002 436.001c0 -18.667 -8.66699 -50.3301 -26 -94.9971
c-28 -70.667 -66 -140.667 -114 -210c-54.667 -78 -109.667 -134.667 -165 -170c-37.333 -24 -74.666 -36 -111.999 -36c-58.667 0 -88 27 -88 81c0 39.333 21.667 97 65 173l120 201c43.333 76 65 133.333 65 172s-30 58 -90 58c-40.667 0 -86.667 -9 -138 -27
c-47.333 -16 -90 -36 -128 -60c-60.667 -38.667 -91 -76.334 -91 -113.001c0 -34.667 31.667 -63.334 95 -86.001c10.667 -3.33301 16 -6.66602 16 -9.99902c0 -2 -3 -3 -9 -3c-3.33301 0 -7 0.333008 -11 1c-92.667 15.333 -139 45.333 -139 90c0 41.333 38 86.333 114 135
c42.667 26.667 90 48.667 142 66c56.667 18.667 108.334 28 155.001 28c84 0 126 -29 126 -87c0 -42.667 -33 -120.334 -99 -233.001c-74 -126.667 -116 -208 -126 -244c-6 -20 -9 -37.667 -9 -53c0 -35.333 15 -53 45 -53c21.333 0 47.666 8.66699 78.999 26
c56.667 31.333 111.667 81 165 149c49.333 63.333 86 127.666 110 192.999c9.33301 24 18.666 60.667 27.999 110c0.666992 4.66699 3.66699 7 9 7c7.33301 0 11 -3.33301 11 -10zM794.002 607.005c0 -4 -2 -5.99902 -6 -5.99902l-117 66
c-16.667 9.33301 -25 18.666 -25 27.999c0 8.66699 6.66699 13 20 13c11.333 0 23.333 -5.66699 36 -17l52 -41c26.667 -22.667 40 -37 40 -43z" />
    <glyph glyph-name="Uacute" unicode="&#xda;" horiz-adv-x="702" 
d="M637 -119c0 -49.333 8.00195 -73.999 24.002 -73.999c3.33301 0 8.66602 0.833008 15.999 2.5s12.666 2.5 15.999 2.5c5.33301 0 8 -1 8 -3c0 -3.33301 -9 -7.33301 -27 -12s-30.667 -7 -38 -7c-37.333 0 -56 25.667 -56 77c0 101.333 65 281.666 195 540.999
c13.333 26.667 34 66 62 118c-0.666992 2 -1 4.33301 -1 7c0 4.66699 6.66699 18 20 40l26 43c12 10.667 28.333 16 49 16c14.667 0 22 -3.66699 22 -11v-3l-71 -107c-163.333 -260 -245 -470 -245 -630zM756.002 436.001c0 -18.667 -8.66699 -50.3301 -26 -94.9971
c-28 -70.667 -66 -140.667 -114 -210c-54.667 -78 -109.667 -134.667 -165 -170c-37.333 -24 -74.666 -36 -111.999 -36c-58.667 0 -88 27 -88 81c0 39.333 21.667 97 65 173l120 201c43.333 76 65 133.333 65 172s-30 58 -90 58c-40.667 0 -86.667 -9 -138 -27
c-47.333 -16 -90 -36 -128 -60c-60.667 -38.667 -91 -76.334 -91 -113.001c0 -34.667 31.667 -63.334 95 -86.001c10.667 -3.33301 16 -6.66602 16 -9.99902c0 -2 -3 -3 -9 -3c-3.33301 0 -7 0.333008 -11 1c-92.667 15.333 -139 45.333 -139 90c0 41.333 38 86.333 114 135
c42.667 26.667 90 48.667 142 66c56.667 18.667 108.334 28 155.001 28c84 0 126 -29 126 -87c0 -42.667 -33 -120.334 -99 -233.001c-74 -126.667 -116 -208 -126 -244c-6 -20 -9 -37.667 -9 -53c0 -35.333 15 -53 45 -53c21.333 0 47.666 8.66699 78.999 26
c56.667 31.333 111.667 81 165 149c49.333 63.333 86 127.666 110 192.999c9.33301 24 18.666 60.667 27.999 110c0.666992 4.66699 3.66699 7 9 7c7.33301 0 11 -3.33301 11 -10zM835.002 699.005c0 -8.66699 -10 -18 -30 -28c-86 -44 -128.667 -66 -128 -66
c-3.33301 0 -5 2 -5 6c0 5.33301 15.667 19.333 47 42l59 42c14.667 11.333 27.667 17 39 17c12 0 18 -4.33301 18 -13z" />
    <glyph glyph-name="Ucircumflex" unicode="&#xdb;" horiz-adv-x="702" 
d="M637 -119c0 -49.333 8.00195 -73.999 24.002 -73.999c3.33301 0 8.66602 0.833008 15.999 2.5s12.666 2.5 15.999 2.5c5.33301 0 8 -1 8 -3c0 -3.33301 -9 -7.33301 -27 -12s-30.667 -7 -38 -7c-37.333 0 -56 25.667 -56 77c0 101.333 65 281.666 195 540.999
c13.333 26.667 34 66 62 118c-0.666992 2 -1 4.33301 -1 7c0 4.66699 6.66699 18 20 40l26 43c12 10.667 28.333 16 49 16c14.667 0 22 -3.66699 22 -11v-3l-71 -107c-163.333 -260 -245 -470 -245 -630zM756.002 436.001c0 -18.667 -8.66699 -50.3301 -26 -94.9971
c-28 -70.667 -66 -140.667 -114 -210c-54.667 -78 -109.667 -134.667 -165 -170c-37.333 -24 -74.666 -36 -111.999 -36c-58.667 0 -88 27 -88 81c0 39.333 21.667 97 65 173l120 201c43.333 76 65 133.333 65 172s-30 58 -90 58c-40.667 0 -86.667 -9 -138 -27
c-47.333 -16 -90 -36 -128 -60c-60.667 -38.667 -91 -76.334 -91 -113.001c0 -34.667 31.667 -63.334 95 -86.001c10.667 -3.33301 16 -6.66602 16 -9.99902c0 -2 -3 -3 -9 -3c-3.33301 0 -7 0.333008 -11 1c-92.667 15.333 -139 45.333 -139 90c0 41.333 38 86.333 114 135
c42.667 26.667 90 48.667 142 66c56.667 18.667 108.334 28 155.001 28c84 0 126 -29 126 -87c0 -42.667 -33 -120.334 -99 -233.001c-74 -126.667 -116 -208 -126 -244c-6 -20 -9 -37.667 -9 -53c0 -35.333 15 -53 45 -53c21.333 0 47.666 8.66699 78.999 26
c56.667 31.333 111.667 81 165 149c49.333 63.333 86 127.666 110 192.999c9.33301 24 18.666 60.667 27.999 110c0.666992 4.66699 3.66699 7 9 7c7.33301 0 11 -3.33301 11 -10zM849.002 627.005l-5.00195 -6c-11.333 0.666992 -30.666 10 -57.999 28
s-45.666 32.667 -54.999 44c-60 -46 -93.333 -69 -100 -69c-3.33301 0 -5 2.66699 -5 8s17.833 21.833 53.5 49.5s57.5 42.167 65.5 43.5l5 -2c19.333 -24 51 -53.333 95 -88z" />
    <glyph glyph-name="Udieresis" unicode="&#xdc;" horiz-adv-x="702" 
d="M637 -119c0 -49.333 8.00195 -73.999 24.002 -73.999c3.33301 0 8.66602 0.833008 15.999 2.5s12.666 2.5 15.999 2.5c5.33301 0 8 -1 8 -3c0 -3.33301 -9 -7.33301 -27 -12s-30.667 -7 -38 -7c-37.333 0 -56 25.667 -56 77c0 101.333 65 281.666 195 540.999
c13.333 26.667 34 66 62 118c-0.666992 2 -1 4.33301 -1 7c0 4.66699 6.66699 18 20 40l26 43c12 10.667 28.333 16 49 16c14.667 0 22 -3.66699 22 -11v-3l-71 -107c-163.333 -260 -245 -470 -245 -630zM756.002 436.001c0 -18.667 -8.66699 -50.3301 -26 -94.9971
c-28 -70.667 -66 -140.667 -114 -210c-54.667 -78 -109.667 -134.667 -165 -170c-37.333 -24 -74.666 -36 -111.999 -36c-58.667 0 -88 27 -88 81c0 39.333 21.667 97 65 173l120 201c43.333 76 65 133.333 65 172s-30 58 -90 58c-40.667 0 -86.667 -9 -138 -27
c-47.333 -16 -90 -36 -128 -60c-60.667 -38.667 -91 -76.334 -91 -113.001c0 -34.667 31.667 -63.334 95 -86.001c10.667 -3.33301 16 -6.66602 16 -9.99902c0 -2 -3 -3 -9 -3c-3.33301 0 -7 0.333008 -11 1c-92.667 15.333 -139 45.333 -139 90c0 41.333 38 86.333 114 135
c42.667 26.667 90 48.667 142 66c56.667 18.667 108.334 28 155.001 28c84 0 126 -29 126 -87c0 -42.667 -33 -120.334 -99 -233.001c-74 -126.667 -116 -208 -126 -244c-6 -20 -9 -37.667 -9 -53c0 -35.333 15 -53 45 -53c21.333 0 47.666 8.66699 78.999 26
c56.667 31.333 111.667 81 165 149c49.333 63.333 86 127.666 110 192.999c9.33301 24 18.666 60.667 27.999 110c0.666992 4.66699 3.66699 7 9 7c7.33301 0 11 -3.33301 11 -10zM836.002 698.005c0 -0.666992 -0.333008 -1.33301 -1 -2c-4.66699 -3.33301 -10 -8 -16 -14
l-26 -32c-11.333 -15.333 -21.333 -23 -30 -23c-6.66699 0 -10 6 -10 18c0 9.33301 10.667 20.5 32 33.5s37.333 19.5 48 19.5l2 -1zM736.002 698.006l0.000976562 -1.99902c-4.66699 -3.33301 -10.334 -8 -17.001 -14l-25 -32c-12 -15.333 -22.333 -23 -31 -23
c-6 0 -9 6 -9 18c0 9.33301 11 20.666 33 33.999c20 12.667 35.667 19 47 19l2 -1v1z" />
    <glyph glyph-name="germandbls" unicode="&#xdf;" horiz-adv-x="523" 
d="M524 418c0 -33.333 -12.002 -62.9971 -36.002 -88.9971c-21.333 -22.667 -49.333 -40 -84 -52c-17.333 -6 -43.333 -12 -78 -18c-14 -2 -21 -5 -21 -9c0 -4.66699 13 -10.667 39 -18c32.667 -10 56.667 -19.667 72 -29c25.333 -16 38 -36.667 38 -62
c0 -32 -20.333 -63.667 -61 -95c-33.333 -26 -80 -47 -140 -63c-54 -14.667 -105 -22 -153 -22c-36 0 -54 2.66699 -54 8c0 8 21.333 12 64 12s87.667 6 135 18c52 13.333 93.333 30.666 124 51.999c42 29.333 63 56.666 63 81.999c0 34.667 -34.333 61.334 -103 80.001
c-8.66699 2 -22.334 5.33301 -41.001 10s-28 11.667 -28 21c0 11.333 14 19.333 42 24c17.333 2 42.333 7 75 15c33.333 11.333 61.333 28.666 84 51.999c26 26.667 39 55.667 39 87c0 22 -6.66699 39.167 -20 51.5s-31 18.5 -53 18.5c-48 0 -93.667 -37 -137 -111l-92 -171
c-49.333 -87.333 -93.333 -155 -132 -203c-54 -65.333 -101.667 -98 -143 -98c-9.33301 0 -14.666 3 -15.999 9c2.66699 4.66699 6.33398 7 11.001 7c50 0 104.333 44.667 163 134c20.667 31.333 57.334 98.666 110.001 201.999c88 175.333 165.667 263 233 263
c28.667 0 52.5 -10.333 71.5 -31s28.5 -45.667 28.5 -75z" />
    <glyph glyph-name="agrave" unicode="&#xe0;" 
d="M238 -8c-30 0 -45 21.667 -45 65c0 27.333 4.33301 60.333 13 99c-18 -30 -45 -62.667 -81 -98c-43.333 -43.333 -77.666 -65 -102.999 -65c-12.667 0 -19 8.66699 -19 26c0 40.667 19 92 57 154c40.667 68 80 100.333 118 97c21.333 10.667 38 16 50 16
c4 0 17.667 -1.66699 41 -5c9.33301 4 17 6 23 6c7.33301 0 11 -3.33301 11 -10c0 -6 -3.66699 -17.333 -11 -34s-13 -25.667 -17 -27c-9.33301 -18 -17.5 -43.167 -24.5 -75.5s-10.5 -59.166 -10.5 -80.499c0 -25.333 7.33301 -38 22 -38c14 0 31 9 51 27s29.667 27 29 27
c1.33301 0 2 -0.666992 2 -2c0 -14.667 -16.667 -34.334 -50 -59.001c-20.667 -15.333 -39.334 -23 -56.001 -23zM240 258c-6 2.66699 -12.332 3.99805 -18.999 3.99805c-24.667 0 -47.334 -11.333 -68.001 -34c-18 -19.333 -36.667 -47.166 -56 -83.499
s-33.333 -68.833 -42 -97.5c-2 -5.33301 -3 -9.66602 -3 -12.999c0 -4.66699 1.66699 -7 5 -7c4.66699 0 12.334 4 23.001 12c35.333 25.333 66.666 58.333 93.999 99c14 22 36 62 66 120zM270.001 332.998c-6 0 -22.001 10.332 -48.001 30.999s-39 33.334 -39 38.001
c0 7.33301 5.66699 11 17 11c6.66699 0 20.834 -10.667 42.501 -32s32.5 -35.333 32.5 -42c0 -4 -1.66699 -6 -5 -6z" />
    <glyph glyph-name="aacute" unicode="&#xe1;" 
d="M238 -8c-30 0 -45 21.667 -45 65c0 27.333 4.33301 60.333 13 99c-18 -30 -45 -62.667 -81 -98c-43.333 -43.333 -77.666 -65 -102.999 -65c-12.667 0 -19 8.66699 -19 26c0 40.667 19 92 57 154c40.667 68 80 100.333 118 97c21.333 10.667 38 16 50 16
c4 0 17.667 -1.66699 41 -5c9.33301 4 17 6 23 6c7.33301 0 11 -3.33301 11 -10c0 -6 -3.66699 -17.333 -11 -34s-13 -25.667 -17 -27c-9.33301 -18 -17.5 -43.167 -24.5 -75.5s-10.5 -59.166 -10.5 -80.499c0 -25.333 7.33301 -38 22 -38c14 0 31 9 51 27s29.667 27 29 27
c1.33301 0 2 -0.666992 2 -2c0 -14.667 -16.667 -34.334 -50 -59.001c-20.667 -15.333 -39.334 -23 -56.001 -23zM240 258c-6 2.66699 -12.332 3.99805 -18.999 3.99805c-24.667 0 -47.334 -11.333 -68.001 -34c-18 -19.333 -36.667 -47.166 -56 -83.499
s-33.333 -68.833 -42 -97.5c-2 -5.33301 -3 -9.66602 -3 -12.999c0 -4.66699 1.66699 -7 5 -7c4.66699 0 12.334 4 23.001 12c35.333 25.333 66.666 58.333 93.999 99c14 22 36 62 66 120zM232.001 327.998c-1.33301 0.666992 -2.00098 1.66699 -2.00098 3
c0 4.66699 18.333 17.834 55 39.501s58.667 32.5 66 32.5c6.66699 0 10 -2 10 -6c0 -4.66699 -19.667 -17.334 -59 -38.001s-62.666 -31 -69.999 -31z" />
    <glyph glyph-name="acircumflex" unicode="&#xe2;" 
d="M238 -8c-30 0 -45 21.667 -45 65c0 27.333 4.33301 60.333 13 99c-18 -30 -45 -62.667 -81 -98c-43.333 -43.333 -77.666 -65 -102.999 -65c-12.667 0 -19 8.66699 -19 26c0 40.667 19 92 57 154c40.667 68 80 100.333 118 97c21.333 10.667 38 16 50 16
c4 0 17.667 -1.66699 41 -5c9.33301 4 17 6 23 6c7.33301 0 11 -3.33301 11 -10c0 -6 -3.66699 -17.333 -11 -34s-13 -25.667 -17 -27c-9.33301 -18 -17.5 -43.167 -24.5 -75.5s-10.5 -59.166 -10.5 -80.499c0 -25.333 7.33301 -38 22 -38c14 0 31 9 51 27s29.667 27 29 27
c1.33301 0 2 -0.666992 2 -2c0 -14.667 -16.667 -34.334 -50 -59.001c-20.667 -15.333 -39.334 -23 -56.001 -23zM240 258c-6 2.66699 -12.332 3.99805 -18.999 3.99805c-24.667 0 -47.334 -11.333 -68.001 -34c-18 -19.333 -36.667 -47.166 -56 -83.499
s-33.333 -68.833 -42 -97.5c-2 -5.33301 -3 -9.66602 -3 -12.999c0 -4.66699 1.66699 -7 5 -7c4.66699 0 12.334 4 23.001 12c35.333 25.333 66.666 58.333 93.999 99c14 22 36 62 66 120zM351.001 347.998l-5 -5c-9.33301 0.666992 -22.833 8.16699 -40.5 22.5
s-29.167 26.166 -34.5 35.499c-26 -16.667 -57.667 -35 -95 -55l-3 6c4.66699 6.66699 23.167 20.334 55.5 41.001s52.5 32 60.5 34l3 -2c10.667 -19.333 30 -43 58 -71z" />
    <glyph glyph-name="atilde" unicode="&#xe3;" 
d="M238 -8c-30 0 -45 21.667 -45 65c0 27.333 4.33301 60.333 13 99c-18 -30 -45 -62.667 -81 -98c-43.333 -43.333 -77.666 -65 -102.999 -65c-12.667 0 -19 8.66699 -19 26c0 40.667 19 92 57 154c40.667 68 80 100.333 118 97c21.333 10.667 38 16 50 16
c4 0 17.667 -1.66699 41 -5c9.33301 4 17 6 23 6c7.33301 0 11 -3.33301 11 -10c0 -6 -3.66699 -17.333 -11 -34s-13 -25.667 -17 -27c-9.33301 -18 -17.5 -43.167 -24.5 -75.5s-10.5 -59.166 -10.5 -80.499c0 -25.333 7.33301 -38 22 -38c14 0 31 9 51 27s29.667 27 29 27
c1.33301 0 2 -0.666992 2 -2c0 -14.667 -16.667 -34.334 -50 -59.001c-20.667 -15.333 -39.334 -23 -56.001 -23zM240 258c-6 2.66699 -12.332 3.99805 -18.999 3.99805c-24.667 0 -47.334 -11.333 -68.001 -34c-18 -19.333 -36.667 -47.166 -56 -83.499
s-33.333 -68.833 -42 -97.5c-2 -5.33301 -3 -9.66602 -3 -12.999c0 -4.66699 1.66699 -7 5 -7c4.66699 0 12.334 4 23.001 12c35.333 25.333 66.666 58.333 93.999 99c14 22 36 62 66 120zM347.001 372.998c-2 -5.33301 -11.501 -13.833 -28.501 -25.5
s-28.167 -17.5 -33.5 -17.5c-12 0 -25.667 6.33301 -41 19s-28.333 19 -39 19c-8 0 -17.167 -3.16699 -27.5 -9.5s-16.833 -9.5 -19.5 -9.5l-1 3c2 5.33301 11.5 13.333 28.5 24s28.167 16 33.5 16c9.33301 0 21.833 -5.83301 37.5 -17.5s30.834 -17.5 45.501 -17.5
c7.33301 0 16 2.83301 26 8.5s16 8.5 18 8.5z" />
    <glyph glyph-name="adieresis" unicode="&#xe4;" 
d="M238 -8c-30 0 -45 21.667 -45 65c0 27.333 4.33301 60.333 13 99c-18 -30 -45 -62.667 -81 -98c-43.333 -43.333 -77.666 -65 -102.999 -65c-12.667 0 -19 8.66699 -19 26c0 40.667 19 92 57 154c40.667 68 80 100.333 118 97c21.333 10.667 38 16 50 16
c4 0 17.667 -1.66699 41 -5c9.33301 4 17 6 23 6c7.33301 0 11 -3.33301 11 -10c0 -6 -3.66699 -17.333 -11 -34s-13 -25.667 -17 -27c-9.33301 -18 -17.5 -43.167 -24.5 -75.5s-10.5 -59.166 -10.5 -80.499c0 -25.333 7.33301 -38 22 -38c14 0 31 9 51 27s29.667 27 29 27
c1.33301 0 2 -0.666992 2 -2c0 -14.667 -16.667 -34.334 -50 -59.001c-20.667 -15.333 -39.334 -23 -56.001 -23zM240 258c-6 2.66699 -12.332 3.99805 -18.999 3.99805c-24.667 0 -47.334 -11.333 -68.001 -34c-18 -19.333 -36.667 -47.166 -56 -83.499
s-33.333 -68.833 -42 -97.5c-2 -5.33301 -3 -9.66602 -3 -12.999c0 -4.66699 1.66699 -7 5 -7c4.66699 0 12.334 4 23.001 12c35.333 25.333 66.666 58.333 93.999 99c14 22 36 62 66 120zM358.001 410.998v-2.00098c-4.66699 -3.33301 -10.334 -7.66602 -17.001 -12.999
c-8 -11.333 -16.333 -22.333 -25 -33c-12 -15.333 -22 -23 -30 -23c-6.66699 0 -10 6 -10 18c0 9.33301 11 21 33 35c20.667 12 36.334 18.333 47.001 19l2 -1v0zM259.001 410.997l-1.00098 -2.00098c-4.66699 -3.33301 -10 -7.66602 -16 -12.999l-26 -33
c-11.333 -15.333 -21.333 -23 -30 -23c-6.66699 0 -10 6 -10 18c0 9.33301 11 21 33 35c20.667 12 36.334 18.333 47.001 19l3 -1v0z" />
    <glyph glyph-name="aring" unicode="&#xe5;" 
d="M238 -8c-30 0 -45 21.667 -45 65c0 27.333 4.33301 60.333 13 99c-18 -30 -45 -62.667 -81 -98c-43.333 -43.333 -77.666 -65 -102.999 -65c-12.667 0 -19 8.66699 -19 26c0 40.667 19 92 57 154c40.667 68 80 100.333 118 97c21.333 10.667 38 16 50 16
c4 0 17.667 -1.66699 41 -5c9.33301 4 17 6 23 6c7.33301 0 11 -3.33301 11 -10c0 -6 -3.66699 -17.333 -11 -34s-13 -25.667 -17 -27c-9.33301 -18 -17.5 -43.167 -24.5 -75.5s-10.5 -59.166 -10.5 -80.499c0 -25.333 7.33301 -38 22 -38c14 0 31 9 51 27s29.667 27 29 27
c1.33301 0 2 -0.666992 2 -2c0 -14.667 -16.667 -34.334 -50 -59.001c-20.667 -15.333 -39.334 -23 -56.001 -23zM240 258c-6 2.66699 -12.332 3.99805 -18.999 3.99805c-24.667 0 -47.334 -11.333 -68.001 -34c-18 -19.333 -36.667 -47.166 -56 -83.499
s-33.333 -68.833 -42 -97.5c-2 -5.33301 -3 -9.66602 -3 -12.999c0 -4.66699 1.66699 -7 5 -7c4.66699 0 12.334 4 23.001 12c35.333 25.333 66.666 58.333 93.999 99c14 22 36 62 66 120zM233.001 304.998c-16.667 0 -24.999 6.66895 -24.999 20.002
c0 11.333 6.66699 25.666 20 42.999s25.666 27.666 36.999 30.999c15.333 18 32.333 27 51 27c16 0 24 -8.66699 24 -26c0 -21.333 -12.333 -42.5 -37 -63.5s-48 -31.5 -70 -31.5zM320.002 398c0 8.66699 -3.66602 13 -10.999 13c-6 0 -15.333 -3.66699 -28 -11l7 -4
c-9.33301 -10.667 -19 -21 -29 -31c-12.667 -13.333 -19 -25 -19 -35c0 -6 2.66699 -9 8 -9c15.333 0 31.166 9 47.499 27s24.5 34.667 24.5 50z" />
    <glyph glyph-name="ccedilla" unicode="&#xe7;" horiz-adv-x="224" 
d="M279 259c0 -14 -5.33105 -28.001 -15.998 -42.001s-22.334 -21 -35.001 -21c-2.66699 0 -4 1 -4 3c0 1.33301 0.666992 3 2 5c5.33301 11.333 8 24.666 8 39.999c0 19.333 -5.66699 29 -17 29c-10.667 0 -23.334 -5.33301 -38.001 -16
c-20 -14.667 -43.667 -46.334 -71 -95.001c-28 -50.667 -42 -87.667 -42 -111s12 -35 36 -35c20 0 42 8 66 24c16.667 11.333 34.667 26.666 54 45.999l24 24c2.66699 0 4 -1.33301 4 -4c0 -15.333 -12.333 -32.666 -37 -51.999c-41.333 -32 -87 -51.667 -137 -59v-2
c-8.66699 -1.33301 -16.5 -6.33301 -23.5 -15s-10.5 -17.667 -10.5 -27c0 -6 5.5 -16.667 16.5 -32s16.5 -28.333 16.5 -39c0 -22.667 -12.667 -40.667 -38 -54c-20.667 -11.333 -43.334 -17 -68.001 -17c-4 0 -6 2.33301 -6 7c0 2.66699 2.33301 4.66699 7 6
c16.667 2.66699 33.5 5.83398 50.5 9.50098s25.5 16.834 25.5 39.501c0 5.33301 -4.83301 15.5 -14.5 30.5s-14.5 26.5 -14.5 34.5c0 26.667 10.333 45.667 31 57c-15.333 -0.666992 -25.666 1.33301 -30.999 6s-8 14.667 -8 30c0 10.667 1.33301 21.334 4 32.001
c17.333 61.333 44 113 80 155c44 51.333 94 77 150 77c24 0 36 -11.333 36 -34z" />
    <glyph glyph-name="egrave" unicode="&#xe8;" horiz-adv-x="243" 
d="M261 162c0 -2.66699 -4.66797 -4.00195 -14.001 -4.00195c-4 0 -10 0.5 -18 1.5s-14 1.5 -18 1.5c-30 0 -67.667 -4.66699 -113 -14c-23.333 -42.667 -35 -74.667 -35 -96c0 -23.333 12 -35 36 -35c20 0 42.333 8 67 24c16.667 11.333 34.334 26.666 53.001 45.999
c16 16 24.333 24 25 24c2 0 3 -1.33301 3 -4c0 -15.333 -12.333 -32.666 -37 -51.999c-53.333 -40.667 -109.333 -61 -168 -61c-16 0 -26.333 3.33301 -31 10c-3.33301 4.66699 -5 13.334 -5 26.001c0 24.667 11 60.334 33 107.001c-0.666992 1.33301 -1 2.33301 -1 3
s3 5.33398 9 14.001l17 31c29.333 48 61.666 76.667 96.999 86c8.66699 2 15.667 3 21 3c4.66699 0 7 -1 7 -3c0 -2.66699 -4.33301 -7 -13 -13c-17.333 -12.667 -38.666 -40.667 -63.999 -84c34.667 6 64.667 8 90 6c20 28.667 30 56.334 30 83.001
c0 7.33301 -0.833008 11.666 -2.5 12.999s-5.66699 2 -12 2s-9.5 1.66699 -9.5 5s5.33301 6.33301 16 9s19 4 25 4c18 0 27 -8.33301 27 -25c0 -14 -6 -31.333 -18 -52s-24 -34.334 -36 -41.001c26 -4.66699 39 -9.66699 39 -15zM239.999 353.998
c-5.33301 0 -21.167 10.332 -47.5 30.999s-39.5 33.334 -39.5 38.001c0 7.33301 6 11 18 11c6 0 20 -10.667 42 -32s33 -35.333 33 -42c0 -4 -2 -6 -6 -6z" />
    <glyph glyph-name="eacute" unicode="&#xe9;" horiz-adv-x="243" 
d="M261 162c0 -2.66699 -4.66797 -4.00195 -14.001 -4.00195c-4 0 -10 0.5 -18 1.5s-14 1.5 -18 1.5c-30 0 -67.667 -4.66699 -113 -14c-23.333 -42.667 -35 -74.667 -35 -96c0 -23.333 12 -35 36 -35c20 0 42.333 8 67 24c16.667 11.333 34.334 26.666 53.001 45.999
c16 16 24.333 24 25 24c2 0 3 -1.33301 3 -4c0 -15.333 -12.333 -32.666 -37 -51.999c-53.333 -40.667 -109.333 -61 -168 -61c-16 0 -26.333 3.33301 -31 10c-3.33301 4.66699 -5 13.334 -5 26.001c0 24.667 11 60.334 33 107.001c-0.666992 1.33301 -1 2.33301 -1 3
s3 5.33398 9 14.001l17 31c29.333 48 61.666 76.667 96.999 86c8.66699 2 15.667 3 21 3c4.66699 0 7 -1 7 -3c0 -2.66699 -4.33301 -7 -13 -13c-17.333 -12.667 -38.666 -40.667 -63.999 -84c34.667 6 64.667 8 90 6c20 28.667 30 56.334 30 83.001
c0 7.33301 -0.833008 11.666 -2.5 12.999s-5.66699 2 -12 2s-9.5 1.66699 -9.5 5s5.33301 6.33301 16 9s19 4 25 4c18 0 27 -8.33301 27 -25c0 -14 -6 -31.333 -18 -52s-24 -34.334 -36 -41.001c26 -4.66699 39 -9.66699 39 -15zM204.999 327.998
c-2 0 -3.00098 0.666992 -3.00098 2c0 5.33301 18.333 18.833 55 40.5s58.667 32.5 66 32.5s11 -2.33301 11 -7c0 -4 -19.667 -16.333 -59 -37s-62.666 -31 -69.999 -31z" />
    <glyph glyph-name="ecircumflex" unicode="&#xea;" horiz-adv-x="243" 
d="M261 162c0 -2.66699 -4.66797 -4.00195 -14.001 -4.00195c-4 0 -10 0.5 -18 1.5s-14 1.5 -18 1.5c-30 0 -67.667 -4.66699 -113 -14c-23.333 -42.667 -35 -74.667 -35 -96c0 -23.333 12 -35 36 -35c20 0 42.333 8 67 24c16.667 11.333 34.334 26.666 53.001 45.999
c16 16 24.333 24 25 24c2 0 3 -1.33301 3 -4c0 -15.333 -12.333 -32.666 -37 -51.999c-53.333 -40.667 -109.333 -61 -168 -61c-16 0 -26.333 3.33301 -31 10c-3.33301 4.66699 -5 13.334 -5 26.001c0 24.667 11 60.334 33 107.001c-0.666992 1.33301 -1 2.33301 -1 3
s3 5.33398 9 14.001l17 31c29.333 48 61.666 76.667 96.999 86c8.66699 2 15.667 3 21 3c4.66699 0 7 -1 7 -3c0 -2.66699 -4.33301 -7 -13 -13c-17.333 -12.667 -38.666 -40.667 -63.999 -84c34.667 6 64.667 8 90 6c20 28.667 30 56.334 30 83.001
c0 7.33301 -0.833008 11.666 -2.5 12.999s-5.66699 2 -12 2s-9.5 1.66699 -9.5 5s5.33301 6.33301 16 9s19 4 25 4c18 0 27 -8.33301 27 -25c0 -14 -6 -31.333 -18 -52s-24 -34.334 -36 -41.001c26 -4.66699 39 -9.66699 39 -15zM306.999 305.998l-5.00098 -5
c-9.33301 0.666992 -22.666 8.16699 -39.999 22.5s-29 26.166 -35 35.499c-26 -16.667 -57.667 -35 -95 -55l-2 6c4.66699 6.66699 23 20.334 55 41.001s52 32 60 34l4 -2c10 -19.333 29 -43 57 -71z" />
    <glyph glyph-name="edieresis" unicode="&#xeb;" horiz-adv-x="243" 
d="M261 162c0 -2.66699 -4.66797 -4.00195 -14.001 -4.00195c-4 0 -10 0.5 -18 1.5s-14 1.5 -18 1.5c-30 0 -67.667 -4.66699 -113 -14c-23.333 -42.667 -35 -74.667 -35 -96c0 -23.333 12 -35 36 -35c20 0 42.333 8 67 24c16.667 11.333 34.334 26.666 53.001 45.999
c16 16 24.333 24 25 24c2 0 3 -1.33301 3 -4c0 -15.333 -12.333 -32.666 -37 -51.999c-53.333 -40.667 -109.333 -61 -168 -61c-16 0 -26.333 3.33301 -31 10c-3.33301 4.66699 -5 13.334 -5 26.001c0 24.667 11 60.334 33 107.001c-0.666992 1.33301 -1 2.33301 -1 3
s3 5.33398 9 14.001l17 31c29.333 48 61.666 76.667 96.999 86c8.66699 2 15.667 3 21 3c4.66699 0 7 -1 7 -3c0 -2.66699 -4.33301 -7 -13 -13c-17.333 -12.667 -38.666 -40.667 -63.999 -84c34.667 6 64.667 8 90 6c20 28.667 30 56.334 30 83.001
c0 7.33301 -0.833008 11.666 -2.5 12.999s-5.66699 2 -12 2s-9.5 1.66699 -9.5 5s5.33301 6.33301 16 9s19 4 25 4c18 0 27 -8.33301 27 -25c0 -14 -6 -31.333 -18 -52s-24 -34.334 -36 -41.001c26 -4.66699 39 -9.66699 39 -15zM316.999 385.998v-0.999023
c-2.66699 -2 -6.66699 -5.33301 -12 -10c-6 -8 -12.333 -16 -19 -24c-8.66699 -11.333 -16 -17 -22 -17c-4.66699 0 -7 4.33301 -7 13c0 7.33301 7.83301 15.666 23.5 24.999s27.5 14.333 35.5 15l1 -1v0zM244.999 385.999l-1 -0.999023
c-2.66699 -2 -6.66699 -5.33301 -12 -10c-6 -8 -12.333 -16 -19 -24c-8 -11.333 -15.333 -17 -22 -17c-4.66699 0 -7 4.33301 -7 13c0 7.33301 7.83301 15.666 23.5 24.999s27.5 14.333 35.5 15l1 -1h1z" />
    <glyph glyph-name="igrave" unicode="&#xec;" horiz-adv-x="143" 
d="M161 326c-5.33301 0 -21.168 10.332 -47.501 30.999s-39.5 33.334 -39.5 38.001c0 7.33301 6 11 18 11c6.66699 0 20.834 -10.833 42.501 -32.5s32.5 -35.5 32.5 -41.5c0 -4 -2 -6 -6 -6zM55.998 -0.000976562c-32.667 0 -48.999 16.6689 -48.999 50.002
c0 23.333 7 51.333 21 84c7.33301 17.333 21.333 45.666 42 84.999c4 8.66699 10.333 21 19 37c7.33301 11.333 21 17 41 17l-1 -1c0.666992 0 1 -0.333008 1 -1c2 1.33301 3.66699 2 5 2c4 0 6 -3.33301 6 -10c0 -8 -3.83301 -19.833 -11.5 -35.5
s-14.834 -24.834 -21.501 -27.501l-38 -71c-16 -30.667 -24 -55.667 -24 -75c0 -18.667 10 -28 30 -28c14.667 0 35.667 10.167 63 30.5s41.333 30.5 42 30.5s1 -0.333008 1 -1c0 -3.33301 -2.66699 -8.33301 -8 -15c-14 -18 -31.667 -33.667 -53 -47
c-24 -16 -45.667 -24 -65 -24z" />
    <glyph glyph-name="iacute" unicode="&#xed;" horiz-adv-x="143" 
d="M139 320c-1.33301 0 -2.00098 0.666992 -2.00098 2c0 4.66699 18.333 18 55 40s58.667 33 66 33c6.66699 0 10 -2.33301 10 -7s-19.667 -17.167 -59 -37.5s-62.666 -30.5 -69.999 -30.5zM55.999 0c-32.667 0 -48.999 16.6689 -48.999 50.002c0 23.333 7 51.333 21 84
c7.33301 17.333 21.333 45.666 42 84.999c4 8.66699 10.333 21 19 37c7.33301 11.333 21 17 41 17l-1 -1c0.666992 0 1 -0.333008 1 -1c2 1.33301 3.66699 2 5 2c4 0 6 -3.33301 6 -10c0 -8 -3.83301 -19.833 -11.5 -35.5s-14.834 -24.834 -21.501 -27.501l-38 -71
c-16 -30.667 -24 -55.667 -24 -75c0 -18.667 10 -28 30 -28c14.667 0 35.667 10.167 63 30.5s41.333 30.5 42 30.5s1 -0.333008 1 -1c0 -3.33301 -2.66699 -8.33301 -8 -15c-14 -18 -31.667 -33.667 -53 -47c-24 -16 -45.667 -24 -65 -24z" />
    <glyph glyph-name="icircumflex" unicode="&#xee;" horiz-adv-x="143" 
d="M239 326l-5 -4c-9.33301 0.666992 -22.833 8 -40.5 22s-29.167 25.667 -34.5 35c-26 -16.667 -57.667 -35 -95 -55l-3 7c5.33301 6 24 19.333 56 40s52 32 60 34l4 -1c10 -19.333 29 -43 57 -71zM56 0c-32.667 0 -48.999 16.6689 -48.999 50.002c0 23.333 7 51.333 21 84
c7.33301 17.333 21.333 45.666 42 84.999c4 8.66699 10.333 21 19 37c7.33301 11.333 21 17 41 17l-1 -1c0.666992 0 1 -0.333008 1 -1c2 1.33301 3.66699 2 5 2c4 0 6 -3.33301 6 -10c0 -8 -3.83301 -19.833 -11.5 -35.5s-14.834 -24.834 -21.501 -27.501l-38 -71
c-16 -30.667 -24 -55.667 -24 -75c0 -18.667 10 -28 30 -28c14.667 0 35.667 10.167 63 30.5s41.333 30.5 42 30.5s1 -0.333008 1 -1c0 -3.33301 -2.66699 -8.33301 -8 -15c-14 -18 -31.667 -33.667 -53 -47c-24 -16 -45.667 -24 -65 -24z" />
    <glyph glyph-name="idieresis" unicode="&#xef;" horiz-adv-x="143" 
d="M244 392v-0.999023c-2.66699 -2 -6.66699 -5.33301 -12 -10c-6.66699 -8 -13 -16 -19 -24c-8.66699 -11.333 -16 -17 -22 -17c-4.66699 0 -7 4.33301 -7 13c0 7.33301 7.66699 15.666 23 24.999s27 14.333 35 15l2 -1v0zM171 392.001v-0.999023
c-2.66699 -2 -6.66699 -5.33301 -12 -10c-6.66699 -8 -13 -16 -19 -24c-8.66699 -11.333 -16 -17 -22 -17c-4.66699 0 -7 4.33301 -7 13c0 7.33301 7.66699 15.666 23 24.999s27 14.333 35 15l2 -1v0zM56 0.00195312c-32.667 0 -48.999 16.6689 -48.999 50.002
c0 23.333 7 51.333 21 84c7.33301 17.333 21.333 45.666 42 84.999c4 8.66699 10.333 21 19 37c7.33301 11.333 21 17 41 17l-1 -1c0.666992 0 1 -0.333008 1 -1c2 1.33301 3.66699 2 5 2c4 0 6 -3.33301 6 -10c0 -8 -3.83301 -19.833 -11.5 -35.5
s-14.834 -24.834 -21.501 -27.501l-38 -71c-16 -30.667 -24 -55.667 -24 -75c0 -18.667 10 -28 30 -28c14.667 0 35.667 10.167 63 30.5s41.333 30.5 42 30.5s1 -0.333008 1 -1c0 -3.33301 -2.66699 -8.33301 -8 -15c-14 -18 -31.667 -33.667 -53 -47
c-24 -16 -45.667 -24 -65 -24z" />
    <glyph glyph-name="ntilde" unicode="&#xf1;" horiz-adv-x="237" 
d="M397 87c0.666992 0 0.999023 -0.669922 0.999023 -2.00293c0 -3.33301 -1.66699 -8 -5 -14c-11.333 -18 -26.666 -34 -45.999 -48c-22 -15.333 -42.333 -23 -61 -23c-41.333 0 -62 22.333 -62 67c0 21.333 8.66699 60 26 116c6 19.333 9 32 9 38
c0 5.33301 -1.66699 8 -5 8c-4.66699 0 -12.667 -4.66699 -24 -14c-25.333 -21.333 -54.833 -53.166 -88.5 -95.499s-57.834 -78.166 -72.501 -107.499c-2.66699 -5.33301 -10.667 -11.166 -24 -17.499s-22.666 -9.5 -27.999 -9.5c-4.66699 0 -6.66699 1.66699 -6 5
c31.333 53.333 63.333 119.666 96 198.999l8 22c0 1.33301 -1.66699 2 -5 2s-5 1 -5 3c0 0.666992 12 20.667 36 60c2.66699 4.66699 8.66699 9 18 13s16.666 6 21.999 6c6.66699 0 10 -3 10 -9s-26.333 -63.667 -79 -173c22.667 26.667 53.334 58.334 92.001 95.001
c50 46.667 82.667 70 98 70c7.33301 0 11 -5.66699 11 -17c0 -10.667 -3.33301 -28.667 -10 -54c-20.667 -78 -31 -125 -31 -141c0 -26.667 9.66699 -40 29 -40c14.667 0 34.167 10.167 58.5 30.5s36.833 30.5 37.5 30.5zM379.999 378.997
c-2.66699 -5.33301 -12.335 -13.833 -29.002 -25.5s-27.667 -17.5 -33 -17.5c-12.667 0 -26.5 6.5 -41.5 19.5s-28.167 19.5 -39.5 19.5c-7.33301 0 -16.333 -3.16699 -27 -9.5s-17 -9.83301 -19 -10.5l-2 4c2.66699 4.66699 12.5 12.5 29.5 23.5s28.167 16.5 33.5 16.5
c8.66699 0 20.834 -5.83301 36.501 -17.5s31.167 -17.5 46.5 -17.5c7.33301 0 15.833 2.66699 25.5 8s15.834 8.33301 18.501 9z" />
    <glyph glyph-name="ograve" unicode="&#xf2;" horiz-adv-x="229" 
d="M219 307c40.667 0 61.001 -17.666 61.001 -52.999c0 -31.333 -15.667 -72.333 -47 -123c-28.667 -46.667 -57 -81.667 -85 -105c10 -12 23 -18 39 -18c5.33301 0 8 -1.33301 8 -4c0 -4 -3.33301 -6 -10 -6c-16.667 0 -31.667 7.66699 -45 23
c-26 -19.333 -53.667 -29 -83 -29c-31.333 0 -47 14 -47 42s11.333 63.667 34 107c20 35.333 41.667 66.666 65 93.999v2c-0.666992 21.333 12.666 39 39.999 53c22.667 11.333 46 17 70 17zM234.001 246.001c0 25.333 -8.66699 38.001 -26 38.001
c-16 0 -29 -9.66699 -39 -29c4.66699 -6 7 -11.667 7 -17c0 -2.66699 -0.666992 -4.33398 -2 -5.00098c-19.333 -11.333 -35 -23 -47 -35c-5.33301 -18 -8 -39 -8 -63c0 -39.333 6.66699 -71.333 20 -96c22 20.667 43.333 53 64 97s31 80.667 31 110zM131.001 32.002
c-19.333 30.667 -29.333 70.667 -30 120c-23.333 -37.333 -35 -68 -35 -92c0 -28.667 10.333 -43 31 -43c10.667 0 22 5 34 15zM272.001 337.002c-5.33301 0 -21.167 10.332 -47.5 30.999s-39.5 33.334 -39.5 38.001c0 7.33301 6 11 18 11c6 0 20 -10.833 42 -32.5
s33 -35.5 33 -41.5c0 -4 -2 -6 -6 -6z" />
    <glyph glyph-name="oacute" unicode="&#xf3;" horiz-adv-x="229" 
d="M219 307c40.667 0 61.001 -17.666 61.001 -52.999c0 -31.333 -15.667 -72.333 -47 -123c-28.667 -46.667 -57 -81.667 -85 -105c10 -12 23 -18 39 -18c5.33301 0 8 -1.33301 8 -4c0 -4 -3.33301 -6 -10 -6c-16.667 0 -31.667 7.66699 -45 23
c-26 -19.333 -53.667 -29 -83 -29c-31.333 0 -47 14 -47 42s11.333 63.667 34 107c20 35.333 41.667 66.666 65 93.999v2c-0.666992 21.333 12.666 39 39.999 53c22.667 11.333 46 17 70 17zM234.001 246.001c0 25.333 -8.66699 38.001 -26 38.001
c-16 0 -29 -9.66699 -39 -29c4.66699 -6 7 -11.667 7 -17c0 -2.66699 -0.666992 -4.33398 -2 -5.00098c-19.333 -11.333 -35 -23 -47 -35c-5.33301 -18 -8 -39 -8 -63c0 -39.333 6.66699 -71.333 20 -96c22 20.667 43.333 53 64 97s31 80.667 31 110zM131.001 32.002
c-19.333 30.667 -29.333 70.667 -30 120c-23.333 -37.333 -35 -68 -35 -92c0 -28.667 10.333 -43 31 -43c10.667 0 22 5 34 15zM235.001 351.002c-1.33301 0.666992 -2.00098 1.33301 -2.00098 2c0 5.33301 18.333 18.833 55 40.5s58.667 32.5 66 32.5
c6.66699 0 10 -2.33301 10 -7c0 -4 -19.667 -16.333 -59 -37s-62.666 -31 -69.999 -31z" />
    <glyph glyph-name="ocircumflex" unicode="&#xf4;" horiz-adv-x="229" 
d="M219 307c40.667 0 61.001 -17.666 61.001 -52.999c0 -31.333 -15.667 -72.333 -47 -123c-28.667 -46.667 -57 -81.667 -85 -105c10 -12 23 -18 39 -18c5.33301 0 8 -1.33301 8 -4c0 -4 -3.33301 -6 -10 -6c-16.667 0 -31.667 7.66699 -45 23
c-26 -19.333 -53.667 -29 -83 -29c-31.333 0 -47 14 -47 42s11.333 63.667 34 107c20 35.333 41.667 66.666 65 93.999v2c-0.666992 21.333 12.666 39 39.999 53c22.667 11.333 46 17 70 17zM234.001 246.001c0 25.333 -8.66699 38.001 -26 38.001
c-16 0 -29 -9.66699 -39 -29c4.66699 -6 7 -11.667 7 -17c0 -2.66699 -0.666992 -4.33398 -2 -5.00098c-19.333 -11.333 -35 -23 -47 -35c-5.33301 -18 -8 -39 -8 -63c0 -39.333 6.66699 -71.333 20 -96c22 20.667 43.333 53 64 97s31 80.667 31 110zM131.001 32.002
c-19.333 30.667 -29.333 70.667 -30 120c-23.333 -37.333 -35 -68 -35 -92c0 -28.667 10.333 -43 31 -43c10.667 0 22 5 34 15zM330.001 331.002l-4.99902 -5c-8.66699 0.666992 -21.834 8 -39.501 22s-29.5 26 -35.5 36c-26 -17.333 -57.667 -36 -95 -56l-2 7
c4.66699 6 23 19.5 55 40.5s52 32.167 60 33.5l4 -1c10.667 -19.333 29.667 -43 57 -71z" />
    <glyph glyph-name="otilde" unicode="&#xf5;" horiz-adv-x="229" 
d="M219 307c40.667 0 61.001 -17.666 61.001 -52.999c0 -31.333 -15.667 -72.333 -47 -123c-28.667 -46.667 -57 -81.667 -85 -105c10 -12 23 -18 39 -18c5.33301 0 8 -1.33301 8 -4c0 -4 -3.33301 -6 -10 -6c-16.667 0 -31.667 7.66699 -45 23
c-26 -19.333 -53.667 -29 -83 -29c-31.333 0 -47 14 -47 42s11.333 63.667 34 107c20 35.333 41.667 66.666 65 93.999v2c-0.666992 21.333 12.666 39 39.999 53c22.667 11.333 46 17 70 17zM234.001 246.001c0 25.333 -8.66699 38.001 -26 38.001
c-16 0 -29 -9.66699 -39 -29c4.66699 -6 7 -11.667 7 -17c0 -2.66699 -0.666992 -4.33398 -2 -5.00098c-19.333 -11.333 -35 -23 -47 -35c-5.33301 -18 -8 -39 -8 -63c0 -39.333 6.66699 -71.333 20 -96c22 20.667 43.333 53 64 97s31 80.667 31 110zM131.001 32.002
c-19.333 30.667 -29.333 70.667 -30 120c-23.333 -37.333 -35 -68 -35 -92c0 -28.667 10.333 -43 31 -43c10.667 0 22 5 34 15zM348.001 381.002c-2.66699 -4.66699 -12.3359 -13 -29.0029 -25s-27.667 -18 -33 -18c-12.667 0 -26.667 6.5 -42 19.5s-28.333 19.5 -39 19.5
c-8 0 -17.167 -3.16699 -27.5 -9.5s-16.5 -9.83301 -18.5 -10.5l-2 4c2.66699 5.33301 12.334 13.333 29.001 24s28 16 34 16c8.66699 0 20.834 -5.83301 36.501 -17.5s30.834 -17.5 45.501 -17.5c7.33301 0 16 2.66699 26 8s16.333 8.33301 19 9z" />
    <glyph glyph-name="odieresis" unicode="&#xf6;" horiz-adv-x="229" 
d="M219 307c40.667 0 61.001 -17.666 61.001 -52.999c0 -31.333 -15.667 -72.333 -47 -123c-28.667 -46.667 -57 -81.667 -85 -105c10 -12 23 -18 39 -18c5.33301 0 8 -1.33301 8 -4c0 -4 -3.33301 -6 -10 -6c-16.667 0 -31.667 7.66699 -45 23
c-26 -19.333 -53.667 -29 -83 -29c-31.333 0 -47 14 -47 42s11.333 63.667 34 107c20 35.333 41.667 66.666 65 93.999v2c-0.666992 21.333 12.666 39 39.999 53c22.667 11.333 46 17 70 17zM234.001 246.001c0 25.333 -8.66699 38.001 -26 38.001
c-16 0 -29 -9.66699 -39 -29c4.66699 -6 7 -11.667 7 -17c0 -2.66699 -0.666992 -4.33398 -2 -5.00098c-19.333 -11.333 -35 -23 -47 -35c-5.33301 -18 -8 -39 -8 -63c0 -39.333 6.66699 -71.333 20 -96c22 20.667 43.333 53 64 97s31 80.667 31 110zM131.001 32.002
c-19.333 30.667 -29.333 70.667 -30 120c-23.333 -37.333 -35 -68 -35 -92c0 -28.667 10.333 -43 31 -43c10.667 0 22 5 34 15zM328.001 405.002v-2c-2.66699 -2 -6.66699 -5.33301 -12 -10c-6.66699 -8 -13 -16 -19 -24c-8.66699 -10.667 -16 -16 -22 -16
c-4.66699 0 -7 4 -7 12c0 7.33301 7.66699 15.833 23 25.5s27 14.5 35 14.5l2 -1v1zM255.001 405.002v-2c-2.66699 -2 -6.66699 -5.33301 -12 -10c-6.66699 -8 -13 -16 -19 -24c-8.66699 -10.667 -16 -16 -22 -16c-4.66699 0 -7 4 -7 12c0 7.33301 7.66699 15.833 23 25.5
s27 14.5 35 14.5l2 -1v1z" />
    <glyph glyph-name="divide" unicode="&#xf7;" horiz-adv-x="304" 
d="M275 151c0 -3.33301 -2.66797 -5 -8.00098 -5c-40 0 -84.333 -2 -133 -6c-45.333 -4 -65.333 -6 -60 -6c-3.33301 0 -6.66602 3.16699 -9.99902 9.5s-5 11.5 -5 15.5l2 1c37.333 4.66699 72 7 104 7c73.333 0 110 -5.33301 110 -16zM168.999 84l-0.00195312 -2.00098
l-16 -14l-22 -33c-10.667 -14.667 -20 -22 -28 -22c-7.33301 0 -11 6.66699 -11 20c0 12.667 6.66699 21.334 20 26.001c4.66699 4 13.834 9.16699 27.501 15.5s22.834 9.5 27.501 9.5l2 -1v1zM234.997 293.999l-0.000976562 -2.00098l-16 -14l-22 -33
c-10.667 -14.667 -20.334 -22 -29.001 -22c-7.33301 0 -11 6.66699 -11 20c0 12.667 7 21.334 21 26.001c4.66699 3.33301 13.834 8.33301 27.501 15s22.834 10 27.501 10l2 -1v1z" />
    <glyph glyph-name="ugrave" unicode="&#xf9;" horiz-adv-x="244" 
d="M270 -8c-29.333 0 -43.9971 21.6641 -43.9971 64.9971c0 14.667 2 34 6 58c4.66699 28.667 7.33398 48 8.00098 58c-88 -112.667 -148.333 -169 -181 -169c-24.667 0 -37 13 -37 39c0 22 7.33301 49 22 81c2 4 15.333 29 40 75h-2c-4 0 -6 1.66699 -6 5
c0 1.33301 0.333008 3 1 5c19.333 34.667 30.333 53.334 33 56.001c12.667 14 32.667 21 60 21c3.33301 0 5 -2 5 -6c0 -5.33301 -17.667 -36 -53 -92c-10 -16 -20.667 -37.667 -32 -65c-12.667 -31.333 -19 -53.666 -19 -66.999c0 -9.33301 3 -14 9 -14
c9.33301 0 23.666 8.33301 42.999 25c45.333 38 89.333 91 132 159l3 11c5.33301 20 13.666 33.667 24.999 41s26 11 44 11c10.667 0 16 -2.66699 16 -8c0 -4.66699 -5.66699 -13.667 -17 -27c-13.333 -15.333 -21 -24.666 -23 -27.999c-8 -15.333 -15.333 -41 -22 -77
c-6 -33.333 -9 -60.666 -9 -81.999c0 -30 7.66699 -45 23 -45c13.333 0 30.166 9 50.499 27s30.166 27 29.499 27c0.666992 0 1 -0.666992 1 -2c0 -14.667 -16.333 -34.334 -49 -59.001c-21.333 -15.333 -40.333 -23 -57 -23zM270.003 327.997
c-6 0 -22.001 10.332 -48.001 30.999s-39 33.334 -39 38.001c0 7.33301 5.66699 11 17 11c6.66699 0 20.834 -10.667 42.501 -32s32.5 -35.333 32.5 -42c0 -4 -1.66699 -6 -5 -6z" />
    </font>
</defs>
</svg>
